<svg width="428" height="303" viewBox="0 0 428 303" fill="none" xmlns="http://www.w3.org/2000/svg">
<path d="M11.758 150.865L11.3675 262.997L425.822 263.118L423.283 207.755C423 201.613 421.108 195.658 417.795 190.478C414.483 185.298 409.864 181.075 404.398 178.227L376.161 163.544L362.97 118.186C361.495 113.171 358.428 108.77 354.228 105.641C350.027 102.512 344.919 100.822 339.664 100.824L62.3856 100.743C55.7637 100.731 49.2002 102.019 43.0707 104.532C36.9412 107.045 31.3658 110.735 26.6636 115.39C21.9614 120.045 18.2246 125.575 15.6669 131.662C13.1093 137.749 11.781 144.274 11.758 150.865Z" fill="#8CC63E"/>
<path d="M301.533 216.881C303.358 214.611 308.589 207.431 310.771 209.998C312.771 212.351 308.863 217.179 306.482 219.669C306.753 220.136 307.136 220.946 307.439 221.907C310.015 220.849 312.901 220.79 314.022 220.893L315.708 219.731C317.572 217.867 319.407 214.655 320.806 215.025C321.025 215.083 321.183 215.192 321.289 215.339C321.769 213.66 322.368 212.436 323.608 212.562C326.182 212.821 323.548 219.705 323.532 219.957C325.357 216.116 325.735 211.881 327.961 212.018C330.188 212.155 328.221 218.624 326.761 220.916C330.698 218.594 334.048 217.075 334.717 218.263C336.401 221.256 324.884 228.81 320.844 230.791C317.611 232.377 307.564 233.185 302.945 233.39L293.185 235.023C292.316 235.168 291.484 234.621 291.273 233.767C290.241 229.574 292.196 225.206 296.015 223.169L296.676 222.816C297.804 219.845 300.384 217.621 301.533 216.881Z" fill="#CFF69A"/>
<path d="M307.881 225.483C308.024 224.284 307.783 222.998 307.439 221.907M317.96 226.711L313.862 226.459M317.96 226.711C320.269 225.046 323.642 222.756 326.761 220.916M317.96 226.711L317.561 225.825M326.761 220.916C330.698 218.594 334.048 217.075 334.717 218.263C336.401 221.256 324.884 228.81 320.844 230.791C317.611 232.377 307.564 233.185 302.945 233.39L293.185 235.023C292.316 235.168 291.484 234.621 291.273 233.767V233.767C290.241 229.574 292.196 225.206 296.015 223.169L296.676 222.816C297.804 219.845 300.384 217.621 301.533 216.881C303.358 214.611 308.589 207.431 310.771 209.998C312.771 212.351 308.863 217.179 306.482 219.669C306.753 220.136 307.136 220.946 307.439 221.907M326.761 220.916C328.221 218.624 330.188 212.155 327.961 212.018C325.735 211.881 325.357 216.116 323.532 219.957M326.761 220.916L327.329 221.712M317.561 225.825L316.561 224.8M317.561 225.825C317.561 225.825 320.228 223.099 323.532 219.957M323.532 219.957C323.548 219.705 326.182 212.821 323.608 212.562C322.368 212.436 321.769 213.66 321.289 215.339M323.532 219.957L324.173 220.251M320.343 219.001L315.86 223.084M320.343 219.001C320.707 217.754 320.972 216.447 321.289 215.339M320.343 219.001L321.49 219.325M315.708 219.731C317.572 217.867 319.407 214.655 320.806 215.025C321.025 215.083 321.183 215.192 321.289 215.339M315.708 219.731L314.022 220.893M315.708 219.731L316.551 220.288M314.022 220.893C312.901 220.79 310.015 220.849 307.439 221.907M314.022 220.893L314.536 221.583M306.335 214.135L307.883 215.092M306.537 215.719L307.181 215.961M289.546 231.654C288.839 229.515 288.972 224.272 294.898 222.204M313.717 220.114L315.014 218.926M328.221 210.748C329.486 210.826 331.089 212.599 328.987 218.349M317.558 232.87C319.207 232.667 323.247 231.659 326.217 229.246M299.059 235.331L302.505 234.681" stroke="#373539" stroke-width="0.176425" stroke-linecap="round" stroke-linejoin="round"/>
<path d="M315.699 203.134C315.937 202.623 316.638 202.556 316.966 203.013L318.603 205.293C318.723 205.46 318.909 205.569 319.114 205.593L321.912 205.922C322.472 205.988 322.75 206.632 322.415 207.085L320.739 209.349C320.617 209.515 320.569 209.725 320.609 209.927L321.151 212.681C321.259 213.232 320.73 213.698 320.195 213.521L317.522 212.64C317.326 212.575 317.111 212.596 316.931 212.697L314.468 214.07C313.975 214.345 313.369 213.989 313.374 213.426L313.397 210.618C313.399 210.412 313.314 210.215 313.162 210.075L311.098 208.17C310.685 207.788 310.84 207.103 311.378 206.932L314.066 206.077C314.263 206.015 314.425 205.872 314.512 205.685L315.699 203.134Z" fill="#FFCB2D"/>
<path d="M315.698 203.135C315.936 202.624 316.637 202.557 316.965 203.013L318.602 205.293C318.722 205.461 318.908 205.57 319.113 205.594L321.91 205.923C322.47 205.988 322.749 206.632 322.413 207.085L320.738 209.349C320.615 209.515 320.568 209.725 320.608 209.927L321.149 212.68C321.258 213.232 320.729 213.697 320.194 213.521L317.521 212.639C317.325 212.575 317.111 212.595 316.93 212.696L314.467 214.069C313.974 214.344 313.369 213.988 313.374 213.426L313.397 210.618C313.399 210.412 313.314 210.215 313.162 210.075L311.099 208.17C310.685 207.788 310.84 207.103 311.378 206.932L314.065 206.078C314.262 206.015 314.424 205.873 314.511 205.686L315.698 203.135Z" stroke="#373539" stroke-width="0.176425" stroke-linecap="round" stroke-linejoin="round"/>
<path d="M317.846 202.493L318.943 203.807C319.309 204.244 319.824 204.529 320.389 204.606L322.059 204.834M316.635 213.903L314.638 215.147C313.408 215.883 312.419 214.838 312.482 213.877M312.574 210.901L312.534 213.082" stroke="#373539" stroke-width="0.176425" stroke-linecap="round" stroke-linejoin="round"/>
<path d="M306.292 206.421C305.792 206.024 306.032 205.329 306.679 204.416C306.543 204.387 306.41 204.33 306.282 204.241C305.718 203.848 305.713 203.306 306.053 202.622C305.936 202.623 305.829 202.595 305.733 202.534C305.069 202.117 306.212 200.43 307.657 198.297L307.674 198.272C306.853 198.599 306.145 198.556 306.184 197.95C306.224 197.344 308.007 196.491 310.741 193.517C315.504 191.377 322.842 188.686 322.842 188.686L335.458 187.637L338.551 186.623C341.919 185.519 345.62 186.689 347.747 189.51C348.58 190.614 348.423 192.184 347.38 193.1L346.103 194.222C345.817 198.614 342.382 202.204 337.866 202.129C336.394 203.66 325.688 208.905 324.385 207.078C323.213 205.434 328.843 201.572 332.067 199.643C332.31 199.498 332.466 199.245 332.484 198.963C332.515 198.49 332.151 198.085 331.678 198.064L324.334 197.749L315.853 199.254C314.773 200.964 312.966 203.37 311.108 205.014C309.361 206.56 307.569 207.433 306.292 206.421Z" fill="#CFF69A"/>
<path d="M315.853 199.254L324.334 197.749M315.853 199.254L315.15 198.349M315.853 199.254C314.773 200.964 312.966 203.37 311.108 205.014M306.679 204.416C306.032 205.329 305.792 206.024 306.292 206.421C307.569 207.433 309.361 206.56 311.108 205.014M306.679 204.416C307.877 202.727 310.471 200.295 312.361 197.634C313.014 196.714 313.912 195.975 314.99 195.646L324.093 192.868M306.679 204.416C306.543 204.387 306.41 204.33 306.282 204.241C305.718 203.848 305.713 203.306 306.053 202.622M324.334 197.749L331.678 198.064C332.151 198.085 332.515 198.49 332.484 198.963V198.963C332.466 199.245 332.31 199.498 332.067 199.643C328.843 201.572 323.213 205.434 324.385 207.078C325.688 208.905 336.394 203.66 337.866 202.129C342.382 202.204 345.817 198.614 346.103 194.222L347.38 193.1C348.423 192.184 348.58 190.614 347.747 189.51V189.51C345.62 186.689 341.919 185.519 338.551 186.623L335.458 187.637M324.334 197.749L324.821 196.512M335.458 187.637L322.842 188.686M335.458 187.637C335.964 187.668 337.068 187.888 338.479 188.837M322.842 188.686C322.842 188.686 315.504 191.377 310.741 193.517M322.842 188.686C324.417 189.729 327.984 191.942 329.658 192.45M310.741 193.517C309.776 195.079 308.668 196.804 307.674 198.272M310.741 193.517C308.007 196.491 306.224 197.344 306.184 197.95C306.145 198.556 306.853 198.599 307.674 198.272M322.694 190.957L313.455 194.164C312.379 194.538 311.505 195.324 310.884 196.279C309.101 199.02 306.782 201.151 306.053 202.622M306.053 202.622C305.936 202.623 305.829 202.595 305.733 202.534C305.067 202.116 306.221 200.417 307.674 198.272M328.572 203.635L329.461 204.805M329.534 203.695L330.066 204.099M311.108 205.014L310.431 204.496M326.739 187.354C326.739 187.354 324.042 187.181 322.554 187.654C320.857 188.194 319.382 188.791 317.656 189.527M347.022 194.938C347.136 196.043 346.88 198.67 344.942 200.334M337.945 200.918C339.003 200.78 341.28 200.089 341.917 198.425M324.29 208.542C325.585 208.926 329.386 208.298 331.832 206.624M320.161 199.418L324.224 198.654" stroke="#373539" stroke-width="0.176425" stroke-linecap="round" stroke-linejoin="round"/>
<path d="M54.4692 277.641L156.09 277.666L156.115 270.602C155.839 244.604 133.297 223.716 105.509 223.709C77.4871 223.702 54.6813 244.927 54.5888 271.194L54.4692 277.641Z" fill="#455A64"/>
<path d="M138.705 276.091C141.748 257.619 129.285 240.232 110.867 237.256C92.4498 234.28 75.0519 246.843 72.0082 265.315C68.9645 283.787 81.4275 301.174 99.8452 304.15C118.263 307.126 135.661 294.563 138.705 276.091Z" fill="#263238"/>
<path d="M104.982 291.778C114.544 291.78 122.324 284.055 122.358 274.524C122.391 264.993 114.667 257.266 105.104 257.263C95.5416 257.261 87.7621 264.986 87.7282 274.517C87.6943 284.048 95.4189 291.775 104.982 291.778Z" fill="#455A64"/>
<path d="M324.482 274.274L426.103 274.3L426.031 267.236C425.754 241.238 403.213 220.35 375.444 220.343C347.403 220.336 324.597 241.56 324.505 267.828L324.482 274.274Z" fill="#455A64"/>
<path d="M408.427 276.551C411.47 258.079 399.007 240.692 380.59 237.716C362.172 234.74 344.774 247.303 341.73 265.775C338.687 284.247 351.15 301.634 369.567 304.61C387.985 307.586 405.383 295.023 408.427 276.551Z" fill="#263238"/>
<path d="M392.134 273.944C393.694 264.508 387.331 255.622 377.923 254.097C368.514 252.572 359.623 258.985 358.063 268.421C356.503 277.856 362.865 286.742 372.274 288.267C381.682 289.793 390.574 283.38 392.134 273.944Z" fill="#455A64"/>
<path d="M12.0228 255.918L54.92 255.93L54.8448 277.491L11.9476 277.478C9.07507 277.478 6.32415 276.341 4.30002 274.319C2.27588 272.297 1.14435 269.554 1.15431 266.695C1.16428 263.836 2.31494 261.094 4.35316 259.073C6.39139 257.052 9.15023 255.917 12.0228 255.918Z" fill="#E0E0E0"/>
<g opacity="0.4">
<path opacity="0.4" d="M19.7811 200.468L11.769 200.472L11.5998 235.365L19.6119 235.361L19.7811 200.468Z" fill="white"/>
</g>
<path d="M279.409 249.411C279.216 249.44 279.021 249.44 278.828 249.411L277.124 249.41L270.576 249.542L246.208 249.856L163.44 250.661L163.13 250.661L163.131 250.373C159.891 242.012 154.891 234.438 148.464 228.153C143.785 223.526 138.332 219.74 132.346 216.961C126.605 214.325 120.48 212.598 114.195 211.841C102.666 210.355 90.9381 211.824 80.1288 216.109C71.1506 219.835 63.39 225.966 57.7181 233.815C53.4175 239.682 50.2678 246.297 48.434 253.314L48.4335 253.468L48.2786 253.468L34.7203 253.365L31.2531 253.363C30.459 253.363 30.0716 253.363 30.0716 253.363C30.0716 253.363 30.459 253.363 31.2531 253.363L34.7203 253.365L48.2792 253.275L48.0656 253.448C49.8408 246.341 52.9658 239.632 57.2731 233.68C62.9771 225.693 70.8136 219.441 79.898 215.629C90.8182 211.301 102.668 209.824 114.312 211.342C120.643 212.04 126.821 213.722 132.62 216.327C138.692 219.141 144.224 222.979 148.969 227.672C152.263 230.902 155.199 234.472 157.728 238.322C160.21 242.051 162.257 246.049 163.828 250.239L163.423 249.95L246.19 249.433L270.577 249.445L278.828 249.449L279.409 249.411Z" fill="#263238"/>
<path d="M279.686 107.808L280.287 107.808L282.228 107.809L289.543 107.81L317.272 107.701L326.664 107.703L331.689 107.704C333.453 107.656 335.215 107.799 336.946 108.131C340.637 108.859 344.065 110.548 346.883 113.026C349.919 115.673 352.123 119.137 353.232 123.005L366.494 175.548L366.493 175.645C366.618 189.857 366.738 205.153 366.857 221.049L366.856 221.416L366.487 221.416C360.669 222.491 355.048 224.446 349.818 227.213C344.454 230.138 339.714 234.078 335.864 238.812C331.506 244.032 328.286 250.097 326.409 256.62L326.408 256.948L278.868 256.937L278.869 256.531C279.022 213.274 279.308 176.127 279.46 149.731C279.506 136.62 279.543 126.178 279.666 118.985C279.678 115.446 279.688 112.72 279.694 110.825L279.702 108.736C279.703 108.272 279.704 108.04 279.704 108.04C279.704 108.04 279.703 108.291 279.702 108.775C279.7 109.258 279.697 109.993 279.694 110.921C279.687 112.855 279.678 115.601 279.665 119.178C279.639 126.391 279.602 136.853 279.672 150.021C279.579 176.32 279.565 213.39 279.49 256.531L279.084 256.125L325.868 256.136L325.459 256.465C327.359 249.815 330.633 243.631 335.07 238.309C338.998 233.505 343.832 229.511 349.296 226.556C354.619 223.781 360.331 221.826 366.237 220.758L365.867 221.184C365.768 205.288 365.667 189.973 365.562 175.76C360.778 156.654 356.377 139.017 352.436 123.218C351.4 119.59 349.381 116.319 346.601 113.764C343.82 111.208 340.386 109.467 336.673 108.73C334.988 108.391 333.271 108.241 331.551 108.284L326.545 108.283L317.231 108.281L289.561 108.139L282.168 108.137L279.587 108.137L279.686 107.808Z" fill="#263238"/>
<path d="M285.721 126.995C285.689 136.036 285.643 149.038 285.611 158.079C285.621 160.858 286.734 163.517 288.706 165.475C290.678 167.433 293.35 168.533 296.139 168.533L337.721 168.542C339.348 168.541 340.953 168.166 342.413 167.446C343.873 166.726 345.147 165.68 346.137 164.391C347.126 163.101 347.804 161.601 348.118 160.01C348.432 158.418 348.373 156.777 347.946 155.214L339.468 124.302C338.861 122.082 337.539 120.123 335.706 118.727C333.873 117.331 331.629 116.574 329.318 116.572L296.362 116.565C293.57 116.554 290.884 117.645 288.89 119.599C286.896 121.554 285.757 124.212 285.721 126.995Z" fill="#F5F5F5"/>
<g opacity="0.4">
<path opacity="0.4" d="M420.561 200.01C418.578 200.12 416.633 200.618 414.839 201.475C413.044 202.331 411.435 203.53 410.103 205.003C408.771 206.475 407.742 208.192 407.075 210.056C406.407 211.92 406.116 213.894 406.215 215.865C406.42 219.845 408.205 223.571 411.178 226.227C414.15 228.883 418.069 230.251 422.073 230.031L424.23 229.913L422.843 202.017C422.827 201.735 422.756 201.459 422.632 201.206C422.509 200.952 422.336 200.726 422.124 200.539C421.912 200.353 421.665 200.21 421.397 200.119C421.128 200.028 420.844 199.991 420.561 200.01Z" fill="white"/>
</g>
<path d="M328.893 256.982L154.717 256.873L154.653 277.176L328.829 277.285L328.893 256.982Z" fill="#E0E0E0"/>
<path d="M376.02 163.665L366.41 162.907C366.41 162.907 358.075 130.756 356.406 124.856C355.159 120.484 358.048 116.055 359.628 114.044C359.754 113.855 359.921 113.696 360.116 113.579C360.312 113.462 360.53 113.39 360.757 113.368C360.757 113.368 362.145 116.153 362.395 116.946C362.645 117.74 376.02 163.665 376.02 163.665Z" fill="#F5F5F5"/>
<path d="M353.526 150.252L353.437 175.562L357.705 175.563C360.995 175.563 364.155 174.263 366.491 171.947C368.827 169.631 370.149 166.489 370.166 163.21C370.178 160.175 369.07 157.245 367.054 154.977C365.037 152.71 362.252 151.262 359.228 150.911L353.526 150.252Z" fill="#8CC63E"/>
<g opacity="0.2">
<path opacity="0.2" d="M353.538 150.274L353.404 175.56L357.677 175.556C360.971 175.553 364.137 174.25 366.481 171.933C368.824 169.617 370.153 166.476 370.175 163.2C370.193 160.168 369.089 157.242 367.074 154.979C365.059 152.716 362.273 151.273 359.246 150.926L353.538 150.274Z" fill="#373539"/>
</g>
<path d="M307.783 182.021C308.463 181.887 309.117 181.646 309.722 181.308C310.379 180.872 310.877 180.236 311.143 179.497C311.315 179.023 311.383 178.518 311.345 178.016C311.307 177.515 311.162 177.027 310.921 176.586C310.625 176.06 310.196 175.62 309.678 175.309C309.16 174.998 308.568 174.827 307.963 174.811L303.429 174.81L293.025 174.806C292.24 174.797 291.476 175.06 290.864 175.55C290.252 176.041 289.831 176.727 289.672 177.492C289.513 178.257 289.627 179.052 289.995 179.741C290.362 180.43 290.96 180.968 291.685 181.264C292.364 181.519 293.091 181.618 293.815 181.554L296.024 181.555L299.995 181.556L305.711 181.693C306.419 181.666 307.128 181.725 307.822 181.867C307.125 181.995 306.417 182.046 305.709 182.02L299.993 182.154L296.022 182.152L293.813 182.152C292.986 182.234 292.151 182.128 291.373 181.843C290.467 181.475 289.72 180.805 289.26 179.947C288.799 179.089 288.655 178.097 288.851 177.142C289.047 176.188 289.572 175.33 290.334 174.717C291.097 174.104 292.05 173.774 293.028 173.785L303.432 173.788L307.985 173.789C308.706 173.822 309.405 174.043 310.012 174.428C310.619 174.814 311.114 175.352 311.446 175.988C311.726 176.502 311.884 177.073 311.909 177.657C311.933 178.242 311.824 178.825 311.589 179.362C311.266 180.173 310.676 180.853 309.916 181.289C309.452 181.57 308.926 181.735 308.384 181.771C308.208 181.904 308.001 181.991 307.783 182.021Z" fill="#263238"/>
<path d="M259.232 156.811L128.338 156.749L128.26 180.371L259.154 180.433L259.232 156.811Z" fill="white"/>
<path d="M129.179 180.672L43.3759 180.642L43.46 156.103L129.263 156.133L129.179 180.672ZM46.2461 178.986L126.187 179.014L126.26 157.692L46.3192 157.664L46.2461 178.986Z" fill="#F5F5F5"/>
<path d="M208.771 232.842C208.617 232.668 222.243 221.931 239.193 208.877C256.142 195.823 270.019 185.453 270.154 185.588C270.29 185.723 256.663 196.499 239.713 209.553C222.764 222.607 208.906 233.035 208.771 232.842Z" fill="#263238"/>
<path d="M231.842 193.535C231.977 193.728 223.526 199.442 212.977 206.275C202.429 213.109 193.766 218.475 193.553 218.282C193.34 218.088 201.869 212.375 212.418 205.541C222.966 198.708 231.707 193.342 231.842 193.535Z" fill="#263238"/>
<path d="M414.811 200.511C414.137 200.301 413.488 200.016 412.877 199.662L407.402 197.016C402.933 194.757 396.763 191.59 389.993 188.037C383.223 184.485 377.091 181.241 372.681 178.846L367.536 176.008C366.853 175.69 366.205 175.302 365.603 174.85C366.28 175.063 366.929 175.354 367.537 175.719L372.857 178.345C377.345 180.604 383.516 183.771 390.266 187.323C397.017 190.876 403.168 194.12 407.578 196.514L412.781 199.391C413.496 199.691 414.177 200.066 414.811 200.511Z" fill="#263238"/>
<path d="M30.0608 110.434C30.1094 110.742 30.1084 111.055 30.0578 111.363C30.0556 112.079 30.0528 112.969 30.0493 114.072C30.0416 116.53 29.8751 119.878 29.7647 123.981C29.4261 132.477 28.9806 143.972 28.4921 156.706C28.0037 169.44 27.3633 180.916 26.9661 189.412C26.9564 191.324 26.648 193.224 26.0517 195.043C25.5605 196.476 24.612 197.712 23.3502 198.564C22.5859 199.096 21.6862 199.404 20.7545 199.452C20.4303 199.466 20.1065 199.42 19.7997 199.316C21.0021 199.363 22.1858 199.002 23.1561 198.293C24.284 197.459 25.1198 196.295 25.545 194.965C26.0654 193.173 26.3143 191.314 26.2837 189.45C26.6223 180.974 27.0679 169.459 27.5562 156.744C28.0446 144.03 28.6852 132.515 29.0822 124.039C29.3095 119.955 29.515 116.588 29.6397 114.13C29.6431 113.046 29.8018 112.195 29.8432 111.44C29.8856 111.099 29.9584 110.763 30.0608 110.434Z" fill="#263238"/>
<path d="M321.192 56.9636L317.776 56.9609L317.643 101.379L321.059 101.382L321.192 56.9636Z" fill="#455A64"/>
<path d="M315.131 101.082C315.131 101.082 314.549 100.83 314.299 99.8433C314.132 99.262 314.134 98.6448 314.306 98.0636C314.576 97.3073 315.048 96.6384 315.672 96.1295C316.998 94.9304 319.079 94.3894 320.754 93.1712C321.631 92.4719 322.267 91.518 322.574 90.4429C322.88 89.3677 322.842 88.2251 322.465 87.1746C321.696 84.8722 319.192 83.9622 317.409 82.6268C316.517 81.9893 315.755 81.1881 315.164 80.2659C314.658 79.4416 314.367 78.5039 314.318 77.5379C314.294 76.1898 314.62 74.8572 315.264 73.6691C315.449 73.2095 315.721 72.7893 316.065 72.4312C316.065 72.4312 315.908 72.9342 315.575 73.8046C315.085 74.9868 314.868 76.2628 314.94 77.5381C315.018 78.393 315.302 79.216 315.767 79.9372C316.338 80.7605 317.053 81.4749 317.878 82.0466C318.75 82.6659 319.817 83.1886 320.805 83.9821C321.939 84.6322 322.839 85.6201 323.379 86.8073C323.833 88.0146 323.886 89.3356 323.532 90.5778C323.179 91.82 322.436 92.9185 321.413 93.7131C319.465 95.0473 317.521 95.4723 316.235 96.5165C315.863 96.7374 315.54 97.0311 315.286 97.3796C315.032 97.7282 314.851 98.1245 314.755 98.5443C314.659 98.9641 314.65 99.3986 314.728 99.8215C314.806 100.244 314.969 100.647 315.209 101.004L315.131 101.082Z" fill="#263238"/>
<path d="M352.954 64.9054C349.429 66.6383 345.598 67.6627 341.679 67.9201C337.761 68.1775 333.832 67.663 330.117 66.4058C326.402 65.1487 322.974 63.1735 320.028 60.5932C317.082 58.0128 314.676 54.8778 312.947 51.3671C311.218 47.8563 310.2 44.0387 309.952 40.1321C309.704 36.2255 310.23 32.3064 311.5 28.5987C312.771 24.8909 314.76 21.4671 317.355 18.5227C319.95 15.5783 323.1 13.1709 326.625 11.4381L352.954 64.9054Z" fill="#455A64"/>
<path d="M331.507 45.8169L346.5 38.4409C346.743 38.3209 346.96 38.1542 347.138 37.9504C347.316 37.7467 347.452 37.5099 347.539 37.2537C347.625 36.9975 347.66 36.7269 347.641 36.4576C347.622 36.1882 347.549 35.9254 347.428 35.6842C347.19 35.1963 346.767 34.8232 346.252 34.647C345.738 34.4707 345.173 34.5057 344.683 34.7443L329.691 42.1202" fill="#EBEBEB"/>
<path d="M329.692 42.1397C331.54 41.5089 333.338 40.7388 335.069 39.836L340.793 37.1081L344.154 35.4789C344.643 35.1593 345.224 35.0105 345.806 35.0557C346.076 35.0855 346.333 35.1838 346.554 35.3412C346.774 35.4986 346.951 35.7099 347.066 35.9548C347.184 36.1951 347.242 36.4604 347.236 36.7283C347.229 36.9962 347.157 37.2586 347.027 37.4932C346.675 37.9586 346.185 38.3015 345.626 38.4731L342.291 40.158L336.64 43.0337C334.875 43.8693 333.169 44.8243 331.534 45.8921C333.383 45.2643 335.181 44.4941 336.911 43.5884L342.635 40.8605L346.015 39.2293C346.311 39.0821 346.574 38.9773 346.922 38.7665C347.268 38.562 347.554 38.2713 347.752 37.9232C347.959 37.5693 348.074 37.1701 348.088 36.7614C348.102 36.3526 348.014 35.9471 347.832 35.581C347.65 35.2149 347.38 34.8997 347.046 34.6637C346.712 34.4277 346.324 34.2781 345.917 34.2284C345.521 34.1627 345.115 34.2047 344.741 34.35C344.347 34.5071 344.128 34.6464 343.812 34.7956L340.474 36.4612L334.826 39.3562C333.049 40.1566 331.333 41.087 329.692 42.1397Z" fill="#263238"/>
<path d="M326.97 11.4575C326.871 11.6573 326.794 11.8674 326.741 12.084C326.626 12.4849 326.414 13.0902 326.241 13.886C325.693 16.1293 325.35 18.417 325.217 20.7208C324.699 28.3709 326.188 36.0186 329.536 42.9119C332.885 49.8053 337.978 55.707 344.315 60.0369C346.215 61.3544 348.226 62.5067 350.325 63.4809C350.889 63.7505 351.467 63.9895 352.057 64.1967C352.443 64.3513 352.666 64.4256 352.681 64.3851C351.97 63.9356 351.232 63.5312 350.47 63.1743C348.456 62.0938 346.52 60.8773 344.674 59.5331C338.543 55.1472 333.608 49.305 330.318 42.5345C327.027 35.764 325.483 28.2787 325.825 20.7552C325.912 18.4732 326.158 16.1994 326.56 13.9504C326.767 13.1323 326.905 12.2984 326.97 11.4575Z" fill="#263238"/>
<path d="M345.359 22.2888C346.684 22.3343 348.004 22.484 349.305 22.7365C350.831 23.0731 352.269 23.7246 353.527 24.649C354.784 25.5735 355.833 26.7505 356.606 28.1044C357.379 29.4583 357.859 30.9592 358.015 32.5106C358.171 34.062 357.999 35.6296 357.512 37.1127C357.066 38.3425 356.535 39.5407 355.925 40.6987C355.925 40.6987 356.272 40.4684 356.704 39.9182C357.3 39.1193 357.776 38.2383 358.116 37.303C358.714 35.7416 358.958 34.0685 358.831 32.4039C358.704 30.7392 358.209 29.1241 357.381 27.6745C356.554 26.2249 355.414 24.9766 354.044 24.0193C352.675 23.0619 351.109 22.4192 349.459 22.1372C348.473 21.9394 347.462 21.8995 346.463 22.0191C345.712 22.1161 345.353 22.231 345.359 22.2888Z" fill="#263238"/>
<path d="M340.306 14.2367C342.8 13.7263 345.353 13.5802 347.887 13.8032C350.616 14.1166 353.257 14.9528 355.665 16.2657C358.604 17.8609 361.082 20.182 362.862 23.0072C364.561 25.8692 365.488 29.1218 365.556 32.4501C365.631 35.1847 365.165 37.9088 364.184 40.4661C363.23 42.8201 361.928 45.0191 360.321 46.9897C360.886 46.5785 361.388 46.0878 361.812 45.533C363.053 44.0939 364.047 42.4604 364.754 40.6989C365.848 38.0777 366.392 35.2622 366.353 32.4261C366.369 28.9275 365.413 25.4952 363.593 22.5092C361.772 19.5233 359.157 17.1 356.037 15.5079C353.546 14.1804 350.81 13.3717 347.995 13.131C346.102 12.9635 344.193 13.0951 342.34 13.521C341.63 13.658 340.945 13.8992 340.306 14.2367Z" fill="#263238"/>
<path d="M335.603 5.41317C339.262 4.54914 343.035 4.2837 346.776 4.62724C350.814 5.04858 354.724 6.2704 358.277 8.22097C362.685 10.5138 366.381 13.9618 368.967 18.1951C371.554 22.4285 372.934 27.2873 372.96 32.2504C373.057 36.3031 372.359 40.3378 370.907 44.1282C369.477 47.6022 367.507 50.8307 365.07 53.6948C365.29 53.5463 365.488 53.3688 365.66 53.1672C366.208 52.6451 366.725 52.0917 367.208 51.51C368.983 49.3538 370.422 46.9436 371.477 44.361C373.055 40.517 373.832 36.3946 373.759 32.2455C373.761 27.1249 372.344 22.1071 369.665 17.7457C366.986 13.3842 363.149 9.84859 358.577 7.52887C354.914 5.56515 350.883 4.37384 346.735 4.02878C343.955 3.76303 341.15 3.9285 338.418 4.51934C337.68 4.68308 336.952 4.8882 336.238 5.13369C335.844 5.29104 335.58 5.37668 335.603 5.41317Z" fill="#263238"/>
<path d="M88.8463 145.82L87.0065 145.816L82.5108 140.505L81.3082 141.846L81.2908 145.805L79.8083 145.803L79.86 134.014L81.3425 134.017L81.3158 140.114L86.6117 134.026L88.4693 134.03L83.4792 139.623L88.8463 145.82Z" fill="white"/>
<path d="M95.0054 146.043C93.255 146.04 91.8345 145.46 90.7441 144.303C89.6536 143.146 89.1122 141.69 89.1199 139.934C89.1276 138.179 89.6818 136.725 90.7823 135.572C91.8829 134.419 93.3084 133.844 95.0589 133.848C96.7974 133.851 98.2119 134.431 99.3024 135.588C100.405 136.745 100.952 138.201 100.944 139.957C100.937 141.712 100.377 143.166 99.2641 144.319C98.1635 145.472 96.7439 146.046 95.0054 146.043ZM95.0111 144.735C96.321 144.738 97.3768 144.292 98.1785 143.398C98.9922 142.492 99.4021 141.344 99.4082 139.954C99.4144 138.551 99.0146 137.402 98.2088 136.505C97.4149 135.608 96.363 135.158 95.0531 135.156C93.7314 135.153 92.6696 135.599 91.8679 136.493C91.0661 137.387 90.6622 138.535 90.656 139.937C90.6499 141.328 91.0438 142.477 91.8376 143.386C92.6315 144.283 93.6894 144.733 95.0111 144.735Z" fill="white"/>
<path d="M113.165 145.865L111.683 145.862L111.707 140.454L104.741 140.441L104.717 145.849L103.234 145.846L103.286 134.058L104.768 134.06L104.746 139.133L111.712 139.146L111.735 134.073L113.217 134.076L113.165 145.865Z" fill="white"/>
<path d="M122.488 145.882L121.005 145.88L121.01 144.731C119.296 144.61 117.947 144.124 116.962 143.274C115.977 142.424 115.488 141.327 115.494 139.984C115.5 138.652 115.999 137.563 116.991 136.717C117.983 135.87 119.336 135.39 121.052 135.275L121.057 134.091L122.539 134.093L122.534 135.278C124.236 135.399 125.586 135.89 126.582 136.752C127.579 137.603 128.074 138.687 128.068 140.007C128.063 141.35 127.558 142.445 126.554 143.292C125.562 144.138 124.208 144.619 122.493 144.734L122.488 145.882ZM125.45 142.335C126.168 141.724 126.528 140.947 126.532 140.004C126.536 139.062 126.183 138.283 125.471 137.669C124.759 137.055 123.778 136.694 122.528 136.586L122.498 143.408C123.749 143.304 124.733 142.947 125.45 142.335ZM118.094 137.655C117.389 138.267 117.034 139.044 117.03 139.987C117.026 140.929 117.374 141.708 118.073 142.322C118.785 142.936 119.766 143.297 121.016 143.405L121.046 136.583C119.795 136.687 118.811 137.044 118.094 137.655Z" fill="white"/>
<path d="M138.146 145.912L130.341 145.897L130.392 134.108L138.198 134.123L138.192 135.431L131.869 135.419L131.853 139.219L138.051 139.23L138.045 140.538L131.847 140.527L131.829 144.592L138.152 144.604L138.146 145.912Z" fill="white"/>
<path d="M141.993 145.919L140.51 145.916L140.562 134.127L145.349 134.136C146.504 134.138 147.413 134.482 148.077 135.166C148.741 135.851 149.071 136.694 149.066 137.696C149.062 138.697 148.719 139.539 148.037 140.221C147.367 140.903 146.461 141.243 145.317 141.241L142.013 141.235L141.993 145.919ZM145.145 139.933C145.847 139.934 146.42 139.729 146.862 139.318C147.304 138.894 147.527 138.353 147.53 137.693C147.533 137.033 147.315 136.496 146.876 136.083C146.438 135.658 145.867 135.445 145.164 135.444L142.039 135.438L142.019 139.927L145.145 139.933Z" fill="white"/>
<path d="M158.799 145.95L150.993 145.936L151.045 134.147L158.851 134.161L158.845 135.469L152.522 135.457L152.505 139.257L158.703 139.269L158.697 140.577L152.499 140.565L152.482 144.631L158.805 144.642L158.799 145.95Z" fill="white"/>
<path d="M171.094 145.973L169.611 145.971L169.635 140.562L162.669 140.549L162.645 145.958L161.163 145.955L161.214 134.166L162.697 134.169L162.675 139.241L169.641 139.254L169.663 134.182L171.145 134.184L171.094 145.973Z" fill="white"/>
<path d="M183.407 148.17L183.417 145.996L173.879 145.978L173.93 134.19L175.413 134.192L175.367 144.673L182.333 144.686L182.379 134.205L183.861 134.208L183.815 144.689L184.905 144.691L184.89 148.173L183.407 148.17Z" fill="white"/>
<path d="M188.215 146.005L186.786 146.003L186.838 134.214L188.321 134.216L188.28 143.425L195.179 134.229L196.698 134.232L196.646 146.021L195.164 146.018L195.205 136.615L188.215 146.005Z" fill="white"/>
<path d="M200.611 146.028L198.879 146.025L202.115 141.224C201.246 141.151 200.509 140.814 199.905 140.212C199.312 139.61 199.018 138.802 199.022 137.789C199.027 136.717 199.376 135.857 200.069 135.21C200.775 134.564 201.681 134.241 202.789 134.243L207.576 134.252L207.524 146.041L206.041 146.039L206.062 141.355L203.668 141.35L200.611 146.028ZM202.924 140.059L206.068 140.065L206.087 135.558L202.944 135.552C202.241 135.55 201.669 135.761 201.226 136.185C200.784 136.596 200.561 137.132 200.558 137.792C200.555 138.452 200.773 138.994 201.212 139.419C201.663 139.844 202.233 140.057 202.924 140.059Z" fill="white"/>
<path d="M60.5624 174.843L58.4724 174.84L58.5176 164.847L52.3191 164.836L52.2738 174.829L50.1838 174.826L50.2373 163.008L60.6159 163.026L60.5624 174.843Z" fill="white"/>
<path d="M65.1829 174.851L63.0929 174.848L63.1463 163.03L68.3803 163.039C69.5831 163.041 70.5282 163.397 71.2157 164.107C71.9152 164.817 72.2625 165.698 72.2577 166.749C72.253 167.788 71.8977 168.668 71.1918 169.387C70.4979 170.094 69.5496 170.447 68.3468 170.445L65.2028 170.44L65.1829 174.851ZM68.0692 168.62C68.6647 168.621 69.1537 168.45 69.5363 168.108C69.919 167.767 70.1116 167.312 70.1141 166.745C70.1167 166.178 69.9282 165.723 69.5487 165.38C69.1691 165.037 68.6817 164.865 68.0862 164.864L65.2281 164.859L65.2111 168.615L68.0692 168.62Z" fill="white"/>
<path d="M75.8365 174.87L73.425 174.866L76.3577 170.229C75.5723 170.097 74.907 169.736 74.3619 169.144C73.8168 168.541 73.5465 167.743 73.551 166.751C73.556 165.653 73.9173 164.761 74.6349 164.078C75.3525 163.394 76.2949 163.053 77.462 163.055L82.6959 163.064L82.6424 174.881L80.5524 174.878L80.5724 170.466L78.5002 170.463L75.8365 174.87ZM77.7225 168.636L80.5806 168.641L80.5976 164.885L77.7395 164.88C77.1441 164.879 76.655 165.05 76.2724 165.391C75.8898 165.733 75.6972 166.188 75.6946 166.755C75.692 167.322 75.8805 167.777 76.2601 168.12C76.6396 168.463 77.1271 168.635 77.7225 168.636Z" fill="white"/>
<path d="M97.557 174.907L95.467 174.904L95.5067 166.133L91.8051 174.897L90.9119 174.896L87.3075 166.119L87.2678 174.889L85.1778 174.886L85.2312 163.068L88.1787 163.073L91.3767 170.857L94.6631 163.084L97.6105 163.089L97.557 174.907Z" fill="white"/>
<path d="M110.811 174.93L108.435 174.926L107.57 172.657L102.104 172.647L101.218 174.914L98.8425 174.909L103.576 163.1L106.184 163.104L110.811 174.93ZM106.989 170.831L104.871 165.193L102.702 170.823L106.989 170.831Z" fill="white"/>
<path d="M113.988 174.936L111.576 174.931L114.509 170.294C113.724 170.163 113.058 169.802 112.513 169.21C111.968 168.607 111.698 167.809 111.702 166.817C111.707 165.718 112.069 164.827 112.786 164.143C113.504 163.459 114.446 163.119 115.613 163.121L120.847 163.13L120.794 174.947L118.704 174.944L118.724 170.532L116.652 170.528L113.988 174.936ZM115.874 168.702L118.732 168.707L118.749 164.951L115.891 164.946C115.295 164.945 114.806 165.115 114.424 165.457C114.041 165.799 113.849 166.254 113.846 166.821C113.843 167.387 114.032 167.843 114.411 168.186C114.791 168.529 115.278 168.701 115.874 168.702Z" fill="white"/>
<path d="M140.052 174.311L137.962 174.307L138.006 164.332L134.398 164.326L134.406 162.504L143.712 162.521L143.704 164.343L140.096 164.336L140.052 174.311Z" fill="#373539"/>
<path d="M147.521 174.324L145.431 174.321L145.483 162.524L150.717 162.534C151.92 162.536 152.865 162.892 153.552 163.6C154.252 164.309 154.599 165.188 154.595 166.237C154.59 167.275 154.235 168.153 153.529 168.871C152.835 169.577 151.887 169.929 150.684 169.927L147.541 169.921L147.521 174.324ZM150.407 168.104C151.002 168.106 151.491 167.935 151.874 167.594C152.256 167.253 152.449 166.799 152.451 166.233C152.454 165.668 152.265 165.213 151.886 164.871C151.506 164.528 151.019 164.356 150.423 164.355L147.565 164.35L147.549 168.099L150.407 168.104Z" fill="#373539"/>
<path d="M165.673 174.358L163.297 174.353L162.432 172.088L156.966 172.078L156.081 174.34L153.705 174.336L158.437 162.548L161.045 162.553L165.673 174.358ZM161.85 170.265L159.732 164.637L157.563 170.257L161.85 170.265Z" fill="#373539"/>
<path d="M177.352 174.379L175.262 174.375L175.284 169.229L169.086 169.217L169.064 174.364L166.974 174.36L167.026 162.564L169.116 162.568L169.094 167.396L175.293 167.407L175.314 162.579L177.404 162.583L177.352 174.379Z" fill="#373539"/>
<path d="M185.597 174.606C183.811 174.603 182.325 174.035 181.139 172.9C179.953 171.755 179.364 170.286 179.372 168.494C179.38 166.701 179.982 165.241 181.178 164.111C182.373 162.969 183.864 162.4 185.651 162.404C187.723 162.407 189.314 163.295 190.426 165.065L188.636 165.964C188.34 165.456 187.919 165.043 187.373 164.723C186.839 164.404 186.262 164.244 185.643 164.243C184.464 164.241 183.479 164.64 182.69 165.44C181.912 166.24 181.521 167.259 181.515 168.497C181.51 169.735 181.892 170.756 182.663 171.559C183.445 172.362 184.426 172.765 185.605 172.767C186.236 172.768 186.82 172.61 187.357 172.293C187.895 171.976 188.313 171.564 188.613 171.057L190.395 171.962C189.244 173.729 187.645 174.61 185.597 174.606Z" fill="#373539"/>
<path d="M191.201 174.617L191.209 172.777C191.9 172.779 192.419 172.514 192.767 171.984C193.114 171.443 193.387 170.341 193.585 168.679L194.309 162.614L202.4 162.629L202.348 174.425L200.258 174.421L200.302 164.447L196.176 164.439L195.656 168.824C195.508 170.038 195.301 171.04 195.036 171.829C194.782 172.619 194.452 173.214 194.046 173.614C193.651 174.002 193.233 174.267 192.792 174.407C192.362 174.548 191.832 174.618 191.201 174.617Z" fill="#373539"/>
<path d="M206.754 174.433L204.342 174.429L207.274 169.8C206.489 169.669 205.824 169.308 205.278 168.718C204.733 168.116 204.463 167.319 204.467 166.329C204.472 165.232 204.833 164.343 205.551 163.66C206.268 162.978 207.211 162.638 208.378 162.64L213.611 162.649L213.559 174.446L211.469 174.442L211.489 170.038L209.417 170.034L206.754 174.433ZM208.639 168.211L211.497 168.216L211.513 164.467L208.655 164.462C208.06 164.461 207.571 164.631 207.188 164.972C206.806 165.313 206.613 165.767 206.611 166.333C206.608 166.899 206.797 167.353 207.176 167.696C207.556 168.038 208.043 168.21 208.639 168.211Z" fill="#373539"/>
<path d="M225.48 176.643L225.49 174.467L216.094 174.45L216.146 162.654L218.236 162.658L218.192 172.632L224.39 172.644L224.434 162.669L226.524 162.673L226.48 172.648L227.587 172.65L227.57 176.647L225.48 176.643Z" fill="#373539"/>
<path d="M231.195 174.478L229.177 174.474L229.229 162.678L231.319 162.682L231.282 170.87L237.41 162.693L239.553 162.697L239.501 174.493L237.411 174.489L237.448 166.071L231.195 174.478Z" fill="#373539"/>
<path d="M243.908 174.501L241.497 174.497L244.429 169.869C243.643 169.737 242.978 169.377 242.433 168.786C241.888 168.184 241.617 167.387 241.622 166.397C241.627 165.3 241.988 164.411 242.705 163.728C243.423 163.046 244.365 162.706 245.532 162.708L250.765 162.717L250.713 174.514L248.623 174.51L248.643 170.106L246.571 170.102L243.908 174.501ZM245.793 168.279L248.651 168.285L248.668 164.535L245.81 164.53C245.214 164.529 244.725 164.699 244.343 165.04C243.96 165.381 243.768 165.835 243.765 166.401C243.763 166.967 243.951 167.421 244.331 167.764C244.71 168.106 245.198 168.278 245.793 168.279Z" fill="#373539"/>
</svg>
