<svg width="1605" height="201" viewBox="0 0 1605 201" fill="none" xmlns="http://www.w3.org/2000/svg">
<g opacity="0.2">
<path d="M587.28 157.153C625.363 155.508 680.494 148.183 719.455 147.508C774.073 146.537 837.903 153.39 892.575 153.633C967.781 154.887 960.284 145.026 1004.7 154.806C1017.91 148.277 1015.09 153.929 1015.33 140.898C1020.62 140.993 1049.85 149.855 1069.69 162.171C1052.13 145.984 1018.83 140.467 1015.33 139.374V79.8854C1021.62 80.9781 978.859 39.0661 979.926 38.6884V35.9905C980.601 35.5589 988.855 37.0967 987.761 34.8574C987.396 34.5337 984.586 28.5578 983.897 28.8681H979.926C979.71 28.1936 980.534 24.7268 979.169 24.8212C977.602 24.0658 978.751 38.3107 978.413 38.7019C979.061 39.5787 944.64 80.7083 950.111 79.8989V115.767L923.984 115.835V98.9596C928.672 99.8634 903.518 68.9454 904.234 68.5272C904.524 68.2924 904.748 67.9856 904.882 67.6374C905.017 67.2892 905.057 66.9118 905 66.5431C904.942 66.1744 904.789 65.8271 904.555 65.5362C904.321 65.2452 904.015 65.0207 903.666 64.8851C903.329 64.3859 904.477 51.7193 902.91 52.2994C901.789 52.2994 902.234 54.0665 902.153 54.7005C894.683 54.3228 896.453 54.9568 892.035 60.2312C890.387 62.6188 901.626 61.0136 902.153 61.4452V64.8851C901.806 65.0209 901.5 65.2447 901.266 65.5343C901.032 65.824 900.877 66.1696 900.817 66.5371C900.757 66.9046 900.794 67.2813 900.924 67.6303C901.054 67.9792 901.273 68.2883 901.559 68.5272C902.126 69.2152 876.418 100.106 881.592 98.9596V115.929L802.712 116.105V103.87C803.441 104.032 804.509 103.586 803.982 102.696L784.515 73.8151V72.0075H789.446L787.284 68.1091H784.515V66.5173C784.515 66.3169 784.435 66.1248 784.293 65.9831C784.151 65.8415 783.959 65.7619 783.758 65.7619C783.558 65.7619 783.365 65.8415 783.224 65.9831C783.082 66.1248 783.002 66.3169 783.002 66.5173V73.8151L771.843 90.65C771.276 90.65 742.393 80.9646 741.853 81.4502C729.046 88.748 730.275 86.9134 716.185 87.0483C716.185 86.6976 716.28 59.8265 716.185 59.5028C716.091 59.179 710.322 51.409 710.201 51.1662C710.106 49.2642 710.133 40.9816 710.782 39.3629C708.931 32.3214 703.406 33.2387 704.554 26.3995C706.756 26.8177 706.756 24.4705 704.554 24.8887C705 22.1908 702.609 22.1908 703.055 24.8887C700.812 24.4705 700.825 26.8312 703.055 26.3995C704.189 33.2522 698.677 32.2944 696.813 39.3629C697.448 40.9277 697.475 49.3451 697.394 51.1662C697.245 51.4225 691.491 59.2599 691.41 59.5028C691.328 59.7456 691.41 84.7821 691.41 85.1328C688.555 82.118 684.845 80.0469 680.778 79.1974C680.683 75.7037 680.534 58.6934 681.872 55.7931C681.755 53.4341 680.797 51.1946 679.17 49.48C667.336 36.719 670.727 40.3881 670.146 30.5947C670.821 30.4463 673.361 31.1073 673.307 29.8393C673.253 28.5713 670.808 29.2458 670.146 29.0974C669.943 28.4094 670.74 25.1719 669.389 25.2529C668.039 25.3338 668.835 28.4229 668.633 29.0974C667.971 29.2593 665.364 28.5713 665.418 29.8393C665.472 31.1073 667.971 30.4329 668.633 30.5947C667.93 37.7307 671.065 35.9905 664.58 44.2731C665.458 40.469 662.743 36.1794 660.527 34.0885C647.477 22.7303 646.234 18.2248 646.113 17.3345C646.113 16.9299 646.113 7.40626 646.113 6.98808C646.802 6.73178 651.246 7.66256 651.125 6.23267C651.26 4.80278 646.775 5.72007 646.113 5.47726C645.843 4.78929 646.815 -0.0669294 645.357 0.0814552C643.898 -0.0669294 644.87 4.82976 644.6 5.47726C643.911 5.73356 639.372 4.78929 639.493 6.23267C639.358 7.66256 643.938 6.73178 644.6 6.98808V16.6196C644.552 16.8236 644.552 17.0361 644.6 17.2401C644.992 23.6341 623.661 34.7765 626.133 44.6778C619.608 36.9348 622.202 37.5283 621.702 30.5947C622.377 30.4463 624.917 31.1073 624.863 29.8393C624.809 28.5713 622.364 29.2458 621.702 29.0974C621.499 28.4094 622.296 25.1719 620.945 25.2529C619.594 25.3338 620.391 28.4229 620.189 29.0974C619.527 29.2593 616.92 28.5713 616.974 29.8393C617.028 31.1073 619.527 30.4329 620.189 30.5947C619.23 40.6579 623.917 35.5184 611.124 49.48C609.414 51.2594 608.447 53.6235 608.422 56.0899C597.912 62.8347 600.83 67.2053 601.168 82.2056C598.088 84.0941 595.994 87.6958 594.413 90.8524L564.058 97.5027C563.99 97.1789 564.22 64.2511 563.99 63.9813C563.99 63.8464 554.385 51.3551 554.331 51.2202C553.967 50.3704 516.816 51.2202 516.222 50.9234V36.085C518.924 34.102 520.477 27.9912 516.127 25.2933C513.415 23.2028 510.901 20.8683 508.616 18.3193V10.6977C509.292 10.4414 513.669 11.3722 513.547 9.94229C513.682 8.5124 509.278 9.42969 508.616 9.18687C508.373 8.49891 509.265 4.41159 507.86 4.5195C506.441 4.3981 507.333 8.56636 507.103 9.18687C506.414 9.44318 502.078 8.5124 502.186 9.94229C502.064 11.3722 506.428 10.4549 507.103 10.6977V18.3328C504.819 20.8822 502.304 23.2167 499.592 25.3068C495.175 27.9373 496.89 34.3043 499.592 36.0984V50.9369C498.822 51.1662 462.941 50.3299 462.374 51.1932C462.374 51.3686 452.769 63.7924 452.742 63.9543C452.499 64.1836 452.742 116.563 452.661 116.901L352.814 117.13V103.991C353.652 104.166 355.3 103.762 354.354 102.642L334.09 85.4296V76.2297C334.09 76.0294 334.011 75.8372 333.869 75.6956C333.727 75.5539 333.534 75.4743 333.334 75.4743C333.133 75.4743 332.941 75.5539 332.799 75.6956C332.657 75.8372 332.577 76.0294 332.577 76.2297V77.5787C331.888 77.9834 324.647 76.54 325.647 78.6983C328.187 82.9745 326.998 83.7434 332.577 83.3522V85.4026L311.017 102.656C309.963 103.883 311.908 104.14 312.759 104.005C312.759 104.005 312.759 117.211 312.759 117.251C300.115 117.413 264.464 117.009 251.333 116.847C251.495 116.536 250.982 86.7651 251.036 86.4413C255.278 86.7516 225.098 52.4882 225.665 51.8812V41.818C225.665 41.6177 225.586 41.4255 225.444 41.2838C225.302 41.1422 225.11 41.0626 224.909 41.0626C224.708 41.0626 224.516 41.1422 224.374 41.2838C224.232 41.4255 224.152 41.6177 224.152 41.818V43.1669H219.829C219.451 42.7623 215.439 48.3199 215.169 48.4818C213.575 50.829 223.585 49.2912 224.139 49.7094V51.8407C224.76 52.5691 193.243 87.3451 198.701 86.4008C198.566 92.2418 198.174 110.115 198.039 116.226L110.229 115.282C109.5 114.85 111.931 78.8602 108.878 80.9511V68.217C108.662 67.1648 106.501 65.3977 104.488 63.3877V53.6888C110.58 49.6419 97.9762 41.1435 97.3008 39.5787C97.3008 36.3682 97.3008 32.1056 97.3008 28.895C97.3008 28.6947 97.2211 28.5026 97.0792 28.3609C96.9373 28.2192 96.7449 28.1396 96.5443 28.1396C96.3436 28.1396 96.1512 28.2192 96.0093 28.3609C95.8674 28.5026 95.7877 28.6947 95.7877 28.895V31.5929C90.9919 31.2152 91.735 32.146 89.1683 35.5589C87.9389 37.7981 95.1257 36.3682 95.7877 36.7459V39.6057C95.0717 41.1705 82.3866 49.7903 88.7089 53.7967V63.5091C88.5873 63.725 85.1289 67.7448 85.1019 67.9876C85.0749 68.2305 85.1019 80.7083 85.1019 81.005C82.0894 78.7793 84.494 114.85 83.751 115.053L-16.8387 113.973C-16.4875 113.582 -16.8387 89.8676 -16.7171 89.4225C-11.7322 90.7714 -34.0089 63.0775 -33.2253 62.8347V51.409C-33.2253 51.2087 -33.3051 51.0166 -33.447 50.8749C-33.5888 50.7332 -33.7812 50.6536 -33.9819 50.6536C-34.1825 50.6536 -34.3749 50.7332 -34.5168 50.8749C-34.6587 51.0166 -34.7384 51.2087 -34.7384 51.409V53.1222C-41.3309 52.7715 -39.8179 53.2841 -43.3978 58.1673C-44.7487 60.4335 -35.2923 58.9497 -34.7384 59.3544V62.8212L-50.8009 88.2354C-51.2602 89.0448 -50.3281 89.5844 -49.6121 89.3955C-49.6121 89.4764 -49.6121 113.488 -49.6121 113.582L-137.233 112.638L-137.733 93.3884C-135.288 93.1321 -153.255 69.7278 -153.025 69.1073V64.1162C-153.006 64.0318 -153.006 63.9442 -153.025 63.8599C-153.025 63.7115 -159.861 52.2049 -159.915 52.07V41.4133C-159.915 41.213 -159.995 41.0208 -160.136 40.8792C-160.278 40.7375 -160.471 40.6579 -160.671 40.6579C-160.872 40.6579 -161.064 40.7375 -161.206 40.8792C-161.348 41.0208 -161.428 41.213 -161.428 41.4133V43.8684C-165.575 43.3693 -165.089 45.0555 -167.223 47.7939C-168.345 49.9387 -162.117 48.6302 -161.428 48.9674V52.07L-168.074 63.8599C-168.25 63.8599 -168.074 69.1208 -168.169 69.2557C-167.764 69.9301 -184.556 93.955 -180.908 93.4154V112.179L-201.658 111.963V72.9113C-195.106 74.9078 -226.867 38.567 -225.732 38.4861C-226.056 37.9465 -224.921 26.2646 -226.488 26.7772C-227.839 26.6828 -227.029 30.217 -227.245 30.824H-231.865L-233.77 35.1272H-227.326V38.4456L-252.304 72.736C-252.953 73.8016 -251.561 74.0849 -250.778 73.95L-250.575 133.169C-249.846 133.843 -274.892 146.186 -307.679 153.106C-277.715 151.083 -253.736 136.352 -250.575 134.896C-250.413 135.489 -250.953 137.715 -250.089 137.944L-243.632 140.642C-237.742 138.228 -229.758 135.165 -227.88 135.004C-220.585 148.385 -50.5983 143.515 -1.33011 141.978C85.4126 142.396 138.247 150.989 187.488 157.045C192.027 157.544 204.01 157.868 211.44 158.111C211.542 158.115 211.643 158.098 211.738 158.061C211.833 158.025 211.92 157.97 211.993 157.9C212.066 157.829 212.124 157.745 212.164 157.651C212.203 157.558 212.224 157.457 212.224 157.356C211.697 153.309 213.575 148.911 218.195 148.965C222.815 149.019 224.693 153.592 224.152 157.625C250.009 160.323 281.094 156.546 295.886 156.182C311.706 155.049 330.24 153.484 362.973 152.661C364.216 152.513 363.5 150.935 363.622 150.125C363.622 140.588 371.835 132.818 381.927 132.818C384.432 132.782 386.917 133.263 389.227 134.23C391.538 135.198 393.623 136.631 395.353 138.441C397.083 140.25 398.42 142.397 399.28 144.747C400.141 147.096 400.506 149.598 400.353 152.095C416.726 152.729 432.086 151.677 445.082 151.623C471.682 150.975 501.24 150.274 523.814 153.781C529.677 153.916 568.178 158.961 573.258 156.884C570.704 141.613 585.74 140.13 587.105 150.948C587.28 151.272 586.807 157.018 587.28 157.153ZM967.808 78.1183H966.89L951.651 78.3611L979.426 40.5905L1004.15 77.1605C1004.14 77.2818 1004.14 77.4034 1004.15 77.5247L967.808 78.1183ZM1013.81 78.1183V78.2397L1006.23 77.5247L985.667 47.2138L1013.82 78.0508C1013.82 78.0736 1013.81 78.0961 1013.81 78.1183ZM1013.81 149.383C1010.98 150.194 1008.26 151.33 1005.7 152.769V79.0086C1005.7 79.0086 1007.48 79.157 1007.58 79.157V87.5474H1009.08V79.3054L1011.05 79.4807V87.5744H1012.56V79.5886L1013.92 79.71L1013.81 149.383ZM951.665 79.8989L957.528 79.8045V87.8982H960.013V79.8045L966.89 79.5886V87.5474H969.375V79.5886L976.265 79.4807V87.5744H978.751V79.4807L985.64 79.3593V87.5474H988.126V79.2919L995.016 79.1839V87.5474H997.501V79.1435L1004.17 79.0221V153.093C995.878 150.87 987.387 149.447 978.818 148.844L976.035 138.052V116.469C976.292 114.715 952.354 116.213 951.719 115.767L951.665 79.8989ZM902.937 69.2557L922.876 97.4622H882.592L902.937 69.2557ZM883.132 98.9596H885.051V105.327H886.496V98.9596H888.752V105.327H891.103V98.9596H894.291V105.327H897.088V98.9596H901.14V105.327H904.855V98.9596H908.908V105.327H911.704V98.9596H914.892V105.327H917.243V98.9596H919.607V105.327H920.958V98.9596H922.403V115.835L883.132 115.929V98.9596ZM792.62 98.8516C792.62 98.9461 795.795 98.8516 795.93 98.8516V115.848H787.041V97.125L792.62 98.8516ZM685.438 96.7203H785.488V115.902H685.438V96.7203ZM797.389 103.87H801.185V116.132H797.389V103.87ZM783.799 75.4069L801.928 102.386H797.389C797.281 97.4622 798.565 97.152 792.972 97.4218C788.838 96.0728 777.639 92.4846 773.343 91.1491L783.799 75.4069ZM731.248 88.5592C731.802 88.5592 741.799 83.0689 742.272 82.934C749.026 85.0789 774.883 93.1726 781.178 95.2095H687.654L699.92 88.5592H731.248ZM694.881 89.4225C694.098 88.2894 693.368 87.399 692.828 86.7246V60.528H698.232V87.6823L694.895 89.4899C694.892 89.4672 694.887 89.4446 694.881 89.4225ZM695.597 56.1708C696.545 56.9434 697.311 57.9153 697.84 59.0171H693.544L695.597 56.1708ZM711.903 56.1708L713.97 59.0306H709.647C710.178 57.9186 710.948 56.9375 711.903 56.1574V56.1708ZM699.745 60.5414H707.566V87.0483H699.745V60.5414ZM700.379 59.0306C703.406 55.0782 703.716 55.4424 706.905 59.0306H700.379ZM709.079 87.0618V60.528H714.645V87.0483L709.079 87.0618ZM698.867 50.5052V42.2362H708.647V50.5052H698.867ZM699.407 36.8539C701.06 35.3296 702.525 33.6132 703.77 31.7413C704.108 33.5489 710.525 37.272 708.958 40.7253H698.583C698.326 40.0702 698.268 39.3544 698.415 38.6664C698.561 37.9785 698.906 37.3483 699.407 36.8539ZM698.61 52.0161H708.863L710.984 54.9433C709.839 55.8425 708.915 56.9914 708.283 58.3022C705.108 53.8911 702.149 53.4055 699.096 58.2212C698.462 56.9378 697.537 55.82 696.394 54.9568L698.61 52.0161ZM675.644 78.6174C671.051 78.6174 664.904 79.157 661.135 81.666C660.532 80.9286 659.915 80.2361 659.284 79.5886V60.528H679.143V78.8872C677.976 78.71 676.798 78.6198 675.617 78.6174H675.644ZM647.91 73.9635C647.18 71.3331 650.044 59.0036 645.14 59.125C640.237 59.2465 643.1 71.2656 642.439 73.8691C638.753 74.0623 635.205 75.3232 632.226 77.4978V59.9614C634.455 56.5216 632.887 51.409 630.226 49.1698H659.865C657.164 51.436 655.637 56.5755 657.866 59.9614V78.2397C655.043 75.8464 651.565 74.3564 647.883 73.9635H647.91ZM627.943 81.5851C623.282 78.7523 616.231 78.3746 610.786 78.7523V60.528H630.659C630.659 60.6089 630.659 78.6174 630.659 78.6713C629.674 79.5735 628.757 80.5474 627.916 81.5851H627.943ZM669.254 39.943C669.173 43.0321 683.723 52.2454 679.508 59.0171H658.987C654.826 52.2319 669.322 43.0321 669.227 39.943H669.254ZM630.969 35.1677C640.21 27.074 643.803 22.3391 645.14 19.6412C646.491 22.3391 650.071 27.1144 659.298 35.1407C663.135 38.7694 664.35 43.5581 661.216 47.605H628.794C625.93 43.2884 627.214 38.7963 630.942 35.1677H630.969ZM611.962 50.5322C617.365 45.2983 619.662 41.9799 620.689 39.943C620.607 43.0321 635.157 52.2454 630.942 59.0171H610.449C609.76 57.627 609.535 56.0531 609.807 54.5261C610.08 52.9991 610.835 51.5994 611.962 50.5322ZM608.179 57.8031C608.234 58.6936 608.614 59.5333 609.246 60.1637V73.7477H602.221C601.202 70.8129 601.24 67.6152 602.327 64.7051C603.415 61.7949 605.484 59.3542 608.179 57.8031ZM602.424 75.2585H609.179V78.9546C606.813 79.3387 604.53 80.1185 602.424 81.2613V75.2585ZM598.371 86.6436C604.504 78.7118 619.068 78.2397 627.943 83.3387C632.86 78.7118 637.021 74.8268 644.532 75.245C652.043 74.9078 656.583 78.6444 661.041 83.4736C672.051 77.3494 686.843 79.0625 693.679 90.2183L684.385 95.2634C684.23 95.3611 684.108 95.5018 684.034 95.6681C683.885 95.9649 684.034 116.037 684.034 116.348H681.088C681.088 116.348 681.088 90.8254 681.088 90.7175C677.036 83.595 666.35 82.1786 660.257 87.507C652.76 77.7675 636.575 77.7271 629.037 87.4395C622.945 82.1786 612.205 83.6355 608.274 90.7714C608.274 90.7714 608.274 116.401 608.274 116.482H595.48V91.7292C596.061 90.3802 597.736 87.3856 598.317 86.6436H598.371ZM609.705 91.6213H626.808V116.509H609.705V91.6213ZM661.959 90.1239C661.689 89.6653 661.405 89.2201 661.095 88.775C663.638 86.6737 666.898 85.6401 670.189 85.8917C673.48 86.1433 676.545 87.6606 678.738 90.1239H661.959ZM660.19 90.1239H628.848C635.643 79.0086 653.34 79.0086 660.135 90.1239H660.19ZM627.133 90.1239H610.449C612.64 87.6868 615.688 86.1868 618.959 85.9356C622.229 85.6844 625.472 86.7013 628.011 88.775C627.673 89.1662 627.376 89.6383 627.078 90.1239H627.133ZM628.321 91.6213H660.743V116.442L628.321 116.509V91.6213ZM662.284 91.6213H679.535V116.388H662.284V91.6213ZM593.9 92.4441V116.59H563.801V99.027L593.9 92.4441ZM544.226 94.0898V83.4736H548.725V84.5528C547.563 85.1868 547.266 86.9674 546.901 88.168C544.875 89.6383 547.442 90.2723 548.793 90.0025C548.763 90.1069 548.757 90.2168 548.777 90.3235C548.797 90.4303 548.842 90.5309 548.907 90.6176C548.973 90.7043 549.057 90.7746 549.155 90.823C549.252 90.8714 549.359 90.8966 549.468 90.8966C549.577 90.8966 549.684 90.8714 549.781 90.823C549.879 90.7746 549.963 90.7043 550.029 90.6176C550.094 90.5309 550.139 90.4303 550.159 90.3235C550.179 90.2168 550.173 90.1069 550.143 90.0025C551.494 90.2723 554.061 89.6383 552.048 88.168C551.67 86.9674 551.386 85.1868 550.211 84.5528V83.4736H554.615V94.0898H544.226ZM548.198 88.694C548.468 87.9251 548.739 86.2659 549.373 85.8613C549.448 85.888 549.529 85.888 549.603 85.8613C550.225 86.2659 550.495 87.9251 550.778 88.694H548.198ZM544.226 82.0302C544.175 81.3167 544.271 80.6003 544.509 79.9256C544.747 79.2509 545.122 78.6324 545.61 78.1087C546.098 77.585 546.689 77.1673 547.346 76.8817C548.002 76.5961 548.711 76.4487 549.427 76.4487C550.144 76.4487 550.853 76.5961 551.509 76.8817C552.166 77.1673 552.757 77.585 553.245 78.1087C553.733 78.6324 554.108 79.2509 554.346 79.9256C554.584 80.6003 554.68 81.3167 554.629 82.0302H544.226ZM549.427 74.8673C540.376 74.7459 543.078 88.5052 542.673 94.1573H536.567C536.189 88.4782 538.917 74.7594 529.812 74.8673C520.747 74.7459 523.449 88.5052 523.057 94.1573H517.032C516.533 86.4818 520.234 69.0938 507.738 69.3366C495.282 69.0803 498.943 86.5088 498.457 94.1573H492.351C492.351 93.9954 492.351 80.9781 492.351 81.3423C492.439 81.1932 492.471 81.0176 492.442 80.8471C492.412 80.6765 492.322 80.5221 492.189 80.4115C490.46 72.1829 478.747 73.8151 478.977 82.2461V94.1573H472.857C472.452 88.2219 475.302 74.9887 466.103 74.8673C456.903 74.7459 459.753 88.5052 459.348 94.1573H453.809V65.0469H562.248V94.0898H556.087C555.723 88.4108 558.438 74.6919 549.373 74.7999L549.427 74.8673ZM524.679 94.1573C524.679 93.5907 524.679 82.273 524.679 81.7335H529.191V82.5293C527.164 83.2173 527.137 86.1445 526.786 87.9251C526.507 87.9251 526.238 88.036 526.041 88.2333C525.843 88.4306 525.732 88.6983 525.732 88.9773C525.732 89.2564 525.843 89.524 526.041 89.7213C526.238 89.9186 526.507 90.0295 526.786 90.0295H529.191C529.171 90.1294 529.173 90.2324 529.198 90.3312C529.222 90.4301 529.268 90.5222 529.333 90.601C529.398 90.6798 529.479 90.7432 529.571 90.7868C529.663 90.8304 529.764 90.853 529.866 90.853C529.968 90.853 530.069 90.8304 530.161 90.7868C530.253 90.7432 530.334 90.6798 530.399 90.601C530.464 90.5222 530.51 90.4301 530.535 90.3312C530.559 90.2324 530.562 90.1294 530.542 90.0295H532.933C533.212 90.0295 533.48 89.9186 533.678 89.7213C533.875 89.524 533.986 89.2564 533.986 88.9773C533.986 88.6983 533.875 88.4306 533.678 88.2333C533.48 88.036 533.212 87.9251 532.933 87.9251C532.568 86.185 532.554 83.2578 530.514 82.5293V81.7335H534.959C535.027 82.2595 534.959 93.6042 534.959 94.1573H524.679ZM528.042 88.6131C528.853 82.2326 531.028 82.2461 531.839 88.6131H528.042ZM525.003 80.2226C525.289 79.147 525.922 78.196 526.806 77.5174C527.689 76.8389 528.772 76.471 529.886 76.471C531.001 76.471 532.084 76.8389 532.967 77.5174C533.851 78.196 534.484 79.147 534.77 80.2226H525.003ZM515.546 78.6713H499.943C499.727 68.4598 515.681 68.4598 515.492 78.6039L515.546 78.6713ZM499.997 80.4789C500.011 80.3895 500.011 80.2985 499.997 80.2091H515.492V94.0898H499.943L499.997 80.4789ZM480.395 94.0898C480.395 93.5233 480.395 82.2056 480.395 81.666H490.757C490.757 82.1921 490.757 93.5368 490.757 94.0898H480.395ZM480.719 80.1552C481.005 79.0796 481.639 78.1285 482.522 77.45C483.406 76.7714 484.489 76.4035 485.603 76.4035C486.717 76.4035 487.801 76.7714 488.684 77.45C489.567 78.1285 490.201 79.0796 490.487 80.1552H480.719ZM460.861 94.0898V84.0132H471.263V94.0898H460.861ZM471.263 82.5024H460.861C460.753 81.7576 460.807 80.9983 461.019 80.2762C461.231 79.554 461.596 78.8858 462.089 78.3169C462.583 77.748 463.193 77.2917 463.878 76.979C464.564 76.6662 465.309 76.5044 466.062 76.5044C466.816 76.5044 467.561 76.6662 468.246 76.979C468.932 77.2917 469.542 77.748 470.035 78.3169C470.528 78.8858 470.893 79.554 471.105 80.2762C471.317 80.9983 471.371 81.7576 471.263 82.5024ZM500.821 36.5571H514.465C513.506 42.7353 518.154 59.4893 507.711 59.4893C497.174 59.813 501.659 42.425 500.821 36.5571ZM497.984 30.4463C497.984 26.6963 508.211 20.4236 507.522 19.7896H507.711C508.535 22.1908 522.571 29.2323 514.871 35.0463H500.281C498.933 33.8712 498.087 32.2251 497.917 30.4463H497.984ZM462.995 52.4208C463.198 52.4208 499.052 52.4208 499.227 52.4208C498.741 63.5631 516.343 63.6036 515.898 52.4208H553.021L561.464 63.5361H454.579L462.995 52.4208ZM453.796 95.5872H562.234V116.658L453.796 116.914V95.5872ZM332.983 86.7785L351.463 102.521H313.637L332.983 86.7785ZM314.273 117.184V103.991H317.69V108.294H320.608V103.991H324.526V108.294H327.458V103.991H331.375V108.294H334.307V103.991H338.211V108.294H341.142V103.991H345.06V108.294H347.991V103.991H350.95V117.143L314.259 117.238C314.259 117.238 314.273 117.197 314.273 117.184ZM200.174 84.9844C200.135 84.8944 200.075 84.8156 199.998 84.7551L224.922 53.4055L249.631 84.9575L200.174 84.9844ZM203.848 86.4953V91.8911H205.361V86.4953H210.373V91.8911H211.886V86.4953H216.857V91.8911H218.37V86.4953H223.355V91.8911H224.855V86.4953H229.84V91.8911H231.353V86.4953H236.324V91.8911H237.837V86.4953H242.795V91.8911H244.295V86.4953H249.55L249.644 94.6969H200.065L200.255 86.4953H203.848ZM200.025 96.2077H249.658C249.658 96.5449 249.793 116.577 249.941 116.887L199.566 116.28L200.025 96.2077ZM106.514 67.4481H87.439L89.8977 64.4534H103.475C104.555 65.5056 105.717 66.6387 106.514 67.4481ZM103.002 62.9426H101.651C101.354 61.9444 102.461 56.4406 100.691 56.4002C98.9218 56.3597 100.043 61.9713 99.7459 62.9426H97.8952C97.571 61.8634 98.8138 56.3462 96.7739 56.4002C94.734 56.4541 95.9633 61.8904 95.6391 62.9426H93.5181C93.2344 61.9444 94.3422 56.4406 92.5725 56.4002C90.8028 56.3597 91.9106 61.9713 91.6269 62.9426H90.2761V54.1474H103.029L103.002 62.9426ZM90.0193 47.578C93.0183 44.6238 95.5176 42.0473 96.5713 40.9547C96.9496 42.479 108.068 49.2103 103.42 52.6231H89.722C88.0469 51.5439 88.074 49.2507 90.0193 47.5915V47.578ZM86.5879 68.9589H107.392V80.9376H86.5879V68.9589ZM85.2369 82.4484H108.73V115.295L85.2369 115.039V82.4484ZM-33.9819 64.3725L-17.7708 87.8442H-48.842L-33.9819 64.3725ZM-48.1261 89.3955H-44.9513V94.1303H-42.4927V89.3955H-38.0886V94.1303H-35.63V89.3955H-31.226V94.1303H-28.7403V89.3955H-24.3363V94.1303H-21.8776V89.3955H-18.2436C-18.122 89.8541 -18.4598 113.528 -18.1221 113.933L-48.1261 113.609C-48.1125 113.474 -48.0991 89.5304 -48.1261 89.3955ZM-161.131 54.5926L-159.861 63.5496H-166.156L-161.131 54.5926ZM-154.511 68.6621L-158.294 68.9994V65.0469L-154.552 64.912L-154.511 68.6621ZM-159.78 66.1666V69.0398L-166.723 68.797V64.993H-159.807L-159.78 66.1666ZM-167.021 70.2134L-159.847 70.5102L-160.685 92.3632L-179.787 91.8911L-167.021 70.2134ZM-159.212 93.874L-155.16 93.7796V99.1754H-152.647V93.7661L-149.513 93.6987V98.7302H-146.689V93.6312L-143.326 93.5503V98.8247H-140.867V93.4289H-139.259L-138.759 112.597L-159.253 112.382L-159.212 93.874ZM-139.354 91.918L-159.185 92.3632L-158.429 70.5237L-154.227 70.146L-139.354 91.918ZM-155.079 63.4012L-158.429 63.5361L-159.496 55.9685L-155.079 63.4012ZM-179.395 93.4424H-177.558V98.7572H-174.748V93.5772H-172.046V98.7572H-169.223V93.7121H-166.521V98.7572H-164.278V93.7661L-160.725 93.847V112.328L-179.422 112.125L-179.395 93.4424ZM-203.225 111.963L-227.542 111.694C-229.217 110.736 -227.92 133.277 -228.312 133.547C-233.213 134.789 -237.978 136.515 -242.537 138.7V72.9113H-236.782V79.4402H-233.959V72.9113H-229.096V79.4402H-226.272V72.9113H-221.395V79.4402H-218.572V72.9113H-213.709V79.4402H-210.885V72.9113H-203.198L-203.225 111.963ZM-242.118 71.4949L-227.326 41.818L-226.475 40.1318L-202.536 71.414L-242.118 71.4949ZM-231.311 46.6203L-243.834 71.4949L-249.873 72.4527H-250.224L-231.311 46.6203ZM-249.278 73.8691L-247.779 73.6263V79.8449H-246.239V73.3969L-244.064 73.0462V138.781L-249.022 136.771L-249.278 73.8691ZM381.94 131.267C370.646 131.267 361.514 140.345 362.163 151.123L358.434 151.218C358.096 120.489 404.906 120.057 405.176 150.759H401.718C402.204 140.143 393.099 131.253 381.94 131.267ZM580.188 142.49C572.785 142.396 571.015 150.098 571.758 156.061C538.647 154.712 513.047 149.316 478.923 149.545C455.7 149.545 432.357 150.557 406.689 150.746C405.987 117.858 356.975 118.371 356.935 151.258C293.644 153.201 291.131 157.086 225.679 156.843C227.367 144.702 209.36 144.392 210.724 156.533C143.097 153.093 99.6108 140.17 -1.37061 140.44C-45.5593 142.666 -228.204 145.39 -226.88 133.897V113.191C72.3627 118.587 671.416 119.086 974.441 117.238V138.187C974.441 138.47 977.143 148.628 977.143 148.898C921.215 156.384 795.093 147.117 728.154 145.917C685.938 146.078 630.023 153.201 588.51 155.818C589.374 149.882 587.429 142.396 580.174 142.49H580.188ZM98.5977 78.8467H95.5446C95.6797 77.4978 94.8691 74.1658 97.0846 74.2333C99.3001 74.3007 98.4626 77.5382 98.5977 78.8467ZM91.7755 78.8467H89.3034C89.4385 77.7136 88.6819 74.2333 90.5327 74.2333C92.3835 74.2333 91.6269 77.7136 91.7755 78.8467ZM104.204 78.8467H101.732C101.88 77.7136 101.124 74.2333 102.975 74.2333C104.825 74.2333 104.055 77.7136 104.204 78.8467ZM98.6653 94.4945H95.4635C95.5716 93.1456 94.842 89.9621 97.0576 90.016C99.2731 90.07 98.5572 93.1591 98.6653 94.4945ZM105.069 94.4945H101.853C101.962 93.1456 101.245 89.9621 103.461 90.016C105.676 90.07 105.001 93.1591 105.069 94.4945ZM92.2213 94.4945H89.0197C89.1277 93.1456 88.4117 89.9621 90.6272 90.016C92.8427 90.07 92.1132 93.1591 92.2213 94.4945ZM98.6653 106.635H95.4635C95.5716 105.286 94.842 102.103 97.0576 102.157C99.2731 102.211 98.5572 105.3 98.6653 106.635ZM105.069 106.635H101.853C101.962 105.286 101.245 102.103 103.461 102.157C105.676 102.211 105.001 105.3 105.069 106.635ZM92.2213 106.635H89.0197C89.1277 105.286 88.4117 102.103 90.6272 102.157C92.8427 102.211 92.1132 105.3 92.2213 106.635ZM779.881 111.694H774.045C774.302 109.239 772.802 102.993 776.963 103.101C781.097 103.006 779.598 109.266 779.854 111.707L779.881 111.694ZM695.665 111.694H689.829C690.072 109.239 688.586 102.993 692.747 103.101C696.867 103.006 695.354 109.266 695.638 111.707L695.665 111.694ZM767.845 111.694H762.009C762.265 109.239 760.779 102.993 764.927 103.101C769.061 103.006 767.574 109.266 767.818 111.707L767.845 111.694ZM755.821 111.694H749.985C750.229 109.239 748.742 102.993 752.903 103.101C757.024 103.006 755.538 109.266 755.794 111.707L755.821 111.694ZM743.785 111.694H737.949C738.205 109.239 736.706 102.993 740.867 103.101C745 103.006 743.501 109.266 743.758 111.707L743.785 111.694ZM731.761 111.694H725.885C726.142 109.239 724.656 102.993 728.816 103.101C732.964 103.006 731.478 109.266 731.734 111.707L731.761 111.694ZM719.725 111.694H713.862C714.118 109.239 712.619 102.993 716.78 103.101C720.941 103.006 719.441 109.266 719.671 111.707L719.725 111.694ZM707.688 111.694H701.852C702.109 109.239 700.623 102.993 704.77 103.101C708.863 103.006 707.418 109.266 707.661 111.707L707.688 111.694ZM622.999 76.0004H617.487C618.176 73.5588 615.407 62.5109 620.189 62.7402C625.106 62.4974 622.31 73.5183 622.999 76.0004ZM647.315 109.724H641.79C642.479 107.283 639.723 96.2347 644.492 96.464C649.423 96.2212 646.64 107.256 647.329 109.738L647.315 109.724ZM672.672 107.35H668.849C669.281 105.623 667.498 98.6763 670.794 98.8382C674.036 98.7033 672.253 105.677 672.686 107.364L672.672 107.35ZM620.675 107.35H616.866C617.284 105.623 615.515 98.6763 618.811 98.8382C622.04 98.7033 620.256 105.677 620.689 107.364L620.675 107.35ZM578.796 106.5V101.239H582.633V106.568L578.796 106.5ZM670.781 75.9869H665.256C665.945 73.5453 663.189 62.4974 667.957 62.7267C672.848 62.4974 670.092 73.5183 670.781 76.0004V75.9869ZM704.27 44.2056V48.7111H702.771V44.2056H704.27ZM705.067 70.146H701.582C701.947 68.6082 700.407 62.6863 703.325 62.8212C706.243 62.7267 704.703 68.6082 705.067 70.146ZM713.443 70.146H710.957C711.309 69.0263 709.944 63.2259 712.2 63.4012C714.456 63.2663 713.092 69.0263 713.443 70.146ZM696.556 70.146H694.003C694.354 69.0263 693.004 63.2259 695.26 63.4012C697.57 63.2663 696.205 69.0263 696.556 70.146ZM-236.782 86.4143H-233.959V93.6987H-236.782V86.4143ZM-229.096 86.4143H-227.123V93.6987H-229.123L-229.096 86.4143ZM-236.782 100.187H-233.959V107.471H-236.782V100.187ZM-230.028 100.187H-228.136V107.471H-230.109L-230.028 100.187ZM-219.382 93.6987H-221.422V86.4143H-219.463L-219.382 93.6987ZM-213.655 86.4143H-210.831V93.6987H-213.736L-213.655 86.4143ZM-214.708 108.456H-220.017C-219.626 106.163 -221.49 99.0135 -217.316 99.1484C-213.222 99.027 -215.1 106.149 -214.708 108.456ZM-176.234 103.775H-173.667V108.605H-176.234V103.775ZM-156.808 103.249H-154.916V108.078H-156.808V103.249ZM985.6 94.2652V103.303H981.547V94.2652C981.604 93.7688 981.843 93.3109 982.216 92.9784C982.59 92.646 983.073 92.4623 983.573 92.4623C984.074 92.4623 984.557 92.646 984.93 92.9784C985.304 93.3109 985.542 93.7688 985.6 94.2652ZM996.096 103.303H992.044V94.2652C992.101 93.7688 992.339 93.3109 992.713 92.9784C993.087 92.646 993.57 92.4623 994.07 92.4623C994.571 92.4623 995.053 92.646 995.427 92.9784C995.801 93.3109 996.039 93.7688 996.096 94.2652V103.303ZM985.6 115.66H981.547C981.925 113.865 980.277 107.566 983.587 107.701C986.883 107.579 985.222 113.852 985.6 115.66ZM983.371 129.365H979.318V123.443C979.376 122.947 979.614 122.489 979.987 122.156C980.361 121.824 980.844 121.64 981.344 121.64C981.845 121.64 982.328 121.824 982.702 122.156C983.075 122.489 983.313 122.947 983.371 123.443V129.365ZM996.096 115.66H992.044V109.738C992.101 109.241 992.339 108.783 992.713 108.451C993.087 108.118 993.57 107.935 994.07 107.935C994.571 107.935 995.053 108.118 995.427 108.451C995.801 108.783 996.039 109.241 996.096 109.738V115.66ZM982.587 85.9827H981.074V82.2865H982.587V85.9827ZM971.577 82.4079H973.09V85.8343H971.577V82.4079ZM991.841 85.9827H990.341V82.2865H991.841V85.9827ZM962.567 82.2865H964.066V86.0096H962.567V82.2865ZM1007.53 92.633H1009.02V99.5126H1007.53V92.633ZM1011 92.633H1012.51V99.5126H1011V92.633ZM1007.53 108.213H1009.02V115.107H1007.53V108.213ZM1011 108.213H1012.51V115.107H1011V108.213ZM-25.3089 106.945H-27.7676V101.482H-25.3089V106.945ZM-32.1716 106.945H-34.6303V101.482H-32.1716V106.945ZM-39.0343 106.945H-41.493V101.482H-39.0343V106.945ZM238.621 104.247H234.69V101.482C234.73 100.993 234.954 100.537 235.315 100.205C235.677 99.8728 236.15 99.6884 236.642 99.6884C237.133 99.6884 237.606 99.8728 237.968 100.205C238.33 100.537 238.553 100.993 238.594 101.482L238.621 104.247ZM213.048 104.247H209.144C209.144 102.669 208.63 99.4317 211.102 99.4856C213.575 99.5396 213.075 102.71 213.075 104.288L213.048 104.247ZM226.03 104.247H222.126C222.126 102.669 221.613 99.4317 224.071 99.4856C226.53 99.5396 225.99 102.71 226.03 104.288V104.247ZM214.493 109.481H217.128V111.963H214.547L214.493 109.481ZM222.437 109.481H225.017V111.963H222.437V109.481ZM230.367 109.481H232.947V111.963H230.367V109.481ZM238.31 109.481H240.89V111.963H238.31V109.481ZM206.563 109.481H209.144V111.963H206.563V109.481ZM884.483 108.712H885.929V113.906H884.483V108.712ZM913.501 108.712H915.311V113.906H913.501V108.712ZM893.021 113.906H890.495C890.752 112.786 889.671 108.618 891.765 108.712C893.859 108.807 892.791 112.786 893.035 113.906H893.021ZM324.931 114.661H321.027C320.946 113.164 320.878 110.722 322.986 110.763C325.093 110.803 325.026 113.11 324.931 114.661ZM345.465 114.661H341.561C341.48 113.164 341.399 110.722 343.52 110.763C345.641 110.803 345.533 113.11 345.465 114.661ZM335.522 114.661H331.618C331.537 113.164 331.47 110.722 333.577 110.763C335.685 110.803 335.59 113.11 335.495 114.661H335.522ZM-247.779 86.873H-246.239V93.5233H-247.779V86.873Z" fill="#5F5D61"/>
</g>
</svg>
