<svg width="25" height="25" viewBox="0 0 25 25" fill="none" xmlns="http://www.w3.org/2000/svg">
<path d="M18.2631 10.9665C18.5668 10.66 18.5646 10.1654 18.2581 9.86162C17.9517 9.55788 17.457 9.56009 17.1533 9.86655L15.3332 11.703C14.5945 12.4483 14.0861 12.9595 13.6554 13.3055C13.2369 13.6415 12.9682 13.7568 12.7274 13.7875C12.5763 13.8067 12.4234 13.8067 12.2722 13.7875C12.0315 13.7568 11.7628 13.6415 11.3443 13.3055C10.9136 12.9595 10.4052 12.4483 9.6665 11.703L7.84639 9.86655C7.54266 9.56009 7.048 9.55789 6.74155 9.86162C6.43509 10.1654 6.43288 10.66 6.73662 10.9665L8.58952 12.836C9.28738 13.5401 9.85774 14.1156 10.3659 14.5237C10.8944 14.9481 11.4308 15.2554 12.0747 15.3374C12.357 15.3734 12.6427 15.3734 12.925 15.3374C13.5689 15.2554 14.1053 14.9481 14.6337 14.5237C15.1419 14.1156 15.7123 13.5401 16.4101 12.836L18.2631 10.9665Z" fill="#373539"/>
</svg>
