<svg width="20" height="20" viewBox="0 0 20 20" fill="none" xmlns="http://www.w3.org/2000/svg">
<path d="M17.2201 13.8658C16.0293 12.8474 14.8209 12.2304 13.6447 13.2474L12.9424 13.862C12.4286 14.3081 11.4732 16.3927 7.77933 12.1435C4.08625 7.89967 6.28394 7.2389 6.79856 6.7966L7.50471 6.18121C8.67471 5.16198 8.23317 3.8789 7.38933 2.55813L6.8801 1.75813C6.03241 0.440442 5.10933 -0.424942 3.93625 0.59275L3.30241 1.1466C2.78394 1.52429 1.33471 2.75198 0.983175 5.08429C0.560098 7.88275 1.89471 11.0874 4.95241 14.6035C8.00625 18.1212 10.9963 19.8881 13.8286 19.8574C16.1824 19.832 17.6039 18.5689 18.0486 18.1097L18.6847 17.5551C19.8547 16.5381 19.1278 15.5027 17.9363 14.482L17.2201 13.8658Z" fill="#9B80B9"/>
</svg>
