<svg width="188" height="63" viewBox="0 0 188 63" fill="none" xmlns="http://www.w3.org/2000/svg">
<g opacity="0.6">
<path d="M0.9 46.6H3.948C4.716 46.6 5.36 46.86 5.88 47.38C6.4 47.9 6.66 48.54 6.66 49.3C6.66 50.06 6.4 50.7 5.88 51.22C5.36 51.74 4.716 52 3.948 52H2.016V55H0.9V46.6ZM2.016 50.956H3.948C4.42 50.956 4.804 50.8 5.1 50.488C5.404 50.16 5.556 49.764 5.556 49.3C5.556 48.82 5.404 48.424 5.1 48.112C4.796 47.8 4.412 47.644 3.948 47.644H2.016V50.956ZM12.3811 50.032V49H13.4251V55H12.3811V53.968C11.8691 54.76 11.1131 55.156 10.1131 55.156C9.26509 55.156 8.54909 54.852 7.96509 54.244C7.37309 53.628 7.07709 52.88 7.07709 52C7.07709 51.128 7.37309 50.384 7.96509 49.768C8.55709 49.152 9.27309 48.844 10.1131 48.844C11.1131 48.844 11.8691 49.24 12.3811 50.032ZM10.2451 54.148C10.8531 54.148 11.3611 53.944 11.7691 53.536C12.1771 53.112 12.3811 52.6 12.3811 52C12.3811 51.392 12.1771 50.884 11.7691 50.476C11.3611 50.06 10.8531 49.852 10.2451 49.852C9.64509 49.852 9.14109 50.06 8.73309 50.476C8.32509 50.884 8.12109 51.392 8.12109 52C8.12109 52.6 8.32509 53.112 8.73309 53.536C9.14109 53.944 9.64509 54.148 10.2451 54.148ZM18.2468 51.928C18.9108 52.208 19.2428 52.684 19.2428 53.356C19.2428 53.876 19.0388 54.308 18.6308 54.652C18.2228 54.988 17.6588 55.156 16.9388 55.156C15.7388 55.156 14.9348 54.676 14.5268 53.716L15.4028 53.2C15.6268 53.856 16.1428 54.184 16.9508 54.184C17.3428 54.184 17.6508 54.1 17.8748 53.932C18.0988 53.764 18.2108 53.54 18.2108 53.26C18.2108 53.02 18.1188 52.824 17.9348 52.672C17.7588 52.52 17.5188 52.444 17.2148 52.444H16.3388V51.496H16.9868C17.2908 51.496 17.5268 51.424 17.6948 51.28C17.8628 51.128 17.9468 50.924 17.9468 50.668C17.9468 50.404 17.8468 50.196 17.6468 50.044C17.4468 49.884 17.1788 49.804 16.8428 49.804C16.1708 49.804 15.7148 50.088 15.4748 50.656L14.6228 50.164C15.0468 49.284 15.7868 48.844 16.8428 48.844C17.4828 48.844 17.9948 49.012 18.3788 49.348C18.7708 49.676 18.9668 50.088 18.9668 50.584C18.9668 51.192 18.7268 51.64 18.2468 51.928ZM23.686 48.844C24.526 48.844 25.242 49.152 25.834 49.768C26.426 50.384 26.722 51.128 26.722 52C26.722 52.88 26.426 53.628 25.834 54.244C25.25 54.852 24.534 55.156 23.686 55.156C22.694 55.156 21.938 54.76 21.418 53.968V57.4H20.374V49H21.418V50.032C21.938 49.24 22.694 48.844 23.686 48.844ZM23.554 54.148C24.154 54.148 24.658 53.944 25.066 53.536C25.474 53.112 25.678 52.6 25.678 52C25.678 51.392 25.474 50.884 25.066 50.476C24.658 50.06 24.154 49.852 23.554 49.852C22.946 49.852 22.438 50.06 22.03 50.476C21.622 50.884 21.418 51.392 21.418 52C21.418 52.6 21.622 53.112 22.03 53.536C22.438 53.944 22.946 54.148 23.554 54.148ZM32.9358 50.032V49H33.9798V55H32.9358V53.968C32.4238 54.76 31.6678 55.156 30.6678 55.156C29.8198 55.156 29.1038 54.852 28.5198 54.244C27.9278 53.628 27.6318 52.88 27.6318 52C27.6318 51.128 27.9278 50.384 28.5198 49.768C29.1118 49.152 29.8278 48.844 30.6678 48.844C31.6678 48.844 32.4238 49.24 32.9358 50.032ZM30.7998 54.148C31.4078 54.148 31.9158 53.944 32.3238 53.536C32.7318 53.112 32.9358 52.6 32.9358 52C32.9358 51.392 32.7318 50.884 32.3238 50.476C31.9158 50.06 31.4078 49.852 30.7998 49.852C30.1998 49.852 29.6958 50.06 29.2878 50.476C28.8798 50.884 28.6758 51.392 28.6758 52C28.6758 52.6 28.8798 53.112 29.2878 53.536C29.6958 53.944 30.1998 54.148 30.7998 54.148ZM38.2855 55.156C37.3975 55.156 36.6655 54.864 36.0895 54.28C35.5135 53.688 35.2255 52.936 35.2255 52.024C35.2255 50.992 35.3735 50.204 35.6695 49.66C35.9735 49.108 36.5895 48.608 37.5175 48.16C37.5655 48.136 37.6215 48.108 37.6855 48.076C37.7575 48.044 37.8415 48.008 37.9375 47.968C38.0415 47.92 38.1295 47.88 38.2015 47.848L38.8495 47.56C39.4895 47.24 39.8295 46.856 39.8695 46.408L40.7095 46.888C40.6535 47.168 40.5615 47.392 40.4335 47.56C40.4255 47.576 40.4015 47.612 40.3615 47.668C40.3215 47.716 40.2935 47.752 40.2775 47.776C40.2615 47.792 40.2335 47.82 40.1935 47.86C40.1615 47.892 40.1255 47.924 40.0855 47.956C40.0535 47.988 40.0095 48.02 39.9535 48.052C39.6575 48.236 39.4455 48.356 39.3175 48.412C39.2695 48.436 39.2175 48.46 39.1615 48.484C39.1135 48.508 39.0735 48.528 39.0415 48.544C39.0095 48.56 38.9855 48.572 38.9695 48.58L38.5735 48.748L38.1895 48.904C37.6535 49.136 37.2575 49.372 37.0015 49.612C36.7455 49.852 36.5615 50.156 36.4495 50.524C36.6975 50.22 37.0095 49.988 37.3855 49.828C37.7695 49.668 38.1615 49.588 38.5615 49.588C39.3215 49.588 39.9575 49.844 40.4695 50.356C40.9975 50.876 41.2615 51.536 41.2615 52.336C41.2615 53.152 40.9815 53.828 40.4215 54.364C39.8535 54.892 39.1415 55.156 38.2855 55.156ZM40.2175 52.336C40.2175 51.8 40.0415 51.364 39.6895 51.028C39.3455 50.684 38.8895 50.512 38.3215 50.512C37.8175 50.512 37.3535 50.676 36.9295 51.004C36.5215 51.332 36.3175 51.756 36.3175 52.276C36.3175 52.82 36.5055 53.268 36.8815 53.62C37.2575 53.972 37.7255 54.148 38.2855 54.148C38.8535 54.148 39.3135 53.976 39.6655 53.632C40.0335 53.288 40.2175 52.856 40.2175 52.336ZM47.4341 54.244C46.8261 54.852 46.0781 55.156 45.1901 55.156C44.3021 55.156 43.5541 54.852 42.9461 54.244C42.3381 53.636 42.0341 52.888 42.0341 52C42.0341 51.112 42.3381 50.364 42.9461 49.756C43.5541 49.148 44.3021 48.844 45.1901 48.844C46.0781 48.844 46.8261 49.148 47.4341 49.756C48.0501 50.372 48.3581 51.12 48.3581 52C48.3581 52.88 48.0501 53.628 47.4341 54.244ZM45.1901 54.136C45.7901 54.136 46.2941 53.932 46.7021 53.524C47.1101 53.116 47.3141 52.608 47.3141 52C47.3141 51.392 47.1101 50.884 46.7021 50.476C46.2941 50.068 45.7901 49.864 45.1901 49.864C44.5981 49.864 44.0981 50.068 43.6901 50.476C43.2821 50.884 43.0781 51.392 43.0781 52C43.0781 52.608 43.2821 53.116 43.6901 53.524C44.0981 53.932 44.5981 54.136 45.1901 54.136ZM48.6825 49H53.8185V50.008H51.7785V55H50.7345V50.008H48.6825V49ZM59.467 50.032V49H60.511V55H59.467V53.968C58.955 54.76 58.199 55.156 57.199 55.156C56.351 55.156 55.635 54.852 55.051 54.244C54.459 53.628 54.163 52.88 54.163 52C54.163 51.128 54.459 50.384 55.051 49.768C55.643 49.152 56.359 48.844 57.199 48.844C58.199 48.844 58.955 49.24 59.467 50.032ZM57.331 54.148C57.939 54.148 58.447 53.944 58.855 53.536C59.263 53.112 59.467 52.6 59.467 52C59.467 51.392 59.263 50.884 58.855 50.476C58.447 50.06 57.939 49.852 57.331 49.852C56.731 49.852 56.227 50.06 55.819 50.476C55.411 50.884 55.207 51.392 55.207 52C55.207 52.6 55.411 53.112 55.819 53.536C56.227 53.944 56.731 54.148 57.331 54.148ZM66.2448 51.496V49H67.2888V55H66.2448V52.492H63.1368V55H62.0928V49H63.1368V51.496H66.2448ZM73.9419 54.244C73.3339 54.852 72.5859 55.156 71.6979 55.156C70.8099 55.156 70.0619 54.852 69.4539 54.244C68.8459 53.636 68.5419 52.888 68.5419 52C68.5419 51.112 68.8459 50.364 69.4539 49.756C70.0619 49.148 70.8099 48.844 71.6979 48.844C72.5859 48.844 73.3339 49.148 73.9419 49.756C74.5579 50.372 74.8659 51.12 74.8659 52C74.8659 52.88 74.5579 53.628 73.9419 54.244ZM71.6979 54.136C72.2979 54.136 72.8019 53.932 73.2099 53.524C73.6179 53.116 73.8219 52.608 73.8219 52C73.8219 51.392 73.6179 50.884 73.2099 50.476C72.8019 50.068 72.2979 49.864 71.6979 49.864C71.1059 49.864 70.6059 50.068 70.1979 50.476C69.7899 50.884 69.5859 51.392 69.5859 52C69.5859 52.608 69.7899 53.116 70.1979 53.524C70.6059 53.932 71.1059 54.136 71.6979 54.136ZM83.0927 51.916C83.7087 52.172 84.0167 52.636 84.0167 53.308C84.0167 53.82 83.8487 54.232 83.5127 54.544C83.1767 54.848 82.7047 55 82.0967 55H79.0967V49H81.8567C82.4487 49 82.9087 49.148 83.2367 49.444C83.5727 49.74 83.7407 50.136 83.7407 50.632C83.7407 51.208 83.5247 51.636 83.0927 51.916ZM81.8087 49.936H80.1167V51.508H81.8087C82.4167 51.508 82.7207 51.24 82.7207 50.704C82.7207 50.192 82.4167 49.936 81.8087 49.936ZM80.1167 54.052H82.0367C82.3407 54.052 82.5727 53.98 82.7327 53.836C82.9007 53.692 82.9847 53.488 82.9847 53.224C82.9847 52.976 82.9007 52.784 82.7327 52.648C82.5727 52.504 82.3407 52.432 82.0367 52.432H80.1167V54.052ZM90.9636 55.156C90.0596 55.156 89.3076 54.856 88.7076 54.256C88.1076 53.648 87.8076 52.896 87.8076 52C87.8076 51.104 88.1076 50.356 88.7076 49.756C89.3076 49.148 90.0596 48.844 90.9636 48.844C91.5556 48.844 92.0876 48.988 92.5596 49.276C93.0316 49.556 93.3836 49.936 93.6156 50.416L92.7396 50.92C92.5876 50.6 92.3516 50.344 92.0316 50.152C91.7196 49.96 91.3636 49.864 90.9636 49.864C90.3636 49.864 89.8596 50.068 89.4516 50.476C89.0516 50.892 88.8516 51.4 88.8516 52C88.8516 52.592 89.0516 53.096 89.4516 53.512C89.8596 53.92 90.3636 54.124 90.9636 54.124C91.3636 54.124 91.7236 54.032 92.0436 53.848C92.3636 53.656 92.6076 53.4 92.7756 53.08L93.6636 53.596C93.3996 54.076 93.0276 54.456 92.5476 54.736C92.0676 55.016 91.5396 55.156 90.9636 55.156ZM93.9286 49H99.0646V50.008H97.0246V55H95.9806V50.008H93.9286V49ZM102.475 53.704L104.203 49H105.319L102.871 55.372C102.615 56.052 102.255 56.568 101.791 56.92C101.327 57.28 100.799 57.44 100.207 57.4V56.428C100.935 56.484 101.475 56.084 101.827 55.228L101.923 55.012L99.3187 49H100.423L102.475 53.704ZM110.975 49V54.004H111.803V56.608H110.771V55H106.271V56.608H105.239V54.004H105.971C106.355 53.476 106.547 52.736 106.547 51.784V49H110.975ZM107.159 54.004H109.943V49.972H107.579V51.784C107.579 52.664 107.439 53.404 107.159 54.004ZM113.961 53.212L117.285 49H118.125V55H117.093V50.788L113.769 55H112.929V49H113.961V53.212ZM120.746 53.212L124.07 49H124.91V55H123.878V50.788L120.554 55H119.714V49H120.746V53.212ZM127.159 50.416C126.943 50.416 126.759 50.34 126.607 50.188C126.455 50.036 126.379 49.852 126.379 49.636C126.379 49.42 126.455 49.236 126.607 49.084C126.759 48.932 126.943 48.856 127.159 48.856C127.383 48.856 127.567 48.932 127.711 49.084C127.863 49.236 127.939 49.42 127.939 49.636C127.939 49.852 127.863 50.036 127.711 50.188C127.567 50.34 127.383 50.416 127.159 50.416ZM127.159 55.132C126.943 55.132 126.759 55.056 126.607 54.904C126.455 54.752 126.379 54.568 126.379 54.352C126.379 54.136 126.455 53.952 126.607 53.8C126.759 53.648 126.943 53.572 127.159 53.572C127.383 53.572 127.567 53.648 127.711 53.8C127.863 53.952 127.939 54.136 127.939 54.352C127.939 54.568 127.863 54.752 127.711 54.904C127.567 55.056 127.383 55.132 127.159 55.132ZM139.245 55H138.057L137.373 53.116H133.593L132.909 55H131.721L134.853 46.6H136.113L139.245 55ZM135.477 47.932L133.977 52.072H136.989L135.477 47.932ZM143.44 48.844C144.28 48.844 144.996 49.152 145.588 49.768C146.18 50.384 146.476 51.128 146.476 52C146.476 52.88 146.18 53.628 145.588 54.244C145.004 54.852 144.288 55.156 143.44 55.156C142.448 55.156 141.692 54.76 141.172 53.968V57.4H140.128V49H141.172V50.032C141.692 49.24 142.448 48.844 143.44 48.844ZM143.308 54.148C143.908 54.148 144.412 53.944 144.82 53.536C145.228 53.112 145.432 52.6 145.432 52C145.432 51.392 145.228 50.884 144.82 50.476C144.412 50.06 143.908 49.852 143.308 49.852C142.7 49.852 142.192 50.06 141.784 50.476C141.376 50.884 141.172 51.392 141.172 52C141.172 52.6 141.376 53.112 141.784 53.536C142.192 53.944 142.7 54.148 143.308 54.148ZM146.815 49H151.951V50.008H149.911V55H148.867V50.008H146.815V49ZM155.974 46.6H160.69V47.656H157.09V55H155.974V46.6ZM165.559 54.244C164.951 54.852 164.203 55.156 163.315 55.156C162.427 55.156 161.679 54.852 161.071 54.244C160.463 53.636 160.159 52.888 160.159 52C160.159 51.112 160.463 50.364 161.071 49.756C161.679 49.148 162.427 48.844 163.315 48.844C164.203 48.844 164.951 49.148 165.559 49.756C166.175 50.372 166.483 51.12 166.483 52C166.483 52.88 166.175 53.628 165.559 54.244ZM163.315 54.136C163.915 54.136 164.419 53.932 164.827 53.524C165.235 53.116 165.439 52.608 165.439 52C165.439 51.392 165.235 50.884 164.827 50.476C164.419 50.068 163.915 49.864 163.315 49.864C162.723 49.864 162.223 50.068 161.815 50.476C161.407 50.884 161.203 51.392 161.203 52C161.203 52.608 161.407 53.116 161.815 53.524C162.223 53.932 162.723 54.136 163.315 54.136ZM171.026 48.844C171.866 48.844 172.582 49.152 173.174 49.768C173.766 50.384 174.062 51.128 174.062 52C174.062 52.88 173.766 53.628 173.174 54.244C172.59 54.852 171.874 55.156 171.026 55.156C170.034 55.156 169.278 54.76 168.758 53.968V57.4H167.714V49H168.758V50.032C169.278 49.24 170.034 48.844 171.026 48.844ZM170.894 54.148C171.494 54.148 171.998 53.944 172.406 53.536C172.814 53.112 173.018 52.6 173.018 52C173.018 51.392 172.814 50.884 172.406 50.476C171.998 50.06 171.494 49.852 170.894 49.852C170.286 49.852 169.778 50.06 169.37 50.476C168.962 50.884 168.758 51.392 168.758 52C168.758 52.6 168.962 53.112 169.37 53.536C169.778 53.944 170.286 54.148 170.894 54.148ZM177.42 51.904L180.384 55H179.088L176.352 52.156V55H175.308V49H176.352V51.652L178.944 49H180.288L177.42 51.904ZM185.772 50.032V49H186.816V55H185.772V53.968C185.26 54.76 184.504 55.156 183.504 55.156C182.656 55.156 181.94 54.852 181.356 54.244C180.764 53.628 180.468 52.88 180.468 52C180.468 51.128 180.764 50.384 181.356 49.768C181.948 49.152 182.664 48.844 183.504 48.844C184.504 48.844 185.26 49.24 185.772 50.032ZM183.636 54.148C184.244 54.148 184.752 53.944 185.16 53.536C185.568 53.112 185.772 52.6 185.772 52C185.772 51.392 185.568 50.884 185.16 50.476C184.752 50.06 184.244 49.852 183.636 49.852C183.036 49.852 182.532 50.06 182.124 50.476C181.716 50.884 181.512 51.392 181.512 52C181.512 52.6 181.716 53.112 182.124 53.536C182.532 53.944 183.036 54.148 183.636 54.148Z" fill="#5F5D61"/>
<a href="http://www.artgorka.ru">
<rect fill="black" fill-opacity="0" x="131.625" width="55.9827" height="14.556"/>
</a>
<g clip-path="url(#clip0_260_11683)">
<path d="M59.3098 22.5473L68.2434 13.5674L78.9362 24.2392C76.4373 29.9831 70.7327 34.0001 64.1002 34.0001C58.2946 34.0001 53.1997 30.9222 50.3438 26.3021L56.9145 20.1397L59.3098 22.5473Z" fill="#5F5D61"/>
<path d="M61.9468 13.159C61.9468 13.9445 61.3473 14.5484 60.5552 14.5484C59.8136 14.5484 59.1636 13.9313 59.1636 13.159C59.1636 12.3734 59.7631 11.7695 60.5552 11.7695C61.3473 11.7695 61.9468 12.3734 61.9468 13.159Z" fill="#5F5D61" stroke="#5F5D61"/>
<path d="M79.9819 20.0735C80.0992 19.2841 80.16 18.4762 80.16 17.6543C80.16 8.63122 73.2502 1.7168 64.2313 1.7168C55.2125 1.7168 48.3013 8.63122 48.3013 17.6543C48.3013 18.4762 48.362 19.2841 48.4792 20.0735" stroke="#5F5D61"/>
<path fill-rule="evenodd" clip-rule="evenodd" d="M124.683 32.3658H125.094C125.305 32.3658 125.503 32.2844 125.651 32.1463C125.739 32.0646 125.809 31.9629 125.855 31.8462L126.047 31.3564H128.171L128.362 31.8462C128.42 31.9944 128.518 32.1186 128.641 32.2084C128.778 32.3085 128.946 32.3658 129.123 32.3658H129.585L127.618 27.4619H126.649L124.683 32.3658ZM127.841 30.5116L127.109 28.6217L126.377 30.5116H127.841Z" fill="#5F5D61"/>
<path d="M121.836 27.4619L121.008 28.822C120.922 28.9633 120.84 29.077 120.761 29.1636C120.703 29.2264 120.647 29.2748 120.593 29.3089C120.465 29.3853 120.275 29.4235 120.022 29.4235H119.944V27.4619H118.965V32.3658H119.944V30.2969H120.036C120.146 30.2969 120.248 30.292 120.343 30.2825C120.444 30.2729 120.539 30.2563 120.629 30.2324L121.69 31.9738C121.776 32.1153 121.902 32.2247 122.047 32.2916C122.153 32.3397 122.268 32.3658 122.388 32.3658H123.05L121.429 29.7098C121.524 29.6 121.622 29.4735 121.722 29.3303C121.827 29.1824 121.938 29.0106 122.057 28.815L122.886 27.4619H121.836Z" fill="#5F5D61"/>
<path fill-rule="evenodd" clip-rule="evenodd" d="M116.35 30.1071C116.52 30.0047 116.66 29.8794 116.768 29.7313C116.932 29.507 117.014 29.2421 117.014 28.9366C117.014 28.4928 116.831 28.1372 116.467 27.8699C116.107 27.5979 115.631 27.4619 115.039 27.4619H113.247V32.3658H114.309V30.4901H115.079L115.925 31.9308C115.995 32.0497 116.095 32.1488 116.214 32.2223C116.363 32.3141 116.541 32.3658 116.728 32.3658H117.331L116.062 30.2468C116.166 30.2062 116.262 30.1597 116.35 30.1071ZM115.689 28.5142C115.569 28.4171 115.411 28.3595 115.217 28.3415C115.173 28.3374 115.127 28.3353 115.079 28.3353H114.309V29.6239H115.079C115.127 29.6239 115.173 29.622 115.217 29.618C115.411 29.6006 115.569 29.5455 115.689 29.4521C115.843 29.3328 115.919 29.1753 115.919 28.9796C115.919 28.7839 115.843 28.6288 115.689 28.5142Z" fill="#5F5D61"/>
<path fill-rule="evenodd" clip-rule="evenodd" d="M110.911 31.6702C110.443 32.1339 109.86 32.3658 109.163 32.3658C108.465 32.3658 107.882 32.1339 107.414 31.6702C106.946 31.2018 106.712 30.6175 106.712 29.9174C106.712 29.2171 106.946 28.6328 107.414 28.1644C107.882 27.6961 108.465 27.4619 109.163 27.4619C109.86 27.4619 110.443 27.6961 110.911 28.1644C111.379 28.6328 111.614 29.2171 111.614 29.9174C111.614 30.6175 111.379 31.2018 110.911 31.6702ZM108.116 28.7905C108.397 28.4891 108.746 28.3383 109.163 28.3383C109.579 28.3383 109.926 28.4891 110.202 28.7905C110.483 29.092 110.623 29.4675 110.623 29.9174C110.623 30.3671 110.483 30.7428 110.202 31.0442C109.926 31.3409 109.579 31.4893 109.163 31.4893C108.746 31.4893 108.397 31.3409 108.116 31.0442C107.84 30.7428 107.702 30.3671 107.702 29.9174C107.702 29.4675 107.84 29.092 108.116 28.7905Z" fill="#5F5D61"/>
<path d="M102.7 28.3383C102.271 28.3383 101.911 28.4891 101.622 28.7905C101.338 29.092 101.195 29.4675 101.195 29.9174C101.195 30.3671 101.338 30.7428 101.622 31.0442C101.911 31.3409 102.271 31.4893 102.7 31.4893C103.023 31.4893 103.302 31.4059 103.539 31.2389C103.775 31.0674 103.939 30.8355 104.03 30.5434H103.481C102.98 30.5434 102.591 30.1514 102.591 29.6947H105.057C105.15 30.4084 104.924 31.1575 104.392 31.691C103.939 32.1408 103.375 32.3658 102.7 32.3658C101.981 32.3658 101.381 32.1339 100.899 31.6702C100.417 31.2018 100.176 30.6175 100.176 29.9174C100.176 29.2171 100.417 28.6328 100.899 28.1644C101.381 27.6961 101.981 27.4619 102.7 27.4619C103.375 27.4619 103.994 27.7169 104.486 28.1992L103.878 28.8392C103.535 28.5086 103.148 28.3383 102.7 28.3383Z" fill="#5F5D61"/>
<path d="M141.836 5.55766V1.30762H125.552V5.55766H131.57V12.6411C131.57 14.597 133.155 16.1827 135.11 16.1827H135.818V5.55766H141.836Z" fill="#5F5D61"/>
<path d="M135.82 18.3076H131.572V22.5576H135.82V18.3076Z" fill="#5F5D61"/>
<path d="M111.393 22.5576C112.566 22.5576 113.517 21.6063 113.517 20.4326C113.517 19.259 112.566 18.3076 111.393 18.3076C110.22 18.3076 109.269 19.259 109.269 20.4326C109.269 21.6063 110.22 22.5576 111.393 22.5576Z" fill="#5F5D61"/>
<path d="M125.554 22.5572H122.69C121.594 22.5572 120.56 22.0491 119.889 21.1812L114.934 14.7656H119.583L125.554 22.5572Z" fill="#5F5D61"/>
<path d="M123.782 8.56802C123.782 10.2773 122.721 13.7035 119.58 14.766C118.955 15.0069 118.119 15.1201 117.411 15.1201C116.703 15.1201 114.933 14.766 114.933 14.766C117.906 14.1503 119.535 11.2243 119.535 8.74512C119.535 6.97428 118.296 5.55762 116.526 5.55762C114.933 5.5576 113.517 6.84147 113.517 8.56803V16.1826H112.809C110.853 16.1826 109.269 14.5969 109.269 12.6409V8.56802C109.269 8.24927 109.304 7.11593 109.375 6.79718C110.131 3.83371 113.049 1.30762 116.172 1.30762C116.372 1.30762 116.502 1.30762 116.703 1.30762C120.782 1.39832 123.782 4.65369 123.782 8.56802Z" fill="#5F5D61"/>
<path d="M107.855 22.5576H105.915C104.512 22.5576 103.242 21.7293 102.676 20.4456L98.2972 10.5159L93.9187 20.4454C93.3526 21.7292 92.0823 22.5576 90.6799 22.5576H88.7393L97.9435 1.30762H98.6515L107.855 22.5576Z" fill="#5F5D61"/>
<path d="M98.2963 18.3076L96.1724 22.5576H100.42L98.2963 18.3076Z" fill="#5F5D61"/>
</g>
</g>
<defs>
<clipPath id="clip0_260_11683">
<rect width="95" height="34" fill="white" transform="translate(47)"/>
</clipPath>
</defs>
</svg>
