<svg width="24" height="24" viewBox="0 0 24 24" fill="none" xmlns="http://www.w3.org/2000/svg">
<path d="M14.9316 8.75602C14.4227 7.86711 13.8601 7.01077 13.2472 6.19185C12.8199 5.62378 12.2329 5.26467 11.456 5.32347C10.8181 5.37283 10.1637 5.43898 9.56936 5.07882C9.51254 5.05357 9.44833 5.05132 9.38992 5.07252C8.61203 5.32347 7.9109 5.67524 7.4618 6.42181C6.89238 7.36683 6.77933 8.40531 6.91831 9.4606C7.15479 11.2645 8.01773 12.6107 9.80895 13.2113C10.1626 13.3289 10.5142 13.456 10.7341 13.5326C11.6334 13.4539 12.3438 13.2953 12.9672 12.8406C13.4775 12.4679 13.9743 12.0584 14.5313 11.7707C15.2262 11.4126 15.3869 10.8036 15.3517 10.1484C15.3195 9.65769 15.1757 9.18118 14.9316 8.75602ZM12.4195 11.3139C11.7972 11.6447 11.0712 11.8032 10.3711 11.9576C9.46771 12.1592 8.74894 11.6993 8.47824 10.8162C8.07892 9.5131 8.49794 8.41476 9.37748 7.47289C9.83591 6.98147 10.5111 7.09383 11.1023 6.99407C11.4285 6.9436 11.7577 6.91518 12.0876 6.90902C12.1997 6.90902 12.3677 6.93527 12.4216 7.01402C12.8704 7.66084 13.306 8.31746 13.7285 8.98388C13.7907 9.08153 13.771 9.23064 13.7897 9.35559C13.7938 10.3405 13.1559 10.9201 12.4195 11.3107V11.3139ZM22.3765 5.34238C21.2356 4.24089 20.1715 3.11946 18.5763 2.7257C18.1998 2.6333 17.7019 2.57345 17.5018 2.30569C16.8794 1.48666 15.9854 1.21051 15.11 0.897596C14.2035 0.574187 13.2887 0.203526 12.3469 0.0691223C10.4748 -0.197585 8.72509 0.327429 7.12056 1.30081C5.01196 2.57974 2.97182 3.97629 1.7272 6.20025C0.782321 7.88555 0.193199 9.72835 0.0925922 11.6793C0.0293239 12.9036 -0.114844 14.1941 0.172456 15.3544C0.924416 18.4205 2.40033 21.0403 5.29823 22.6227C6.78555 23.4344 8.29258 24.0466 10.0268 23.9972C11.121 23.8733 12.2847 23.9479 13.2918 23.5772C14.8901 22.9965 16.6554 22.754 18.0255 21.6231C18.9963 20.8219 19.9796 20.0113 20.8259 19.082C21.8631 17.9459 22.5145 16.542 22.9387 15.0615C23.4407 13.3111 24.2072 11.5964 23.9479 9.7063C23.729 8.14806 23.6585 6.57721 22.3765 5.33923V5.34238ZM7.33111 19.8328C7.27407 19.7708 7.33111 19.5787 7.36534 19.4579C7.91608 17.7611 8.89104 16.4653 10.648 15.9109C11.3896 15.6778 12.069 15.2148 12.9039 15.3387C14.0095 15.5035 14.9918 15.8637 15.4969 16.9788C15.9294 17.9343 16.5621 18.8017 16.7415 19.8706C16.7642 19.9914 16.7681 20.115 16.7529 20.2371C16.2478 20.5521 15.7157 20.8314 15.1722 21.0981C14.8799 21.241 14.5796 21.3669 14.273 21.475C13.5698 21.4803 12.8209 21.5527 12.1706 21.9339C11.5698 21.9887 10.9655 21.9936 10.3638 21.9486C9.32666 21.7596 8.36104 21.3354 7.41616 20.8272C7.34733 20.7795 7.28309 20.7253 7.22428 20.6655C7.38504 20.3893 7.62671 20.1562 7.33111 19.8338V19.8328ZM21.4026 11.2078C21.1286 13.5511 20.3793 15.8119 19.2017 17.8482C18.8296 18.4811 18.3487 19.0415 17.7818 19.5031C17.6781 19.0894 17.5609 18.6788 17.4281 18.2745C16.9821 16.92 16.2395 15.7597 15.053 14.9449C14.1952 14.3558 13.268 13.9274 12.0379 13.8329C11.4892 13.9631 10.7704 14.0933 10.0776 14.3096C9.10366 14.612 8.1256 14.9617 7.41409 15.7419C6.44639 16.8024 5.5876 17.9469 5.17169 19.3676C5.1302 19.5094 5.09701 19.6301 5.06797 19.7393C4.20358 19.0198 3.49316 18.1295 2.98012 17.1227C2.22297 15.6894 1.56228 14.1374 2.00205 12.3114C2.24786 11.2897 2.40759 10.2523 2.62436 9.22539C2.85773 8.14596 3.5319 7.27863 4.24756 6.48691C5.61353 4.97696 7.23569 3.84503 9.19805 3.39247C11.3181 2.90315 16.3308 4.23249 16.839 3.92378C17.8451 4.32385 18.625 5.05992 19.2857 5.95349C19.5969 6.37351 19.9236 6.80402 20.3229 7.13373C21.61 8.19216 21.5769 9.71995 21.4026 11.2078Z" fill="#5F5D61"/>
</svg>
