<svg width="1459" height="282" viewBox="0 0 1459 282" fill="none" xmlns="http://www.w3.org/2000/svg">
<g opacity="0.2">
<path d="M2621.1 289.287C2691.18 286.257 2792.64 272.774 2864.34 271.532C2964.85 269.745 3082.32 282.359 3182.93 282.806C3321.33 285.115 3307.53 266.963 3389.27 284.966C3413.59 272.948 3408.39 283.352 3408.84 259.365C3418.56 259.539 3472.36 275.853 3508.88 298.524C3476.56 268.726 3415.28 258.57 3408.84 256.559V147.052C3420.4 149.064 3341.72 71.9125 3343.68 71.2172V66.251C3344.92 65.4564 3360.11 68.2871 3358.1 64.1651C3357.43 63.5692 3352.26 52.5688 3350.99 53.14H3343.68C3343.28 51.8984 3344.8 45.5167 3342.29 45.6905C3339.4 44.3 3341.52 70.522 3340.89 71.2421C3342.09 72.8561 3278.74 148.567 3288.81 147.077V213.104L3240.73 213.228V182.164C3249.36 183.828 3203.07 126.914 3204.38 126.144C3204.92 125.712 3205.33 125.147 3205.58 124.506C3205.82 123.865 3205.9 123.171 3205.79 122.492C3205.69 121.813 3205.41 121.174 3204.97 120.638C3204.54 120.103 3203.98 119.69 3203.34 119.44C3202.72 118.521 3204.83 95.2044 3201.95 96.2722C3199.88 96.2722 3200.7 99.5251 3200.55 100.692C3186.81 99.9969 3190.06 101.164 3181.93 110.873C3178.9 115.268 3199.58 112.313 3200.55 113.108V119.44C3199.92 119.69 3199.35 120.102 3198.92 120.635C3198.49 121.168 3198.21 121.804 3198.1 122.481C3197.99 123.157 3198.05 123.851 3198.29 124.493C3198.53 125.136 3198.93 125.705 3199.46 126.144C3200.5 127.411 3153.19 184.275 3162.72 182.164V213.402L3017.55 213.725V191.203C3018.9 191.501 3020.86 190.681 3019.89 189.042L2984.07 135.878V132.551H2993.14L2989.16 125.375H2984.07V122.445C2984.07 122.076 2983.92 121.722 2983.66 121.461C2983.4 121.2 2983.04 121.054 2982.67 121.054C2982.3 121.054 2981.95 121.2 2981.69 121.461C2981.43 121.722 2981.28 122.076 2981.28 122.445V135.878L2960.75 166.868C2959.7 166.868 2906.55 149.039 2905.55 149.933C2881.99 163.367 2884.25 159.99 2858.32 160.238C2858.32 159.592 2858.49 110.128 2858.32 109.532C2858.14 108.936 2847.53 94.6333 2847.31 94.1863C2847.13 90.6851 2847.18 75.4386 2848.37 72.4588C2844.97 59.4968 2834.8 61.1853 2836.91 48.5958C2840.97 49.3656 2840.97 45.0449 2836.91 45.8147C2837.73 40.8484 2833.33 40.8484 2834.15 45.8147C2830.03 45.0449 2830.05 49.3904 2834.15 48.5958C2836.24 61.2102 2826.1 59.4471 2822.67 72.4588C2823.84 75.3393 2823.89 90.8341 2823.74 94.1863C2823.46 94.6581 2812.87 109.085 2812.72 109.532C2812.57 109.979 2812.72 156.066 2812.72 156.712C2807.47 151.162 2800.64 147.35 2793.16 145.786C2792.98 139.355 2792.71 108.042 2795.17 102.704C2794.96 98.361 2793.19 94.2386 2790.2 91.0824C2768.42 67.5919 2774.66 74.346 2773.59 56.3184C2774.84 56.0452 2779.51 57.262 2779.41 54.9278C2779.31 52.5937 2774.81 53.8352 2773.59 53.5621C2773.22 52.2957 2774.69 46.3362 2772.2 46.4851C2769.71 46.6341 2771.18 52.3205 2770.81 53.5621C2769.59 53.8601 2764.79 52.5937 2764.89 54.9278C2764.99 57.262 2769.59 56.0204 2770.81 56.3184C2769.52 69.4542 2775.28 66.251 2763.35 81.4975C2764.97 74.495 2759.97 66.5986 2755.89 62.7497C2731.88 41.8417 2729.59 33.548 2729.36 31.9091C2729.36 31.1641 2729.36 13.6332 2729.36 12.8634C2730.63 12.3916 2738.81 14.105 2738.59 11.4728C2738.84 8.84069 2730.58 10.5292 2729.36 10.0823C2728.87 8.81586 2730.66 -0.123461 2727.97 0.149685C2725.29 -0.123461 2727.08 8.89035 2726.58 10.0823C2725.31 10.5541 2716.96 8.81585 2717.18 11.4728C2716.93 14.105 2725.36 12.3916 2726.58 12.8634V30.593C2726.49 30.9686 2726.49 31.3597 2726.58 31.7353C2727.3 43.5054 2688.05 64.0161 2692.6 82.2424C2680.59 67.9892 2685.36 69.0817 2684.44 56.3184C2685.68 56.0452 2690.36 57.262 2690.26 54.9278C2690.16 52.5937 2685.66 53.8352 2684.44 53.5621C2684.07 52.2957 2685.53 46.3362 2683.05 46.4851C2680.56 46.6341 2682.03 52.3205 2681.66 53.5621C2680.44 53.8601 2675.64 52.5937 2675.74 54.9278C2675.84 57.262 2680.44 56.0204 2681.66 56.3184C2679.89 74.8426 2688.52 65.3819 2664.98 91.0824C2661.83 94.3579 2660.05 98.7096 2660 103.25C2640.66 115.666 2646.03 123.711 2646.65 151.323C2640.98 154.8 2637.13 161.43 2634.22 167.24L2578.36 179.482C2578.24 178.886 2578.66 118.273 2578.24 117.776C2578.24 117.528 2560.56 94.534 2560.46 94.2857C2559.79 92.7213 2491.42 94.2857 2490.33 93.7394V66.4248C2495.3 62.7746 2498.16 51.5259 2490.15 46.5596C2485.16 42.7113 2480.54 38.414 2476.33 33.7218V19.692C2477.57 19.2202 2485.63 20.9336 2485.4 18.3015C2485.65 15.6693 2477.55 17.3579 2476.33 16.9109C2475.88 15.6445 2477.52 8.12057 2474.94 8.31923C2472.33 8.09574 2473.97 15.7687 2473.55 16.9109C2472.28 17.3827 2464.3 15.6693 2464.5 18.3015C2464.27 20.9336 2472.3 19.2451 2473.55 19.692V33.7466C2469.34 38.4396 2464.71 42.737 2459.72 46.5845C2451.59 51.4266 2454.75 63.147 2459.72 66.4496V93.7642C2458.31 94.1863 2392.28 92.6468 2391.23 94.236C2391.23 94.5588 2373.55 117.429 2373.51 117.727C2373.06 118.149 2373.51 214.569 2373.36 215.19L2189.61 215.612V191.426C2191.15 191.749 2194.18 191.004 2192.44 188.943L2155.15 157.258V140.323C2155.15 139.954 2155 139.601 2154.74 139.34C2154.48 139.079 2154.13 138.933 2153.76 138.933C2153.39 138.933 2153.04 139.079 2152.77 139.34C2152.51 139.601 2152.37 139.954 2152.37 140.323V142.806C2151.1 143.551 2137.77 140.894 2139.61 144.867C2144.29 152.739 2142.1 154.154 2152.37 153.434V157.209L2112.69 188.968C2110.75 191.228 2114.33 191.699 2115.9 191.451C2115.9 191.451 2115.9 215.761 2115.9 215.836C2092.63 216.133 2027.02 215.389 2002.85 215.091C2003.15 214.519 2002.21 159.716 2002.31 159.121C2010.11 159.692 1954.57 96.6198 1955.62 95.5024V76.9781C1955.62 76.6093 1955.47 76.2557 1955.21 75.9949C1954.95 75.7341 1954.59 75.5876 1954.23 75.5876C1953.86 75.5876 1953.5 75.7341 1953.24 75.9949C1952.98 76.2557 1952.83 76.6093 1952.83 76.9781V79.4613H1944.88C1944.18 78.7163 1936.8 88.9469 1936.3 89.2449C1933.37 93.5655 1951.79 90.7348 1952.81 91.5045V95.4279C1953.95 96.7688 1895.95 160.784 1905.99 159.046C1905.75 169.798 1905.03 202.7 1904.78 213.948L1743.18 212.21C1741.84 211.416 1746.31 145.165 1740.69 149.014V125.573C1740.3 123.636 1736.32 120.383 1732.61 116.684V98.8298C1743.83 91.3804 1720.63 75.7366 1719.39 72.8561C1719.39 66.9462 1719.39 59.0995 1719.39 53.1896C1719.39 52.8208 1719.24 52.4671 1718.98 52.2064C1718.72 51.9456 1718.37 51.7991 1718 51.7991C1717.63 51.7991 1717.27 51.9456 1717.01 52.2064C1716.75 52.4671 1716.6 52.8208 1716.6 53.1896V58.1559C1707.78 57.4606 1709.15 59.174 1704.42 65.4564C1702.16 69.5784 1715.39 66.9462 1716.6 67.6415V72.9058C1715.29 75.7862 1691.94 91.6535 1703.58 99.0285V116.907C1703.35 117.304 1696.99 124.704 1696.94 125.151C1696.89 125.598 1696.94 148.567 1696.94 149.113C1691.4 145.016 1695.82 211.416 1694.45 211.788L1509.34 209.801C1509.98 209.081 1509.34 165.428 1509.56 164.608C1518.74 167.091 1477.74 116.112 1479.18 115.666V94.6333C1479.18 94.2645 1479.04 93.9108 1478.77 93.65C1478.51 93.3892 1478.16 93.2427 1477.79 93.2427C1477.42 93.2427 1477.07 93.3892 1476.81 93.65C1476.54 93.9108 1476.4 94.2645 1476.4 94.6333V97.7869C1464.27 97.1413 1467.05 98.0849 1460.46 107.074C1457.98 111.246 1475.38 108.514 1476.4 109.259V115.641L1446.84 162.423C1445.99 163.913 1447.71 164.906 1449.03 164.559C1449.03 164.708 1449.03 208.908 1449.03 209.081L1287.78 207.343L1286.86 171.909C1291.36 171.437 1258.29 128.354 1258.72 127.212V118.025C1258.75 117.869 1258.75 117.708 1258.72 117.553C1258.72 117.28 1246.14 96.0984 1246.04 95.85V76.2332C1246.04 75.8644 1245.89 75.5107 1245.63 75.2499C1245.37 74.9891 1245.01 74.8426 1244.64 74.8426C1244.27 74.8426 1243.92 74.9891 1243.66 75.2499C1243.4 75.5107 1243.25 75.8644 1243.25 76.2332V80.7525C1235.62 79.8338 1236.51 82.9377 1232.59 87.9785C1230.52 91.9267 1241.98 89.518 1243.25 90.1388V95.85L1231.02 117.553C1230.7 117.553 1231.02 127.237 1230.85 127.485C1231.59 128.727 1200.69 172.952 1207.4 171.958V206.499L1169.22 206.102V134.215C1181.27 137.89 1122.83 70.9938 1124.91 70.8448C1124.32 69.8515 1126.41 48.3475 1123.52 49.2911C1121.04 49.1173 1122.53 55.6231 1122.13 56.7405H1113.63L1110.12 64.6618H1121.98V70.7703L1076.01 133.892C1074.82 135.853 1077.38 136.375 1078.82 136.127L1079.19 245.137C1080.54 246.378 1034.44 269.099 974.107 281.837C1029.25 278.113 1073.38 250.997 1079.19 248.315C1079.49 249.408 1078.5 253.505 1080.09 253.927L1091.97 258.893C1102.81 254.448 1117.5 248.812 1120.96 248.514C1134.39 273.146 1447.21 264.182 1537.88 261.352C1697.51 262.121 1794.74 277.939 1885.36 289.088C1893.71 290.007 1915.77 290.603 1929.44 291.05C1929.63 291.057 1929.81 291.026 1929.99 290.959C1930.16 290.892 1930.32 290.79 1930.46 290.661C1930.59 290.531 1930.7 290.375 1930.77 290.203C1930.84 290.031 1930.88 289.846 1930.88 289.659C1929.91 282.21 1933.37 274.115 1941.87 274.214C1950.37 274.314 1953.83 282.731 1952.83 290.156C2000.42 295.122 2057.62 288.169 2084.84 287.499C2113.96 285.413 2148.07 282.533 2208.3 281.018C2210.59 280.745 2209.27 277.84 2209.5 276.35C2209.5 258.794 2224.61 244.491 2243.18 244.491C2247.79 244.424 2252.37 245.309 2256.62 247.09C2260.87 248.871 2264.71 251.51 2267.89 254.841C2271.08 258.172 2273.54 262.124 2275.12 266.449C2276.7 270.774 2277.38 275.379 2277.09 279.975C2307.23 281.142 2335.49 279.205 2359.41 279.106C2408.36 277.914 2462.76 276.623 2504.3 283.079C2515.09 283.327 2585.94 292.614 2595.29 288.79C2590.59 260.681 2618.26 257.95 2620.77 277.864C2621.1 278.46 2620.23 289.039 2621.1 289.287ZM3321.38 143.8H3319.69L3291.65 144.247L3342.76 74.7185L3388.25 142.036C3388.24 142.26 3388.24 142.484 3388.25 142.707L3321.38 143.8ZM3406.03 143.8V144.023L3392.08 142.707L3354.24 86.9107L3406.06 143.675C3406.05 143.717 3406.04 143.759 3406.03 143.8ZM3406.03 274.984C3400.83 276.476 3395.83 278.567 3391.11 281.217V145.438C3391.11 145.438 3394.4 145.712 3394.57 145.712V161.157H3397.33V145.985L3400.96 146.308V161.206H3403.74V146.506L3406.23 146.73L3406.03 274.984ZM3291.67 147.077L3302.46 146.903V161.802H3307.03V146.903L3319.69 146.506V161.157H3324.26V146.506L3336.94 146.308V161.206H3341.52V146.308L3354.2 146.084V161.157H3358.77V145.96L3371.45 145.761V161.157H3376.02V145.687L3388.3 145.463V281.813C3373.04 277.72 3357.41 275.101 3341.64 273.991L3336.52 254.126V214.395C3336.99 211.167 3292.94 213.924 3291.77 213.104L3291.67 147.077ZM3202 127.485L3238.69 179.408H3164.56L3202 127.485ZM3165.55 182.164H3169.08V193.885H3171.74V182.164H3175.89V193.885H3180.22V182.164H3186.09V193.885H3191.23V182.164H3198.69V193.885H3205.53V182.164H3212.99V193.885H3218.13V182.164H3224V193.885H3228.32V182.164H3232.68V193.885H3235.16V182.164H3237.82V213.228L3165.55 213.402V182.164ZM2998.98 181.965C2998.98 182.139 3004.82 181.965 3005.07 181.965V213.253H2988.71V178.787L2998.98 181.965ZM2801.74 178.042H2985.86V213.352H2801.74V178.042ZM3007.76 191.203H3014.74V213.774H3007.76V191.203ZM2982.75 138.808L3016.11 188.471H3007.76C3007.56 179.408 3009.92 178.837 2999.63 179.333C2992.02 176.85 2971.41 170.245 2963.51 167.787L2982.75 138.808ZM2886.04 163.019C2887.06 163.019 2905.46 152.913 2906.33 152.664C2918.76 156.613 2966.34 171.511 2977.92 175.261H2805.81L2828.39 163.019H2886.04ZM2819.11 164.608C2817.67 162.522 2816.33 160.884 2815.33 159.642V111.419H2825.28V161.405L2819.14 164.732C2819.13 164.691 2819.12 164.649 2819.11 164.608ZM2820.43 103.399C2822.18 104.821 2823.58 106.61 2824.56 108.638H2816.65L2820.43 103.399ZM2850.44 103.399L2854.24 108.663H2846.29C2847.26 106.616 2848.68 104.81 2850.44 103.374V103.399ZM2828.06 111.444H2842.46V160.238H2828.06V111.444ZM2829.23 108.663C2834.8 101.387 2835.37 102.058 2841.24 108.663H2829.23ZM2845.24 160.263V111.419H2855.48V160.238L2845.24 160.263ZM2826.45 92.9696V77.7479H2844.45V92.9696H2826.45ZM2827.44 67.8402C2830.48 65.0343 2833.18 61.8748 2835.47 58.4291C2836.09 61.7565 2847.9 68.61 2845.02 74.9668H2825.92C2825.45 73.7608 2825.35 72.4432 2825.62 71.1768C2825.88 69.9103 2826.52 68.7504 2827.44 67.8402ZM2825.97 95.7507H2844.84L2848.75 101.139C2846.64 102.794 2844.94 104.909 2843.78 107.322C2837.93 99.2023 2832.49 98.3084 2826.87 107.173C2825.7 104.811 2824 102.753 2821.9 101.164L2825.97 95.7507ZM2783.71 144.718C2775.26 144.718 2763.95 145.712 2757.01 150.33C2755.9 148.973 2754.76 147.698 2753.6 146.506V111.419H2790.15V145.215C2788 144.889 2785.83 144.723 2783.66 144.718H2783.71ZM2732.67 136.151C2731.33 131.309 2736.6 108.613 2727.57 108.837C2718.55 109.06 2723.82 131.185 2722.6 135.978C2715.82 136.333 2709.29 138.654 2703.81 142.657V110.376C2707.91 104.044 2705.03 94.6333 2700.13 90.5113H2754.67C2749.7 94.683 2746.89 104.144 2750.99 110.376V144.023C2745.8 139.617 2739.4 136.875 2732.62 136.151H2732.67ZM2695.93 150.181C2687.35 144.967 2674.37 144.271 2664.35 144.967V111.419H2700.92C2700.92 111.568 2700.92 144.718 2700.92 144.818C2699.11 146.478 2697.42 148.271 2695.88 150.181H2695.93ZM2771.95 73.5266C2771.8 79.213 2798.58 96.1728 2790.82 108.638H2753.06C2745.4 96.148 2772.08 79.213 2771.9 73.5266H2771.95ZM2701.5 64.7362C2718.5 49.8374 2725.11 41.1215 2727.57 36.1553C2730.06 41.1215 2736.65 49.9119 2753.63 64.6866C2760.69 71.3662 2762.93 80.1814 2757.16 87.6308H2697.49C2692.22 79.6848 2694.58 71.4159 2701.45 64.7362H2701.5ZM2666.52 93.0193C2676.46 83.3847 2680.69 77.2761 2682.58 73.5266C2682.43 79.213 2709.2 96.1728 2701.45 108.638H2663.73C2662.46 106.079 2662.05 103.182 2662.55 100.371C2663.05 97.5604 2664.44 94.9838 2666.52 93.0193ZM2659.56 106.403C2659.66 108.043 2660.36 109.588 2661.52 110.749V135.754H2648.59C2646.72 130.352 2646.79 124.466 2648.79 119.109C2650.79 113.752 2654.6 109.259 2659.56 106.403ZM2648.96 138.535H2661.4V145.339C2657.04 146.046 2652.84 147.482 2648.96 149.585V138.535ZM2641.51 159.493C2652.79 144.892 2679.59 144.023 2695.93 153.409C2704.98 144.892 2712.63 137.741 2726.46 138.51C2740.28 137.89 2748.63 144.768 2756.84 153.658C2777.1 142.384 2804.32 145.538 2816.9 166.073L2799.8 175.36C2799.51 175.54 2799.29 175.799 2799.15 176.105C2798.88 176.652 2799.15 213.601 2799.15 214.172H2793.73C2793.73 214.172 2793.73 167.191 2793.73 166.992C2786.27 153.881 2766.61 151.274 2755.39 161.082C2741.6 143.154 2711.81 143.079 2697.94 160.958C2686.73 151.274 2666.96 153.956 2659.73 167.091C2659.73 167.091 2659.73 214.271 2659.73 214.42H2636.19V168.854C2637.26 166.371 2640.34 160.859 2641.41 159.493H2641.51ZM2662.36 168.656H2693.84V214.47H2662.36V168.656ZM2758.53 165.9C2758.03 165.055 2757.51 164.236 2756.94 163.416C2761.62 159.548 2767.62 157.646 2773.67 158.109C2779.73 158.572 2785.37 161.365 2789.4 165.9H2758.53ZM2755.27 165.9H2697.59C2710.1 145.438 2742.67 145.438 2755.17 165.9H2755.27ZM2694.44 165.9H2663.73C2667.77 161.413 2673.37 158.652 2679.39 158.19C2685.41 157.727 2691.38 159.599 2696.05 163.416C2695.43 164.136 2694.88 165.006 2694.34 165.9H2694.44ZM2696.62 168.656H2756.29V214.346L2696.62 214.47V168.656ZM2759.12 168.656H2790.87V214.246H2759.12V168.656ZM2633.28 170.171V214.619H2577.89V182.288L2633.28 170.171ZM2541.86 173.2V153.658H2550.14V155.644C2548 156.811 2547.46 160.089 2546.79 162.299C2543.06 165.006 2547.78 166.173 2550.27 165.676C2550.21 165.868 2550.2 166.07 2550.24 166.267C2550.28 166.463 2550.36 166.649 2550.48 166.808C2550.6 166.968 2550.75 167.097 2550.93 167.186C2551.11 167.276 2551.31 167.322 2551.51 167.322C2551.71 167.322 2551.91 167.276 2552.09 167.186C2552.27 167.097 2552.42 166.968 2552.54 166.808C2552.66 166.649 2552.74 166.463 2552.78 166.267C2552.82 166.07 2552.81 165.868 2552.75 165.676C2555.24 166.173 2559.96 165.006 2556.26 162.299C2555.56 160.089 2555.04 156.811 2552.88 155.644V153.658H2560.98V173.2H2541.86ZM2549.17 163.267C2549.67 161.852 2550.17 158.798 2551.34 158.053C2551.47 158.102 2551.62 158.102 2551.76 158.053C2552.9 158.798 2553.4 161.852 2553.92 163.267H2549.17ZM2541.86 151.001C2541.77 149.687 2541.95 148.368 2542.38 147.126C2542.82 145.884 2543.51 144.746 2544.41 143.782C2545.31 142.818 2546.4 142.049 2547.6 141.523C2548.81 140.998 2550.12 140.726 2551.44 140.726C2552.75 140.726 2554.06 140.998 2555.27 141.523C2556.48 142.049 2557.56 142.818 2558.46 143.782C2559.36 144.746 2560.05 145.884 2560.49 147.126C2560.92 148.368 2561.1 149.687 2561.01 151.001H2541.86ZM2551.44 137.815C2534.78 137.592 2539.75 162.92 2539 173.324H2527.77C2527.07 162.87 2532.09 137.617 2515.34 137.815C2498.66 137.592 2503.63 162.92 2502.91 173.324H2491.82C2490.9 159.195 2497.71 127.187 2474.71 127.634C2451.79 127.162 2458.53 159.245 2457.63 173.324H2446.4C2446.4 173.026 2446.4 149.064 2446.4 149.734C2446.56 149.46 2446.62 149.137 2446.56 148.823C2446.51 148.509 2446.34 148.224 2446.1 148.021C2442.92 132.874 2421.36 135.878 2421.79 151.398V173.324H2410.52C2409.78 162.398 2415.02 138.039 2398.09 137.815C2381.16 137.592 2386.41 162.92 2385.66 173.324H2375.47V119.738H2575.03V173.2H2563.69C2563.02 162.746 2568.02 137.492 2551.34 137.691L2551.44 137.815ZM2505.89 173.324C2505.89 172.281 2505.89 151.448 2505.89 150.454H2514.19V151.919C2510.46 153.186 2510.41 158.574 2509.77 161.852C2509.25 161.852 2508.76 162.056 2508.4 162.419C2508.03 162.782 2507.83 163.275 2507.83 163.789C2507.83 164.303 2508.03 164.795 2508.4 165.158C2508.76 165.522 2509.25 165.726 2509.77 165.726H2514.19C2514.16 165.909 2514.16 166.099 2514.21 166.281C2514.25 166.463 2514.34 166.633 2514.46 166.778C2514.57 166.923 2514.72 167.04 2514.89 167.12C2515.06 167.2 2515.25 167.242 2515.44 167.242C2515.62 167.242 2515.81 167.2 2515.98 167.12C2516.15 167.04 2516.3 166.923 2516.42 166.778C2516.54 166.633 2516.62 166.463 2516.67 166.281C2516.71 166.099 2516.72 165.909 2516.68 165.726H2521.08C2521.59 165.726 2522.09 165.522 2522.45 165.158C2522.81 164.795 2523.02 164.303 2523.02 163.789C2523.02 163.275 2522.81 162.782 2522.45 162.419C2522.09 162.056 2521.59 161.852 2521.08 161.852C2520.41 158.649 2520.38 153.26 2516.63 151.919V150.454H2524.81C2524.93 151.423 2524.81 172.306 2524.81 173.324H2505.89ZM2512.08 163.118C2513.57 151.373 2517.57 151.398 2519.07 163.118H2512.08ZM2506.49 147.673C2507.01 145.693 2508.18 143.943 2509.8 142.693C2511.43 141.444 2513.42 140.767 2515.47 140.767C2517.52 140.767 2519.52 141.444 2521.14 142.693C2522.77 143.943 2523.94 145.693 2524.46 147.673H2506.49ZM2489.08 144.818H2460.37C2459.97 126.02 2489.33 126.02 2488.98 144.693L2489.08 144.818ZM2460.47 148.145C2460.49 147.98 2460.49 147.813 2460.47 147.648H2488.98V173.2H2460.37L2460.47 148.145ZM2424.4 173.2C2424.4 172.157 2424.4 151.323 2424.4 150.33H2443.46C2443.46 151.299 2443.46 172.182 2443.46 173.2H2424.4ZM2424.99 147.549C2425.52 145.569 2426.68 143.818 2428.31 142.569C2429.94 141.32 2431.93 140.643 2433.98 140.643C2436.03 140.643 2438.02 141.32 2439.65 142.569C2441.27 143.818 2442.44 145.569 2442.97 147.549H2424.99ZM2388.45 173.2V154.651H2407.59V173.2H2388.45ZM2407.59 151.87H2388.45C2388.25 150.499 2388.35 149.101 2388.74 147.772C2389.13 146.442 2389.8 145.212 2390.71 144.165C2391.61 143.118 2392.74 142.278 2394 141.702C2395.26 141.127 2396.63 140.829 2398.02 140.829C2399.41 140.829 2400.78 141.127 2402.04 141.702C2403.3 142.278 2404.42 143.118 2405.33 144.165C2406.24 145.212 2406.91 146.442 2407.3 147.772C2407.69 149.101 2407.79 150.499 2407.59 151.87ZM2461.99 67.2939H2487.09C2485.33 78.6667 2493.88 109.507 2474.66 109.507C2455.27 110.103 2463.53 78.0956 2461.99 67.2939ZM2456.76 56.0452C2456.76 49.1421 2475.58 37.5955 2474.32 36.4284H2474.66C2476.18 40.8484 2502.01 53.8104 2487.84 64.5128H2460.99C2458.51 62.3497 2456.95 59.3195 2456.64 56.0452H2456.76ZM2392.37 96.4957C2392.75 96.4957 2458.73 96.4957 2459.05 96.4957C2458.16 117.006 2490.55 117.081 2489.73 96.4957H2558.05L2573.59 116.957H2376.89L2392.37 96.4957ZM2375.44 175.956H2575V214.743L2375.44 215.215V175.956ZM2153.11 159.741L2187.12 188.72H2117.51L2153.11 159.741ZM2118.68 215.711V191.426H2124.97V199.347H2130.34V191.426H2137.55V199.347H2142.94V191.426H2150.15V199.347H2155.55V191.426H2162.73V199.347H2168.13V191.426H2175.34V199.347H2180.73V191.426H2186.18V215.637L2118.66 215.811C2118.66 215.811 2118.68 215.736 2118.68 215.711ZM1908.7 156.439C1908.63 156.273 1908.52 156.128 1908.38 156.017L1954.25 98.3083L1999.72 156.389L1908.7 156.439ZM1915.47 159.22V169.152H1918.25V159.22H1927.47V169.152H1930.26V159.22H1939.41V169.152H1942.19V159.22H1951.37V169.152H1954.13V159.22H1963.3V169.152H1966.08V159.22H1975.23V169.152H1978.02V159.22H1987.14V169.152H1989.9V159.22H1999.57L1999.75 174.317H1908.51L1908.85 159.22H1915.47ZM1908.43 177.098H1999.77C1999.77 177.719 2000.02 214.594 2000.29 215.165L1907.59 214.048L1908.43 177.098ZM1736.34 124.158H1701.24L1705.76 118.645H1730.75C1732.74 120.582 1734.88 122.668 1736.34 124.158ZM1729.88 115.864H1727.39C1726.85 114.027 1728.89 103.895 1725.63 103.821C1722.37 103.746 1724.44 114.076 1723.89 115.864H1720.48C1719.89 113.878 1722.17 103.722 1718.42 103.821C1714.67 103.92 1716.93 113.927 1716.33 115.864H1712.43C1711.91 114.027 1713.94 103.895 1710.69 103.821C1707.43 103.746 1709.47 114.076 1708.95 115.864H1706.46V99.6741H1729.93L1729.88 115.864ZM1705.99 87.5812C1711.51 82.1431 1716.11 77.4003 1718.05 75.3889C1718.74 78.1949 1739.2 90.5858 1730.65 96.8681H1705.44C1702.36 94.8816 1702.41 90.6603 1705.99 87.606V87.5812ZM1699.67 126.939H1737.96V148.989H1699.67V126.939ZM1697.19 151.77H1740.42V212.235L1697.19 211.763V151.77ZM1477.79 118.496L1507.62 161.703H1450.44L1477.79 118.496ZM1451.76 164.559H1457.6V173.274H1462.13V164.559H1470.23V173.274H1474.76V164.559H1482.86V173.274H1487.44V164.559H1495.54V173.274H1500.07V164.559H1506.75C1506.98 165.403 1506.36 208.982 1506.98 209.727L1451.76 209.131C1451.79 208.883 1451.81 164.807 1451.76 164.559ZM1243.8 100.494L1246.14 116.982H1234.55L1243.8 100.494ZM1255.98 126.393L1249.02 127.013V119.738L1255.91 119.49L1255.98 126.393ZM1246.28 121.799V127.088L1233.51 126.641V119.639H1246.23L1246.28 121.799ZM1232.96 129.248L1246.16 129.795L1244.62 170.022L1209.47 169.152L1232.96 129.248ZM1247.33 172.803L1254.79 172.629V182.561H1259.41V172.604L1265.18 172.48V181.742H1270.38V172.356L1276.57 172.207V181.916H1281.09V171.983H1284.05L1284.97 207.269L1247.25 206.871L1247.33 172.803ZM1283.87 169.202L1247.38 170.022L1248.77 129.819L1256.5 129.124L1283.87 169.202ZM1254.94 116.708L1248.77 116.957L1246.81 103.026L1254.94 116.708ZM1210.19 172.008H1213.57V181.792H1218.74V172.256H1223.71V181.792H1228.91V172.505H1233.88V181.792H1238.01V172.604L1244.54 172.753V206.772L1210.14 206.4L1210.19 172.008ZM1166.33 206.102L1121.58 205.605C1118.5 203.842 1120.89 245.335 1120.17 245.832C1111.15 248.118 1102.38 251.296 1093.99 255.317V134.215H1104.58V146.233H1109.77V134.215H1118.72V146.233H1123.92V134.215H1132.89V146.233H1138.09V134.215H1147.04V146.233H1152.24V134.215H1166.38L1166.33 206.102ZM1094.76 131.607L1121.98 76.9781L1123.55 73.8742L1167.6 131.458L1094.76 131.607ZM1114.65 85.8181L1091.6 131.607L1080.49 133.37H1079.84L1114.65 85.8181ZM1081.58 135.978L1084.34 135.531V146.978H1087.17V135.109L1091.18 134.463V255.466L1082.05 251.767L1081.58 135.978ZM2243.21 241.635C2222.43 241.635 2205.62 258.347 2206.81 278.187L2199.95 278.361C2199.33 221.795 2285.47 221 2285.97 277.517H2279.61C2280.5 257.974 2263.74 241.611 2243.21 241.635ZM2608.04 262.295C2594.42 262.121 2591.16 276.3 2592.53 287.276C2531.6 284.792 2484.48 274.86 2421.69 275.282C2378.95 275.282 2335.99 277.144 2288.75 277.492C2287.46 216.953 2197.27 217.897 2197.19 278.436C2080.72 282.011 2076.09 289.163 1955.64 288.716C1958.75 266.367 1925.61 265.796 1928.12 288.145C1803.67 281.813 1723.64 258.024 1537.8 258.521C1456.48 262.618 1120.36 267.634 1122.8 246.478V208.361C1673.5 218.294 2775.93 219.213 3333.59 215.811V254.374C3333.59 254.895 3338.56 273.593 3338.56 274.09C3235.63 287.872 3003.53 270.812 2880.35 268.602C2802.65 268.9 2699.76 282.011 2623.36 286.829C2624.95 275.903 2621.37 262.121 2608.02 262.295H2608.04ZM1721.78 145.14H1716.16C1716.41 142.657 1714.91 136.524 1718.99 136.648C1723.07 136.772 1721.53 142.732 1721.78 145.14ZM1709.22 145.14H1704.67C1704.92 143.055 1703.53 136.648 1706.93 136.648C1710.34 136.648 1708.95 143.055 1709.22 145.14ZM1732.09 145.14H1727.54C1727.82 143.055 1726.42 136.648 1729.83 136.648C1733.24 136.648 1731.82 143.055 1732.09 145.14ZM1721.9 173.945H1716.01C1716.21 171.462 1714.86 165.602 1718.94 165.701C1723.02 165.8 1721.7 171.487 1721.9 173.945ZM1733.68 173.945H1727.77C1727.97 171.462 1726.65 165.602 1730.73 165.701C1734.8 165.8 1733.56 171.487 1733.68 173.945ZM1710.04 173.945H1704.15C1704.35 171.462 1703.03 165.602 1707.11 165.701C1711.18 165.8 1709.84 171.487 1710.04 173.945ZM1721.9 196.293H1716.01C1716.21 193.81 1714.86 187.95 1718.94 188.049C1723.02 188.148 1721.7 193.835 1721.9 196.293ZM1733.68 196.293H1727.77C1727.97 193.81 1726.65 187.95 1730.73 188.049C1734.8 188.148 1733.56 193.835 1733.68 196.293ZM1710.04 196.293H1704.15C1704.35 193.81 1703.03 187.95 1707.11 188.049C1711.18 188.148 1709.84 193.835 1710.04 196.293ZM0 346.582C44.3519 346.035 1045.08 351.49 1102.79 351.465C2002.21 360.975 3958.18 374.315 4497.51 360.632C3956.98 382.459 881.942 355.024 0 346.582ZM2975.54 205.605H2964.8C2965.27 201.086 2962.51 189.589 2970.17 189.787C2977.78 189.614 2975.02 201.135 2975.49 205.63L2975.54 205.605ZM2820.55 205.605H2809.81C2810.26 201.086 2807.53 189.589 2815.19 189.787C2822.77 189.614 2819.98 201.135 2820.51 205.63L2820.55 205.605ZM2953.39 205.605H2942.65C2943.12 201.086 2940.39 189.589 2948.02 189.787C2955.62 189.614 2952.89 201.135 2953.34 205.63L2953.39 205.605ZM2931.26 205.605H2920.52C2920.97 201.086 2918.23 189.589 2925.89 189.787C2933.47 189.614 2930.74 201.135 2931.21 205.63L2931.26 205.605ZM2909.11 205.605H2898.37C2898.84 201.086 2896.08 189.589 2903.74 189.787C2911.35 189.614 2908.59 201.135 2909.06 205.63L2909.11 205.605ZM2886.98 205.605H2876.17C2876.64 201.086 2873.91 189.589 2881.56 189.787C2889.2 189.614 2886.46 201.135 2886.93 205.63L2886.98 205.605ZM2864.83 205.605H2854.04C2854.51 201.086 2851.76 189.589 2859.41 189.787C2867.07 189.614 2864.31 201.135 2864.73 205.63L2864.83 205.605ZM2842.68 205.605H2831.94C2832.41 201.086 2829.68 189.589 2837.31 189.787C2844.84 189.614 2842.18 201.135 2842.63 205.63L2842.68 205.605ZM2686.83 139.901H2676.68C2677.95 135.407 2672.86 115.07 2681.66 115.492C2690.71 115.045 2685.56 135.332 2686.83 139.901ZM2731.58 201.98H2721.41C2722.68 197.485 2717.61 177.148 2726.38 177.57C2735.46 177.123 2730.33 197.435 2731.6 202.004L2731.58 201.98ZM2778.24 197.609H2771.21C2772 194.431 2768.72 181.643 2774.79 181.941C2780.75 181.692 2777.47 194.53 2778.27 197.634L2778.24 197.609ZM2682.55 197.609H2675.54C2676.31 194.431 2673.06 181.643 2679.12 181.941C2685.06 181.692 2681.78 194.53 2682.58 197.634L2682.55 197.609ZM2605.48 196.045V186.361H2612.54V196.169L2605.48 196.045ZM2774.76 139.876H2764.59C2765.86 135.382 2760.79 115.045 2769.57 115.467C2778.56 115.045 2773.49 135.332 2774.76 139.901V139.876ZM2836.39 81.3733V89.667H2833.63V81.3733H2836.39ZM2837.86 129.124H2831.44C2832.12 126.293 2829.28 115.392 2834.65 115.641C2840.02 115.467 2837.19 126.293 2837.86 129.124ZM2853.27 129.124H2848.7C2849.34 127.063 2846.83 116.386 2850.98 116.708C2855.14 116.46 2852.63 127.063 2853.27 129.124ZM2822.2 129.124H2817.5C2818.14 127.063 2815.66 116.386 2819.81 116.708C2824.06 116.46 2821.55 127.063 2822.2 129.124ZM1104.58 159.071H1109.77V172.48H1104.58V159.071ZM1118.72 159.071H1122.35V172.48H1118.67L1118.72 159.071ZM1104.58 184.424H1109.77V197.833H1104.58V184.424ZM1117.01 184.424H1120.49V197.833H1116.86L1117.01 184.424ZM1136.6 172.48H1132.84V159.071H1136.45L1136.6 172.48ZM1147.14 159.071H1152.34V172.48H1146.99L1147.14 159.071ZM1145.2 199.645H1135.43C1136.15 195.424 1132.72 182.263 1140.4 182.512C1147.93 182.288 1144.48 195.399 1145.2 199.645ZM1216 191.029H1220.73V199.919H1216V191.029ZM1251.75 190.06H1255.23V198.95H1251.75V190.06ZM3354.12 173.523V190.16H3346.66V173.523C3346.77 172.609 3347.21 171.766 3347.89 171.154C3348.58 170.542 3349.47 170.204 3350.39 170.204C3351.31 170.204 3352.2 170.542 3352.89 171.154C3353.58 171.766 3354.02 172.609 3354.12 173.523ZM3373.44 190.16H3365.98V173.523C3366.09 172.609 3366.52 171.766 3367.21 171.154C3367.9 170.542 3368.79 170.204 3369.71 170.204C3370.63 170.204 3371.52 170.542 3372.21 171.154C3372.89 171.766 3373.33 172.609 3373.44 173.523V190.16ZM3354.12 212.905H3346.66C3347.36 209.603 3344.33 198.007 3350.42 198.255C3356.48 198.031 3353.42 209.578 3354.12 212.905ZM3350.02 238.134H3342.56V227.233C3342.67 226.319 3343.1 225.476 3343.79 224.864C3344.48 224.253 3345.37 223.914 3346.29 223.914C3347.21 223.914 3348.1 224.253 3348.79 224.864C3349.47 225.476 3349.91 226.319 3350.02 227.233V238.134ZM3373.44 212.905H3365.98V202.004C3366.09 201.091 3366.52 200.248 3367.21 199.636C3367.9 199.024 3368.79 198.686 3369.71 198.686C3370.63 198.686 3371.52 199.024 3372.21 199.636C3372.89 200.248 3373.33 201.091 3373.44 202.004V212.905ZM3348.58 158.276H3345.79V151.472H3348.58V158.276ZM3328.32 151.696H3331.1V158.003H3328.32V151.696ZM3365.61 158.276H3362.85V151.472H3365.61V158.276ZM3311.73 151.472H3314.49V158.326H3311.73V151.472ZM3394.47 170.518H3397.23V183.182H3394.47V170.518ZM3400.86 170.518H3403.64V183.182H3400.86V170.518ZM3394.47 199.198H3397.23V211.887H3394.47V199.198ZM3400.86 199.198H3403.64V211.887H3400.86V199.198ZM1493.75 196.864H1489.23V186.808H1493.75V196.864ZM1481.12 196.864H1476.6V186.808H1481.12V196.864ZM1468.49 196.864H1463.97V186.808H1468.49V196.864ZM1979.46 191.898H1972.22V186.808C1972.3 185.907 1972.71 185.068 1973.38 184.457C1974.04 183.845 1974.91 183.506 1975.82 183.506C1976.72 183.506 1977.59 183.845 1978.26 184.457C1978.92 185.068 1979.33 185.907 1979.41 186.808L1979.46 191.898ZM1932.4 191.898H1925.21C1925.21 188.993 1924.27 183.033 1928.82 183.133C1933.37 183.232 1932.45 189.067 1932.45 191.973L1932.4 191.898ZM1956.29 191.898H1949.1C1949.1 188.993 1948.16 183.033 1952.68 183.133C1957.21 183.232 1956.21 189.067 1956.29 191.973V191.898ZM1935.06 201.533H1939.91V206.102H1935.16L1935.06 201.533ZM1949.68 201.533H1954.42V206.102H1949.68V201.533ZM1964.27 201.533H1969.02V206.102H1964.27V201.533ZM1978.89 201.533H1983.64V206.102H1978.89V201.533ZM1920.46 201.533H1925.21V206.102H1920.46V201.533ZM3168.04 200.117H3170.7V209.677H3168.04V200.117ZM3221.44 200.117H3224.77V209.677H3221.44V200.117ZM3183.75 209.677H3179.1C3179.57 207.616 3177.58 199.943 3181.44 200.117C3185.29 200.291 3183.33 207.616 3183.77 209.677H3183.75ZM2138.3 211.068H2131.11C2130.96 208.312 2130.84 203.817 2134.72 203.892C2138.59 203.966 2138.47 208.212 2138.3 211.068ZM2176.08 211.068H2168.9C2168.75 208.312 2168.6 203.817 2172.5 203.892C2176.41 203.966 2176.21 208.212 2176.08 211.068ZM2157.79 211.068H2150.6C2150.45 208.312 2150.33 203.817 2154.21 203.892C2158.09 203.966 2157.91 208.212 2157.74 211.068H2157.79ZM1084.34 159.915H1087.17V172.157H1084.34V159.915Z" fill="#5F5D61"/>
</g>
</svg>
