<svg width="36" height="36" viewBox="0 0 36 36" fill="none" xmlns="http://www.w3.org/2000/svg">
<path d="M24.1875 20.25C23.7399 20.25 23.3107 20.0722 22.9943 19.7557C22.6778 19.4393 22.5 19.0101 22.5 18.5625C22.5 18.1149 22.6778 17.6857 22.9943 17.3693C23.3107 17.0528 23.7399 16.875 24.1875 16.875C24.6351 16.875 25.0643 17.0528 25.3807 17.3693C25.6972 17.6857 25.875 18.1149 25.875 18.5625C25.875 19.0101 25.6972 19.4393 25.3807 19.7557C25.0643 20.0722 24.6351 20.25 24.1875 20.25ZM22.5 24.1875C22.5 24.6351 22.6778 25.0643 22.9943 25.3807C23.3107 25.6972 23.7399 25.875 24.1875 25.875C24.6351 25.875 25.0643 25.6972 25.3807 25.3807C25.6972 25.0643 25.875 24.6351 25.875 24.1875C25.875 23.7399 25.6972 23.3107 25.3807 22.9943C25.0643 22.6778 24.6351 22.5 24.1875 22.5C23.7399 22.5 23.3107 22.6778 22.9943 22.9943C22.6778 23.3107 22.5 23.7399 22.5 24.1875ZM18 25.875C17.5524 25.875 17.1232 25.6972 16.8068 25.3807C16.4903 25.0643 16.3125 24.6351 16.3125 24.1875C16.3125 23.7399 16.4903 23.3107 16.8068 22.9943C17.1232 22.6778 17.5524 22.5 18 22.5C18.4476 22.5 18.8768 22.6778 19.1932 22.9943C19.5097 23.3107 19.6875 23.7399 19.6875 24.1875C19.6875 24.6351 19.5097 25.0643 19.1932 25.3807C18.8768 25.6972 18.4476 25.875 18 25.875ZM16.3125 18.5625C16.3125 19.0101 16.4903 19.4393 16.8068 19.7557C17.1232 20.0722 17.5524 20.25 18 20.25C18.4476 20.25 18.8768 20.0722 19.1932 19.7557C19.5097 19.4393 19.6875 19.0101 19.6875 18.5625C19.6875 18.1149 19.5097 17.6857 19.1932 17.3693C18.8768 17.0528 18.4476 16.875 18 16.875C17.5524 16.875 17.1232 17.0528 16.8068 17.3693C16.4903 17.6857 16.3125 18.1149 16.3125 18.5625ZM31.5 10.125C31.5 8.63316 30.9074 7.20242 29.8525 6.14752C28.7976 5.09263 27.3668 4.5 25.875 4.5H10.125C8.63316 4.5 7.20242 5.09263 6.14752 6.14752C5.09263 7.20242 4.5 8.63316 4.5 10.125V25.875C4.5 27.3668 5.09263 28.7976 6.14752 29.8525C7.20242 30.9074 8.63316 31.5 10.125 31.5H25.875C27.3668 31.5 28.7976 30.9074 29.8525 29.8525C30.9074 28.7976 31.5 27.3668 31.5 25.875V10.125ZM25.875 6.75C26.7701 6.75 27.6286 7.10558 28.2615 7.73851C28.8944 8.37145 29.25 9.22989 29.25 10.125V11.25H6.75V10.125C6.75 9.22989 7.10558 8.37145 7.73851 7.73851C8.37145 7.10558 9.22989 6.75 10.125 6.75H25.875ZM29.25 25.875C29.25 26.7701 28.8944 27.6286 28.2615 28.2615C27.6286 28.8944 26.7701 29.25 25.875 29.25H10.125C9.22989 29.25 8.37145 28.8944 7.73851 28.2615C7.10558 27.6286 6.75 26.7701 6.75 25.875V13.5H29.25V25.875Z" fill="#8CC63E"/>
<path d="M10.6193 19.7557C10.9357 20.0722 11.3649 20.25 11.8125 20.25C12.2601 20.25 12.6893 20.0722 13.0057 19.7557C13.3222 19.4393 13.5 19.0101 13.5 18.5625C13.5 18.1149 13.3222 17.6857 13.0057 17.3693C12.6893 17.0528 12.2601 16.875 11.8125 16.875C11.3649 16.875 10.9357 17.0528 10.6193 17.3693C10.3028 17.6857 10.125 18.1149 10.125 18.5625C10.125 19.0101 10.3028 19.4393 10.6193 19.7557Z" fill="#FF0000"/>
</svg>
