<svg width="70" height="70" viewBox="0 0 70 70" fill="none" xmlns="http://www.w3.org/2000/svg">
<path d="M56.9637 16.13C57.818 15.2758 57.818 13.8907 56.9637 13.0365C56.1094 12.1822 54.7244 12.1822 53.8701 13.0365L35.0002 31.9064L16.1303 13.0365C15.276 12.1822 13.891 12.1822 13.0367 13.0365C12.1824 13.8907 12.1824 15.2758 13.0367 16.1301L31.9066 35L13.0368 53.8698C12.1825 54.7241 12.1825 56.1091 13.0368 56.9634C13.8911 57.8177 15.2761 57.8177 16.1304 56.9634L35.0002 38.0936L53.87 56.9634C54.7243 57.8177 56.1094 57.8177 56.9636 56.9634C57.8179 56.1091 57.8179 54.7241 56.9636 53.8698L38.0938 35L56.9637 16.13Z" fill="#F5F5F5"/>
</svg>
