<svg width="19" height="19" viewBox="0 0 19 19" fill="none" xmlns="http://www.w3.org/2000/svg">
<path fill-rule="evenodd" clip-rule="evenodd" d="M9.49935 0.989746C7.42253 0.989746 5.73893 2.67334 5.73893 4.75016V4.94808H3.16602C2.8381 4.94808 2.57227 5.21391 2.57227 5.54183C2.57227 5.86975 2.8381 6.13558 3.16602 6.13558H15.8327C16.1606 6.13558 16.4264 5.86975 16.4264 5.54183C16.4264 5.21391 16.1606 4.94808 15.8327 4.94808H13.2598V4.75016C13.2598 2.67334 11.5762 0.989746 9.49935 0.989746ZM9.49935 2.17725C10.9203 2.17725 12.0723 3.32918 12.0723 4.75016V4.94808H6.92643V4.75016C6.92643 3.32918 8.07837 2.17725 9.49935 2.17725Z" fill="#5F5D61"/>
<path d="M4.54877 7.069C4.51775 6.74255 4.22797 6.50306 3.90152 6.53407C3.57507 6.56509 3.33558 6.85487 3.36659 7.18132C3.44138 7.96846 3.57636 8.93833 3.74985 10.185L3.97274 11.7866C4.18584 13.3183 4.30668 14.1869 4.56813 14.8985C5.0547 16.2228 5.92264 17.2845 7.03889 17.7555C7.64505 18.0113 8.33839 18.011 9.37057 18.0106H9.62813C10.6603 18.011 11.3536 18.0113 11.9598 17.7555C13.0761 17.2845 13.944 16.2228 14.4306 14.8985C14.692 14.1869 14.8129 13.3183 15.026 11.7866L15.2488 10.185C15.4223 8.93833 15.5573 7.96846 15.6321 7.18132C15.6631 6.85488 15.4236 6.56509 15.0972 6.53407C14.7707 6.50306 14.4809 6.74255 14.4499 7.069C14.3779 7.82739 14.2466 8.77185 14.0707 10.0354L13.863 11.5277C13.633 13.1804 13.5277 13.9126 13.3159 14.489C12.9075 15.6006 12.2284 16.3533 11.4981 16.6614C11.1417 16.8118 10.7099 16.8231 9.49935 16.8231C8.28876 16.8231 7.85699 16.8118 7.50058 16.6614C6.77031 16.3533 6.09119 15.6006 5.68278 14.489C5.471 13.9126 5.36567 13.1804 5.13566 11.5277L4.92798 10.0354C4.75213 8.77185 4.62083 7.82739 4.54877 7.069Z" fill="#5F5D61"/>
<path d="M8.50976 7.91683C8.50976 7.58891 8.24393 7.32308 7.91602 7.32308C7.5881 7.32308 7.32227 7.58891 7.32227 7.91683V14.2502C7.32227 14.5781 7.5881 14.8439 7.91602 14.8439C8.24393 14.8439 8.50976 14.5781 8.50976 14.2502V7.91683Z" fill="#5F5D61"/>
<path d="M11.6764 7.91683C11.6764 7.58891 11.4106 7.32308 11.0827 7.32308C10.7548 7.32308 10.4889 7.58891 10.4889 7.91683V14.2502C10.4889 14.5781 10.7548 14.8439 11.0827 14.8439C11.4106 14.8439 11.6764 14.5781 11.6764 14.2502V7.91683Z" fill="#5F5D61"/>
</svg>
