<svg width="19" height="19" viewBox="0 0 19 19" fill="none" xmlns="http://www.w3.org/2000/svg">
<path d="M10.0938 7.12516C10.0938 6.79724 9.82792 6.53141 9.5 6.53141C9.17208 6.53141 8.90625 6.79724 8.90625 7.12516V12.6163C8.895 12.6076 8.88352 12.5985 8.8718 12.5891C8.61639 12.3839 8.31276 12.0789 7.86168 11.6237L6.75505 10.5072C6.52421 10.2743 6.14827 10.2726 5.91537 10.5035C5.68246 10.7343 5.68078 11.1102 5.91162 11.3431L7.0424 12.484C7.46307 12.9085 7.81394 13.2625 8.12823 13.515C8.4579 13.7797 8.80437 13.9811 9.22648 14.0349C9.4081 14.058 9.5919 14.058 9.77352 14.0349C10.1956 13.9811 10.5421 13.7797 10.8718 13.515C11.1861 13.2625 11.5369 12.9085 11.9576 12.484L13.0884 11.3431C13.3192 11.1102 13.3175 10.7343 13.0846 10.5035C12.8517 10.2726 12.4758 10.2743 12.245 10.5072L11.1383 11.6237C10.6872 12.0789 10.3836 12.3839 10.1282 12.5891C10.1196 12.5959 10.1112 12.6026 10.1029 12.6092C10.0998 12.6116 10.0968 12.614 10.0938 12.6163V7.12516Z" fill="#5F5D61"/>
<path fill-rule="evenodd" clip-rule="evenodd" d="M15.3423 1.85912C14.704 1.39534 13.9563 1.18767 13.0336 1.0877C12.1294 0.989735 10.9897 0.98974 9.53582 0.989746H9.49124C8.57286 0.989746 7.78329 0.989746 7.10467 1.013C5.62153 1.06381 4.53142 1.22431 3.65769 1.85912C3.27124 2.13989 2.93139 2.47973 2.65062 2.86618C2.01582 3.73991 1.85531 4.83002 1.8045 6.31317C1.78125 6.99179 1.78125 7.78138 1.78125 8.69977V10.3277C1.78124 11.7816 1.78124 12.9213 1.8792 13.8255C1.97917 14.7482 2.18684 15.4958 2.65062 16.1341C2.93139 16.5206 3.27124 16.8604 3.65769 17.1412C4.29603 17.605 5.04366 17.8127 5.96638 17.9126C6.87055 18.0106 8.01021 18.0106 9.4641 18.0106H9.53584C10.9897 18.0106 12.1294 18.0106 13.0336 17.9126C13.9563 17.8127 14.704 17.605 15.3423 17.1412C15.7288 16.8604 16.0686 16.5206 16.3494 16.1341C16.8132 15.4958 17.0208 14.7482 17.1208 13.8255C17.2188 12.9213 17.2188 11.7816 17.2188 10.3277V8.67266C17.2188 7.21877 17.2188 6.07905 17.1208 5.17487C17.0208 4.25216 16.8132 3.50452 16.3494 2.86618C16.0686 2.47973 15.7288 2.13989 15.3423 1.85912ZM9.5 2.17725C10.9975 2.17725 12.0729 2.17806 12.9057 2.26829C13.7274 2.35731 14.2422 2.52763 14.6443 2.81982C14.93 3.02735 15.1811 3.27854 15.3887 3.56418C15.6809 3.96635 15.8512 4.4811 15.9402 5.30278C16.0304 6.13557 16.0312 7.211 16.0312 8.7085V10.2918C16.0312 11.7893 16.0304 12.8648 15.9402 13.6975C15.8512 14.5192 15.6809 15.034 15.3887 15.4362C15.1811 15.7218 14.93 15.973 14.6443 16.1805C14.2422 16.4727 13.7274 16.643 12.9057 16.732C12.0729 16.8223 10.9975 16.8231 9.5 16.8231C8.00251 16.8231 6.92708 16.8223 6.09429 16.732C5.27261 16.643 4.75785 16.4727 4.35568 16.1805C4.07005 15.973 3.81885 15.7218 3.61133 15.4362C3.31913 15.034 3.14882 14.5192 3.05979 13.6975C2.96957 12.8648 2.96875 11.7893 2.96875 10.2918V8.7085C2.96875 8.03689 2.96879 7.44834 2.97731 6.9258C3.35308 6.92235 3.62971 6.91065 3.87877 6.8712C5.82657 6.5627 7.3542 5.03507 7.66271 3.08727C7.70215 2.8382 7.71385 2.56157 7.71731 2.18581C8.23984 2.17729 8.82839 2.17725 9.5 2.17725ZM3.693 5.69832C3.53069 5.72403 3.34272 5.73384 3.02214 5.73754C3.09638 4.66061 3.26654 4.03874 3.61133 3.56418C3.81885 3.27854 4.07005 3.02735 4.35568 2.81982C4.83025 2.47503 5.45211 2.30487 6.52905 2.23064C6.52534 2.55122 6.51553 2.73918 6.48983 2.9015C6.2618 4.34118 5.13268 5.4703 3.693 5.69832Z" fill="#5F5D61"/>
</svg>
