<svg width="19" height="19" viewBox="0 0 19 19" fill="none" xmlns="http://www.w3.org/2000/svg">
<path fill-rule="evenodd" clip-rule="evenodd" d="M12.6294 3.42436C12.0134 3.06869 11.4998 2.7721 11.0603 2.5915C10.5965 2.40086 10.1344 2.3038 9.64183 2.43578C9.14927 2.56776 8.79762 2.88287 8.49125 3.27988C8.20099 3.65601 7.90444 4.16968 7.54881 4.7857L4.48061 10.0999C4.27434 10.4565 4.10583 10.7478 4.02067 11.0606C4.0085 11.1053 3.99803 11.1504 3.9894 11.1962C3.92034 11.5628 3.97669 11.9308 4.04797 12.3962L4.06717 12.522C4.19874 13.386 4.30718 14.0981 4.47074 14.6382C4.64179 15.203 4.90475 15.6918 5.42192 15.9904C5.9391 16.289 6.49395 16.2723 7.06861 16.138C7.61808 16.0097 8.28904 15.7475 9.10306 15.4294L9.2216 15.3832C9.66029 15.2122 10.0072 15.077 10.2901 14.8339C10.573 14.5908 10.7588 14.2683 10.9939 13.8603L14.062 8.54612C14.4177 7.93013 14.7143 7.41647 14.8949 6.97703C15.0855 6.5132 15.1826 6.05111 15.0506 5.55855C14.9186 5.06598 14.6035 4.71433 14.2065 4.40796C13.8304 4.1177 13.3167 3.82115 12.7007 3.46552L12.6294 3.42436ZM12.7162 8.50222L8.25976 5.9293L5.54954 10.6235C5.25428 11.1349 5.18325 11.2734 5.15637 11.4161C5.12949 11.5588 5.14525 11.7136 5.23416 12.2974C5.37448 13.2187 5.47141 13.8454 5.60726 14.2939C5.73848 14.7272 5.87381 14.8801 6.01567 14.962C6.15754 15.0439 6.35758 15.0847 6.79844 14.9817C7.25482 14.875 7.846 14.6456 8.71405 14.3065C9.26407 14.0916 9.40606 14.0278 9.51617 13.9332C9.62628 13.8386 9.7107 13.7079 10.006 13.1965L12.7162 8.50222ZM13.3087 7.47309C13.5312 7.08101 13.6916 6.78087 13.7966 6.52561C13.9367 6.18467 13.9413 6.00682 13.9036 5.86589C13.8658 5.72496 13.7729 5.57328 13.481 5.34808C13.1756 5.11235 12.7322 4.85493 12.0713 4.47334C11.4104 4.09176 10.9658 3.83652 10.6089 3.68985C10.268 3.54972 10.0901 3.54506 9.94918 3.58282C9.80825 3.62058 9.65656 3.71354 9.43137 4.00536C9.26276 4.22385 9.08305 4.51288 8.85475 4.90161L13.3087 7.47309Z" fill="#5F5D61"/>
</svg>
