<svg width="80" height="81" viewBox="0 0 80 81" fill="none" xmlns="http://www.w3.org/2000/svg">
<path fill-rule="evenodd" clip-rule="evenodd" d="M78.5049 64.4545C79.0542 64.7715 79.5571 65.1621 79.9996 65.6154V62.6816C79.6374 63.3741 79.1272 63.9792 78.5049 64.4545Z" fill="#D0E398"/>
<path fill-rule="evenodd" clip-rule="evenodd" d="M54.3155 0.75C53.5338 0.75 52.7842 1.05909 52.2314 1.60928C51.6787 2.15946 51.3682 2.90568 51.3682 3.68376V14.8404H68.2481C69.3336 14.8404 70.3745 15.2696 71.1421 16.0336C71.9096 16.7976 72.3408 17.8337 72.3408 18.9141H51.3682V23.407H72.4839V27.4304H51.3682V31.9233H72.4839V35.9551H51.3682V56.5752C51.4524 56.4914 51.5282 56.4034 51.6166 56.3237C53.0027 55.0289 54.6782 54.0808 56.505 53.5576C55.6389 52.8709 55.0087 51.9332 54.7017 50.8742C54.3947 49.8153 54.426 48.6875 54.7915 47.6471C55.1569 46.6066 55.8382 45.705 56.7412 45.0671C57.6441 44.4292 58.724 44.0865 59.8313 44.0865C60.9386 44.0865 62.0185 44.4292 62.9214 45.0671C63.8244 45.705 64.5058 46.6066 64.8712 47.6471C65.2366 48.6875 65.2679 49.8153 64.9609 50.8742C64.6539 51.9332 64.0237 52.8709 63.1576 53.5576C66.0532 54.3887 68.5399 56.2522 70.1429 58.7923C70.4357 57.7709 71.0301 56.8607 71.8488 56.1795C72.6675 55.4984 73.6729 55.0777 74.7346 54.972C75.7964 54.8663 76.8656 55.0805 77.8036 55.5868C78.7416 56.0931 79.5052 56.8682 79.9955 57.8116V26.3156C79.9955 19.5359 77.2901 13.0338 72.4743 8.23947C67.6584 3.44511 61.1267 0.751111 54.3155 0.75V0.75Z" fill="#D0E398"/>
<path d="M14.2737 44.0942C13.2186 44.0942 12.1872 44.4057 11.3099 44.9892C10.4326 45.5726 9.74882 46.402 9.34505 47.3723C8.94128 48.3425 8.83563 49.4102 9.04147 50.4403C9.24731 51.4704 9.7554 52.4165 10.5015 53.1592C11.2475 53.9018 12.1981 54.4075 13.2329 54.6124C14.2678 54.8173 15.3404 54.7121 16.3152 54.3102C17.29 53.9083 18.1232 53.2277 18.7094 52.3545C19.2955 51.4812 19.6084 50.4546 19.6084 49.4043C19.6073 47.9964 19.0449 46.6464 18.0447 45.6508C17.0445 44.6552 15.6882 44.0953 14.2737 44.0942Z" fill="white"/>
<path d="M29.4733 36.2861C28.4177 36.2837 27.385 36.593 26.5061 37.1749C25.6271 37.7569 24.9414 38.5854 24.5357 39.5554C24.13 40.5255 24.0225 41.5936 24.2269 42.6245C24.4314 43.6554 24.9384 44.6027 25.684 45.3466C26.4296 46.0905 27.3801 46.5975 28.4153 46.8034C29.4505 47.0093 30.5238 46.9049 31.4993 46.5033C32.4748 46.1018 33.3087 45.4212 33.8955 44.5477C34.4822 43.6742 34.7954 42.647 34.7954 41.5962C34.7932 40.1908 34.2322 38.8433 33.2349 37.8483C32.2377 36.8533 30.8853 36.2917 29.4733 36.2861V36.2861Z" fill="white"/>
<path d="M44.8962 54.9365C43.8418 54.9365 42.8111 55.2475 41.9342 55.8303C41.0572 56.413 40.3735 57.2414 39.9692 58.2107C39.5649 59.18 39.4583 60.2468 39.6628 61.2764C39.8673 62.306 40.3737 63.2522 41.1181 63.9955C41.8625 64.7388 42.8115 65.2459 43.8452 65.4526C44.8789 65.6594 45.951 65.5567 46.9261 65.1573C47.9012 64.758 48.7355 64.08 49.3237 63.2089C49.9119 62.3379 50.2276 61.3129 50.231 60.2634C50.2326 59.5648 50.0959 58.8727 49.8286 58.2268C49.5613 57.5809 49.1687 56.9937 48.6732 56.499C48.1777 56.0042 47.5891 55.6116 46.941 55.3435C46.2929 55.0754 45.5981 54.9371 44.8962 54.9365V54.9365Z" fill="white"/>
<path fill-rule="evenodd" clip-rule="evenodd" d="M24.6991 39.2156C25.0492 38.5241 25.5471 37.9173 26.1578 37.4378C26.7686 36.9583 27.4774 36.6176 28.2345 36.4397C28.9915 36.2618 29.7786 36.251 30.5403 36.408C31.302 36.5651 32.02 36.8861 32.6438 37.3487C33.2676 37.8113 33.7821 38.4042 34.1513 39.0858C34.5204 39.7673 34.7352 40.5211 34.7806 41.294C34.826 42.067 34.7009 42.8405 34.414 43.5603C34.1272 44.28 33.6855 44.9285 33.1201 45.4603C35.4813 46.2034 37.5597 47.6436 39.0795 49.5898C40.5992 51.536 41.4886 53.8961 41.6296 56.3571C41.8594 56.1583 42.1075 55.9815 42.3706 55.829V21.7052C42.3729 21.1142 42.1397 20.5464 41.7223 20.1262C41.3048 19.7059 40.737 19.4674 40.1433 19.463C36.9331 19.4522 33.7623 20.1667 30.8698 21.5526C27.9772 22.9385 25.4383 24.9596 23.4443 27.4638C24.2824 29.8306 24.7095 32.3222 24.7075 34.8317L24.6991 39.2156Z" fill="#D0E398"/>
<path fill-rule="evenodd" clip-rule="evenodd" d="M5.84851 35.955V31.9231H20.7159C21.438 30.3309 22.3544 28.8332 23.4443 27.4638C23.4443 27.4135 23.4064 27.3674 23.3895 27.3171V27.4303H5.84851V24.7731C5.84851 24.4108 5.99313 24.0633 6.25054 23.807C6.50796 23.5508 6.8571 23.4069 7.22114 23.4069H21.5369C19.5507 20.0803 16.7283 17.3261 13.3476 15.4154C9.96692 13.5047 6.14457 12.5034 2.25694 12.51C1.95799 12.5122 1.66242 12.5731 1.38713 12.6891C1.11184 12.8051 0.86224 12.9741 0.652616 13.1862C0.442993 13.3984 0.27746 13.6496 0.165493 13.9255C0.0535258 14.2014 -0.00267813 14.4966 9.80474e-05 14.7942V56.9774C0.000722888 60.3926 0.717779 63.7701 2.10536 66.8935V65.2171C2.11035 62.5823 2.9754 60.0204 4.57018 57.9175C6.16497 55.8145 8.40311 54.2843 10.9474 53.5575C10.3388 53.072 9.84454 52.4595 9.49962 51.7632C9.1547 51.0669 8.96749 50.3037 8.95122 49.5275C8.93494 48.7513 9.08999 47.9811 9.40542 47.271C9.72085 46.561 10.189 45.9285 10.7768 45.4182C11.3646 44.9079 12.0577 44.5322 12.8073 44.3176C13.5569 44.103 14.3446 44.0548 15.115 44.1763C15.8853 44.2978 16.6195 44.5861 17.2657 45.0209C17.9119 45.4557 18.4543 46.0263 18.8548 46.6925V40.6154C18.8538 39.0479 19.0261 37.485 19.3685 35.955H5.84851Z" fill="#D0E398"/>
<path fill-rule="evenodd" clip-rule="evenodd" d="M19.2505 73.1931V57.0281C19.2505 56.8018 19.2505 56.5796 19.2758 56.3575C17.7514 55.4942 16.0275 55.0407 14.2737 55.0415C11.5685 55.0493 8.97634 56.1227 7.06385 58.0271C5.15136 59.9315 4.07405 62.5121 4.06738 65.2049V73.1931C4.06738 75.1972 4.86721 77.1192 6.2909 78.5363C7.7146 79.9535 9.64554 80.7496 11.659 80.7496C13.6724 80.7496 15.6033 79.9535 17.027 78.5363C18.4507 77.1192 19.2505 75.1972 19.2505 73.1931V73.1931Z" fill="#7E5DA7"/>
<path fill-rule="evenodd" clip-rule="evenodd" d="M14.2742 52.7487C14.9404 52.7487 15.5916 52.5521 16.1456 52.1836C16.6995 51.8152 17.1312 51.2916 17.3862 50.6789C17.6411 50.0663 17.7078 49.3921 17.5779 48.7417C17.4479 48.0913 17.1271 47.4939 16.656 47.025C16.1849 46.5561 15.5847 46.2368 14.9313 46.1074C14.2779 45.978 13.6006 46.0444 12.9851 46.2982C12.3696 46.552 11.8436 46.9817 11.4734 47.5331C11.1033 48.0845 10.9058 48.7327 10.9058 49.3958C10.9058 50.2851 11.2606 51.1379 11.8923 51.7667C12.524 52.3955 13.3808 52.7487 14.2742 52.7487Z" fill="#7E5DA7"/>
<path fill-rule="evenodd" clip-rule="evenodd" d="M29.4733 46.8518C26.8845 46.8595 24.3947 47.8429 22.505 49.6042C20.6152 51.3655 19.4658 53.7738 19.2881 56.3446C20.864 57.2296 22.176 58.5147 23.0902 60.0689C24.0044 61.6232 24.4882 63.3909 24.4923 65.192V75.7828C24.53 77.0723 25.0711 78.2964 26.0007 79.1952C26.9303 80.094 28.1753 80.5968 29.4712 80.5968C30.7672 80.5968 32.0122 80.094 32.9418 79.1952C33.8714 78.2964 34.4125 77.0723 34.4502 75.7828V75.6194C34.4554 73.8139 34.9423 72.0422 35.8611 70.4855C36.78 68.9287 38.0977 67.6429 39.6796 66.7594V57.0278C39.6752 54.3332 38.599 51.75 36.6864 49.8431C34.7738 47.9362 32.1804 46.8607 29.4733 46.8518V46.8518Z" fill="#FFCC32"/>
<path fill-rule="evenodd" clip-rule="evenodd" d="M26.105 41.5963C26.105 42.2594 26.3025 42.9077 26.6727 43.459C27.0428 44.0104 27.5689 44.4401 28.1844 44.6939C28.7999 44.9477 29.4771 45.0141 30.1305 44.8847C30.784 44.7553 31.3841 44.436 31.8552 43.9671C32.3263 43.4982 32.6471 42.9008 32.7771 42.2504C32.9071 41.6 32.8404 40.9258 32.5854 40.3132C32.3305 39.7005 31.8987 39.1769 31.3448 38.8085C30.7909 38.4401 30.1396 38.2434 29.4734 38.2434C28.58 38.2434 27.7233 38.5967 27.0916 39.2254C26.4599 39.8542 26.105 40.707 26.105 41.5963Z" fill="#FFCC32"/>
<path fill-rule="evenodd" clip-rule="evenodd" d="M44.8963 56.9106C44.23 56.9106 43.5788 57.1073 43.0249 57.4757C42.4709 57.8441 42.0392 58.3678 41.7842 58.9804C41.5293 59.5931 41.4626 60.2672 41.5926 60.9176C41.7225 61.568 42.0433 62.1654 42.5144 62.6343C42.9855 63.1032 43.5857 63.4226 44.2391 63.5519C44.8925 63.6813 45.5698 63.6149 46.1853 63.3612C46.8008 63.1074 47.3269 62.6776 47.697 62.1263C48.0671 61.5749 48.2647 60.9266 48.2647 60.2635C48.2647 59.3743 47.9098 58.5215 47.2781 57.8927C46.6464 57.2639 45.7896 56.9106 44.8963 56.9106Z" fill="#74B743"/>
<path fill-rule="evenodd" clip-rule="evenodd" d="M49.6254 66.7721C48.1055 65.9202 46.3907 65.4727 44.6464 65.4727C42.9022 65.4727 41.1873 65.9202 39.6675 66.7721V75.7955C39.7052 77.085 40.2462 78.309 41.1759 79.2078C42.1055 80.1066 43.3504 80.6094 44.6464 80.6094C45.9424 80.6094 47.1874 80.1066 48.117 79.2078C49.0466 78.309 49.5877 77.085 49.6254 75.7955V66.7721Z" fill="#74B743"/>
<path fill-rule="evenodd" clip-rule="evenodd" d="M75.2669 56.9106C74.6006 56.9106 73.9494 57.1073 73.3955 57.4757C72.8415 57.8441 72.4098 58.3678 72.1548 58.9804C71.8999 59.5931 71.8332 60.2672 71.9632 60.9176C72.0931 61.568 72.4139 62.1654 72.885 62.6343C73.3561 63.1032 73.9563 63.4226 74.6097 63.5519C75.2631 63.6813 75.9404 63.6149 76.5559 63.3612C77.1714 63.1074 77.6975 62.6776 78.0676 62.1263C78.4377 61.5749 78.6353 60.9266 78.6353 60.2635C78.6353 59.3743 78.2804 58.5215 77.6487 57.8927C77.017 57.2639 76.1602 56.9106 75.2669 56.9106Z" fill="#7E5DA7"/>
<path fill-rule="evenodd" clip-rule="evenodd" d="M79.9998 70.4435C79.9954 69.1288 79.4696 67.8689 78.5368 66.9381C77.604 66.0072 76.3396 65.4806 75.0188 65.4729C73.2781 65.4703 71.5664 65.9165 70.0504 66.768C70.0504 66.768 70.0504 66.768 70.0504 66.768V75.6028C70.0306 76.927 70.5317 78.2064 71.4466 79.168C72.3615 80.1295 73.6177 80.6971 74.9472 80.7494C75.6071 80.7594 76.2624 80.6387 76.875 80.3942C77.4876 80.1497 78.0453 79.7864 78.5155 79.3254C78.9857 78.8644 79.359 78.3149 79.6139 77.7089C79.8687 77.1029 79.9999 76.4525 79.9998 75.7955V70.4435Z" fill="#7E5DA7"/>
<path fill-rule="evenodd" clip-rule="evenodd" d="M70.0422 65.2049V66.7556C70.0444 66.7594 70.0456 66.7638 70.0456 66.7682C70.0456 66.7726 70.0444 66.7769 70.0422 66.7808C68.4641 67.665 67.1501 68.9503 66.2343 70.5054C65.3185 72.0605 64.8337 73.8297 64.8296 75.6323V78.3482C64.8353 78.9745 64.5927 79.5779 64.1545 80.0274C63.7163 80.4769 63.1177 80.7364 62.4885 80.7497H62.4633C60.9097 80.7494 59.3936 80.2752 58.119 79.3909C56.8445 78.5067 55.8728 77.2549 55.3349 75.8042L55.3096 75.7287C55.2083 75.448 55.1253 75.161 55.0612 74.8696L54.6065 73.3356C54.28 71.9627 53.672 70.6718 52.8207 69.5438C51.9693 68.4158 50.8929 67.4751 49.6591 66.7808C49.6572 66.7768 49.6563 66.7725 49.6562 66.7682C49.6563 66.7638 49.6572 66.7596 49.6591 66.7556V65.4983C49.6591 59.526 54.5686 54.6769 60.5559 55.0793C63.1275 55.2682 65.5327 56.4158 67.2913 58.2929C69.0499 60.1699 70.0322 62.6383 70.0422 65.2049Z" fill="#FFCC32"/>
<path fill-rule="evenodd" clip-rule="evenodd" d="M56.4707 49.4041C56.4707 50.0673 56.6683 50.7155 57.0384 51.2669C57.4085 51.8183 57.9346 52.248 58.5501 52.5018C59.1656 52.7555 59.8429 52.8219 60.4963 52.6926C61.1497 52.5632 61.7499 52.2439 62.2209 51.775C62.692 51.3061 63.0128 50.7086 63.1428 50.0582C63.2728 49.4079 63.2061 48.7337 62.9511 48.121C62.6962 47.5084 62.2644 46.9847 61.7105 46.6163C61.1566 46.2479 60.5053 46.0513 59.8391 46.0513C58.9458 46.0513 58.089 46.4045 57.4573 47.0333C56.8256 47.6621 56.4707 48.5149 56.4707 49.4041Z" fill="#FFCC32"/>
</svg>
