<svg width="17" height="17" viewBox="0 0 17 17" fill="none" xmlns="http://www.w3.org/2000/svg">
<path d="M1.82129 6.14713L8.28979 9.51131C8.35467 9.54505 8.42673 9.56266 8.49986 9.56266C8.57299 9.56266 8.64505 9.54505 8.70993 9.51131L15.1784 6.14774V11.9915C15.1785 12.4955 14.9856 12.9804 14.6395 13.3468C14.2933 13.7131 13.8201 13.9331 13.3169 13.9617L13.2052 13.9647H3.7945C3.29049 13.9647 2.80557 13.7719 2.43922 13.4258C2.07287 13.0796 1.85286 12.6064 1.82432 12.1032L1.82129 11.9915V6.14713ZM3.7945 3.03613H13.2052C13.7092 3.0361 14.1941 3.22893 14.5605 3.57508C14.9269 3.92122 15.1469 4.39443 15.1754 4.89763L15.1784 5.00935V5.12106L8.49986 8.59392L1.82129 5.12106V5.00935C1.82126 4.50533 2.01409 4.02042 2.36023 3.65406C2.70638 3.28771 3.17959 3.0677 3.68279 3.03917L3.7945 3.03613H13.2052H3.7945Z" fill="#9B80B9"/>
</svg>
