<svg width="178" height="152" viewBox="0 0 178 152" fill="none" xmlns="http://www.w3.org/2000/svg">
<path d="M165.92 111.634L165.546 111.978C165.271 111.683 164.993 111.375 164.717 111.122L165.082 110.766C165.361 111.039 165.677 111.327 165.92 111.634ZM162.482 108.501L162.181 108.909C161.458 108.378 160.699 107.897 159.909 107.47L160.148 107.024C160.954 107.458 161.726 107.953 162.455 108.506L162.482 108.501ZM156.938 105.736L156.796 106.229C155.935 105.987 155.054 105.821 154.164 105.733L154.213 105.22C155.134 105.315 156.046 105.487 156.938 105.736ZM150.761 105.181L150.794 105.687C149.953 105.747 149.069 105.847 148.078 106.007L147.997 105.501C149.008 105.338 149.905 105.236 150.761 105.181ZM144.77 106.643C144.102 106.792 143.434 106.941 142.767 107.097L142.099 107.246L141.984 106.745L142.652 106.596C143.319 106.441 143.987 106.292 144.654 106.143L144.77 106.643ZM138.754 107.957C138.208 108.045 137.669 108.131 137.122 108.219C136.765 108.277 136.401 108.335 136.043 108.393L135.962 107.887C136.319 107.83 136.677 107.772 137.034 107.715C137.574 107.628 138.113 107.541 138.646 107.456L138.754 107.957ZM132.566 108.192L132.578 108.702C131.653 108.732 130.726 108.713 129.802 108.644L129.844 108.132C130.761 108.199 131.681 108.217 132.599 108.187L132.566 108.192ZM125.529 80.6755C125.571 80.9346 125.597 81.196 125.607 81.4583L125.099 81.4847C125.087 81.2409 125.062 80.998 125.023 80.7569C124.924 80.1381 124.725 79.5395 124.434 78.9848L124.886 78.746C125.206 79.349 125.424 80.0011 125.529 80.6755ZM124.932 84.9206C124.526 85.7609 124.021 86.55 123.429 87.2716L123.031 86.9484C123.599 86.2613 124.082 85.5079 124.469 84.7048L124.932 84.9206ZM122.383 76.2999L122.152 76.7588C121.372 76.3692 120.507 76.1804 119.635 76.2096L119.616 75.701C120.581 75.6541 121.542 75.8489 122.412 76.2675L122.383 76.2999ZM126.529 107.656L126.415 108.151C125.517 107.945 124.634 107.681 123.77 107.36L123.949 106.882C124.803 107.182 125.674 107.43 126.559 107.624L126.529 107.656ZM121.033 89.7524C120.366 90.3369 119.643 90.9166 118.876 91.4826L118.574 91.0679C119.307 90.5412 120.013 89.9776 120.689 89.379L121.033 89.7524ZM116.598 77.1963C115.866 77.6921 115.219 78.3029 114.682 79.0052L114.278 78.6898C114.848 77.944 115.536 77.2961 116.315 76.7716L116.598 77.1963ZM120.946 105.422L120.686 105.865C119.89 105.396 119.13 104.868 118.412 104.288L118.735 103.89C119.433 104.456 120.172 104.968 120.946 105.422ZM116.01 93.3199C115.225 93.7713 114.402 94.2011 113.565 94.5916L113.345 94.1291C114.168 93.7408 114.979 93.3198 115.752 92.8774L116.01 93.3199ZM116.327 101.567L115.938 101.899C115.337 101.201 114.787 100.46 114.294 99.6813L114.727 99.4042C115.207 100.146 115.74 100.853 116.32 101.52L116.327 101.567ZM113.054 81.9572C112.949 82.2091 112.852 82.4668 112.751 82.6974C112.548 83.2833 112.375 83.8851 112.23 84.4893L111.733 84.3687C111.882 83.75 112.06 83.1336 112.268 82.5331L112.574 81.7301L113.054 81.9572ZM113.181 96.4168L112.707 96.6106C112.359 95.7556 112.07 94.878 111.841 93.9839L112.333 93.8564C112.559 94.7112 112.84 95.5507 113.173 96.3696L113.181 96.4168ZM111.747 87.8516C111.695 88.7485 111.706 89.6479 111.779 90.5433L111.267 90.5843C111.195 89.6656 111.185 88.7431 111.237 87.823L111.747 87.8516ZM110.4 95.9447C109.551 96.261 108.67 96.548 107.77 96.8034L107.629 96.3144C108.496 96.0644 109.363 95.7796 110.205 95.4643L110.4 95.9447ZM104.439 97.5955C104.021 97.6628 103.602 97.73 103.178 97.7984C102.753 97.8668 102.213 97.9536 101.721 98.0328L101.64 97.5273C102.125 97.4492 102.604 97.3721 103.076 97.2961C103.548 97.2202 103.905 97.1627 104.317 97.0964L104.439 97.5955ZM98.2828 97.7771L98.2956 98.2867C97.3802 98.3165 96.4516 98.3069 95.5254 98.2693L95.5474 97.7609C96.4603 97.7592 97.3744 97.7642 98.2841 97.7423L98.2828 97.7771ZM92.1915 97.4574L92.1212 97.9666C91.2157 97.8426 90.3048 97.6849 89.4097 97.4971L89.5159 96.9959C90.3977 97.1444 91.3008 97.2964 92.1793 97.4247L92.1915 97.4574ZM86.2373 96.1406L86.0885 96.6347C85.2141 96.3605 84.3354 96.0594 83.4872 95.7326L83.673 95.2532C84.5158 95.5463 85.3731 95.844 86.2386 96.1058L86.2373 96.1406ZM80.5634 93.9004L80.3395 94.3583C79.5299 93.9699 78.7126 93.5345 77.9066 93.0833L78.1596 92.6346C78.9601 93.052 79.782 93.473 80.5377 93.87L80.5634 93.9004ZM75.3018 90.8264L75.0019 91.2411C74.2671 90.7163 73.5371 90.1353 72.8421 89.5142L73.1812 89.1277C73.8602 89.7175 74.5684 90.2728 75.3031 90.7916L75.3018 90.8264ZM70.7803 86.7619L70.3999 87.1067C69.7939 86.4366 69.2084 85.7218 68.6747 84.9848L69.0808 84.6705C69.6026 85.3334 70.1846 86.0695 70.7816 86.7271L70.7803 86.7619ZM67.1381 81.8852L66.7043 82.1556C66.2291 81.3953 65.7609 80.5925 65.3377 79.7685L65.7905 79.5297C66.2195 80.3043 66.6721 81.0958 67.1395 81.8504L67.1381 81.8852ZM64.3165 76.4754L63.8505 76.6748C63.4902 75.8546 63.1447 74.9974 62.8251 74.1292L63.3022 73.9556C63.6277 74.7745 63.9653 75.626 64.3178 76.4406L64.3165 76.4754ZM62.2155 70.7283L61.7273 70.876C61.4649 70.0193 61.2183 69.1323 60.9832 68.2298L61.4813 68.1012C61.71 68.9633 61.9555 69.8435 62.2168 70.6935L62.2155 70.7283ZM59.6092 56.0384C59.6092 56.0384 59.636 57.0644 59.8138 58.7715L59.3026 58.8192C59.1269 57.1256 59.098 56.0861 59.098 56.0861L59.6092 56.0384ZM60.7275 64.7926L60.2217 64.874C60.0883 64.045 59.9066 63.2167 59.7731 62.3877L59.7384 62.172L60.2442 62.0906L60.2778 62.2995C60.4158 63.114 60.5738 63.9668 60.7288 64.7578L60.7275 64.7926Z" fill="#8CC63E"/>
<path d="M66.6989 28.03C72.3652 21.0229 73.1358 15.2007 74.2691 12.8877C75.7707 9.80933 82.4286 8.27299 86.8993 5.51778C90.1065 3.5846 93.5856 -0.740964 94.3506 0.109409C94.7529 0.562942 93.1266 3.15941 93.1266 3.15941C93.1266 3.15941 94.1069 4.57103 91.3757 6.82736C91.3757 6.82736 91.8007 9.39548 88.5142 11.1586C88.5142 11.1586 89.5342 13.0464 87.1713 14.7812C87.1713 14.7812 88.0609 16.7257 84.7575 17.9786C84.7575 17.9786 85.4318 20.422 82.7006 21.5331C82.6851 21.933 82.587 22.3253 82.4124 22.6854C82.2378 23.0454 81.9906 23.3654 81.6863 23.6251C79.7258 25.5639 74.2804 27.1116 70.5123 30.5698C67.7868 33.0642 68.0305 35.638 67.5262 35.7514C67.2173 35.8411 66.8856 35.8051 66.6032 35.6511C66.3209 35.4971 66.1108 35.2377 66.0189 34.9294C66.0189 34.9294 65.9792 28.9144 66.6989 28.03Z" fill="#6EAA1D"/>
<path d="M67.2254 29.8394C67.255 29.4732 67.3272 29.1117 67.4407 28.7623C67.5618 28.4595 67.7365 28.1811 67.9563 27.9403C68.4153 27.4187 68.9593 26.9652 69.4352 26.455C71.3529 24.3935 72.8384 21.9685 73.804 19.3232C74.2856 17.9796 74.5633 16.5679 75.1129 15.247C75.6187 14.0056 76.4389 12.9173 77.4928 12.0893C78.5463 11.3044 79.6871 10.6442 80.8926 10.1221C82.1731 9.55521 83.4651 8.98829 84.706 8.30232C87.3445 6.8442 89.7619 5.01738 91.8852 2.87694C92.1459 2.61049 92.4065 2.34971 92.6615 2.07192C92.6898 2.03791 92.7352 2.07192 92.7069 2.11728C91.7327 3.25068 90.6718 4.30644 89.5337 5.27499C88.3868 6.23254 87.1709 7.10417 85.8959 7.88281C84.6641 8.61567 83.3887 9.27262 82.0768 9.85C80.8426 10.3734 79.6461 10.9814 78.4957 11.6698C77.3661 12.3512 76.4206 13.2992 75.7419 14.4307C75.0336 15.6892 74.7389 17.1179 74.3139 18.4785C73.4851 21.1125 72.1577 23.5626 70.4042 25.6953C69.9622 26.2282 69.4919 26.7441 68.9989 27.2316C68.4452 27.6647 67.9911 28.2119 67.6673 28.836C67.5517 29.2051 67.4738 29.585 67.435 29.9698C67.3727 30.3893 67.316 30.8032 67.2537 31.2227C67.129 32.0391 67.0214 32.8611 66.8797 33.6718C66.8061 34.0856 66.7381 34.4995 66.6587 34.9133C66.6587 34.9133 66.6191 34.9133 66.6247 34.9133C66.7664 33.2183 67.0044 31.5288 67.2254 29.8394Z" fill="#6EAA1D"/>
<path d="M78.3259 12.7345C80.0995 12.1279 81.873 11.5156 83.6126 10.8127C85.3343 10.1421 87.0079 9.35416 88.6216 8.4543C89.5442 7.94128 90.4269 7.35949 91.2622 6.71387C91.2622 6.71387 91.3018 6.71387 91.2622 6.71387C90.5587 7.30341 89.8208 7.85051 89.0523 8.35225C88.2515 8.85114 87.4317 9.30656 86.5931 9.71852C84.8939 10.5164 83.1451 11.2038 81.3574 11.7764C80.3545 12.1166 79.3459 12.4397 78.3373 12.7572L78.3259 12.7345Z" fill="#6EAA1D"/>
<path d="M76.207 15.6656C77.6448 14.8344 79.1637 14.1524 80.7401 13.6303C82.3153 13.0634 83.9246 12.6326 85.4998 12.0883C86.408 11.7936 87.3007 11.4531 88.1743 11.0679C88.1743 11.0679 88.2083 11.0679 88.1743 11.0679C87.4321 11.425 86.6784 11.7595 85.9078 12.0486C85.1372 12.3378 84.3269 12.6155 83.5279 12.865C81.9357 13.3752 80.3321 13.8628 78.7682 14.4637C77.8915 14.8027 77.0411 15.2063 76.224 15.6712C76.224 15.6712 76.19 15.6769 76.207 15.6656Z" fill="#6EAA1D"/>
<path d="M74.6428 19.3276C75.9524 18.3341 77.3992 17.5359 78.9378 16.9579C80.5501 16.3662 82.211 15.9166 83.9016 15.6143C84.8818 15.4216 85.8678 15.2685 86.8594 15.1211V15.1494C85.1595 15.4953 83.4596 15.8241 81.7597 16.2833C80.1399 16.6946 78.5602 17.2506 77.0396 17.9443C76.201 18.3372 75.4022 18.8099 74.6541 19.356C74.6541 19.356 74.6371 19.3276 74.6428 19.3276Z" fill="#6EAA1D"/>
<path d="M73.6004 21.2212C74.235 20.8187 74.8753 20.4162 75.5269 20.0364C76.165 19.6478 76.8317 19.3085 77.5215 19.0216C78.2093 18.7567 78.9236 18.5667 79.652 18.4547C80.4226 18.3299 81.2046 18.2676 81.9809 18.1882C82.8591 18.0975 83.7374 18.0181 84.6157 17.9331L82.2925 18.2506C81.5389 18.3526 80.7796 18.4377 80.026 18.551C79.2848 18.6571 78.5547 18.8298 77.8445 19.0669C77.132 19.3232 76.4356 19.6223 75.7592 19.9627C75.017 20.3255 74.3087 20.7734 73.6004 21.2042C73.6004 21.2382 73.5947 21.2269 73.6004 21.2212Z" fill="#6EAA1D"/>
<path d="M70.7669 25.9211C71.4979 25.4903 72.2232 25.0537 72.9314 24.5889C73.6397 24.124 74.3084 23.6138 75.0337 23.1942C76.4669 22.3905 78.0399 21.8672 79.6687 21.6522C80.5828 21.5228 81.505 21.4584 82.4282 21.4595C80.7926 21.5691 79.1728 21.8483 77.5948 22.2929C76.8119 22.5215 76.0529 22.8253 75.3283 23.1999C74.5917 23.5854 73.9117 24.0673 73.2148 24.5152C72.4271 25.0254 71.6169 25.5073 70.7839 25.9381C70.7669 25.9381 70.7613 25.9211 70.7669 25.9211Z" fill="#6EAA1D"/>
<path d="M71.3339 25.0197C72.2648 24.2145 73.2639 23.4918 74.32 22.8598C75.3878 22.2121 76.5292 21.6945 77.7198 21.3178C78.3828 21.108 79.0627 20.9379 79.7427 20.7905C79.7427 20.7905 79.7427 20.8189 79.7427 20.8245C78.5442 21.1225 77.3757 21.5305 76.2522 22.0434C75.1341 22.5199 74.0575 23.0888 73.0338 23.7442C72.4421 24.1369 71.8744 24.5647 71.3339 25.0254C71.3339 25.0254 71.3282 25.0254 71.3339 25.0197Z" fill="#6EAA1D"/>
<path d="M80.3148 14.5101C82.128 13.5119 84.2416 13.3758 86.2361 12.9901C86.8091 12.8843 87.3765 12.7499 87.936 12.5874C86.0095 13.319 83.913 13.3134 81.9411 13.8579C81.3728 14.0121 80.8221 14.2249 80.2978 14.4931C80.2978 14.4931 80.3092 14.5101 80.3148 14.5101Z" fill="#6EAA1D"/>
<path d="M77.4362 12.9897C79.6391 11.7208 81.9552 10.6598 84.3548 9.8206C85.0347 9.58816 85.7147 9.38408 86.3946 9.17432C86.3946 9.17432 86.423 9.17432 86.3946 9.20833C85.1707 9.58249 83.9694 10.0304 82.7795 10.5009C81.5896 10.9714 80.4676 11.459 79.34 12.0089C78.6941 12.3207 78.0651 12.6438 77.4362 12.9897C77.4305 12.9897 77.4362 13.001 77.4362 12.9897Z" fill="#6EAA1D"/>
<path d="M74.0709 20.4789C74.7704 19.9127 75.5306 19.426 76.3375 19.0276C77.1534 18.6327 78.0079 18.3231 78.8873 18.1035C78.8873 18.1035 78.9156 18.1035 78.8873 18.1375C77.1394 18.602 75.498 19.4009 74.0539 20.4902C74.0539 20.4902 74.0653 20.4846 74.0709 20.4789Z" fill="#6EAA1D"/>
<path d="M67.968 30.9551C68.7354 29.8388 69.6947 28.8676 70.8011 28.0865C71.9355 27.3005 73.1445 26.6283 74.4106 26.0796C75.1245 25.7621 75.8555 25.4673 76.5865 25.1782C76.5865 25.1782 76.6205 25.1782 76.5865 25.1782C75.3157 25.6902 74.0764 26.277 72.875 26.9357C71.6835 27.5763 70.5662 28.3463 69.5432 29.2317C68.9702 29.7418 68.4535 30.312 68.002 30.9324C68.002 30.9324 67.9566 30.9664 67.968 30.9551Z" fill="#6EAA1D"/>
<path d="M39.109 37.0664C30.2639 35.3203 25.9518 31.3406 23.6059 30.2634C20.4781 28.8632 14.3812 31.9642 9.1908 32.7012C5.46236 33.2681 0.028347 32.1853 1.90735e-05 33.3135C1.90735e-05 33.9257 2.88985 34.8725 2.88985 34.8725C2.88985 34.8725 3.04284 36.5732 6.57863 36.5732C6.57863 36.5732 7.89888 38.8409 11.5537 38.0699C11.5537 38.0699 11.9786 40.1731 14.9025 39.986C14.9025 39.986 15.4691 42.0553 18.8066 40.8988C18.8066 40.8988 19.8548 43.2118 22.6597 42.3104C22.9279 42.6074 23.2547 42.8459 23.6193 43.0107C23.984 43.1756 24.3787 43.2633 24.7789 43.2685C27.5214 43.5009 32.7117 41.2049 37.8114 41.443C41.4945 41.6188 42.9564 43.7447 43.4154 43.5123C43.71 43.3828 43.9418 43.1424 44.0605 42.8432C44.1793 42.544 44.1755 42.21 44.05 41.9136C44.05 41.9136 40.2309 37.2819 39.109 37.0664Z" fill="#6EAA1D"/>
<path d="M39.8625 38.7956C39.607 38.5328 39.3217 38.3007 39.0126 38.1039C38.7236 37.9483 38.4087 37.8464 38.0833 37.8035C37.3976 37.6957 36.6894 37.6957 35.9981 37.6107C33.2016 37.2545 30.5045 36.3428 28.0652 34.9292C26.8356 34.2092 25.7137 33.3021 24.4501 32.6615C23.2707 32.0357 21.9483 31.7289 20.614 31.7715C19.3041 31.8384 18.0068 32.061 16.7495 32.4348C15.384 32.7976 14.041 33.2001 12.6585 33.4779C9.69099 34.0488 6.65737 34.1938 3.649 33.9087C3.27502 33.8747 2.90672 33.8407 2.51574 33.7897C2.47041 33.7897 2.46474 33.8464 2.51574 33.8577C3.99009 34.1014 5.48088 34.2322 6.97514 34.2489C8.46783 34.2481 9.9584 34.1363 11.4345 33.9144C12.8498 33.69 14.2501 33.3795 15.6276 32.9847C16.9098 32.5933 18.2183 32.2939 19.543 32.0889C20.846 31.8837 22.1795 32.0045 23.4245 32.4404C24.7731 32.9563 25.912 33.8634 27.1133 34.6344C29.4358 36.129 32.0258 37.159 34.7401 37.6674C35.4201 37.7978 36.1114 37.8885 36.797 37.9509C37.5016 37.9254 38.2034 38.0531 38.8539 38.325C39.1807 38.5388 39.4845 38.7857 39.7605 39.062L40.7351 39.867C41.3528 40.4339 41.9591 41.0009 42.588 41.5111L43.5513 42.3218C43.5513 42.3218 43.5853 42.3218 43.5513 42.3218C42.3784 41.0972 41.1148 39.9521 39.8625 38.7956Z" fill="#6EAA1D"/>
<path d="M20.3877 32.7696C18.6368 33.4386 16.886 34.1076 15.0954 34.6801C13.3452 35.2707 11.5559 35.7386 9.74071 36.0804C8.70442 36.2758 7.65524 36.3952 6.60156 36.4376C7.52248 36.4272 8.44201 36.3628 9.35541 36.2448C10.2847 36.1144 11.2083 35.9387 12.1206 35.7176C13.9366 35.2433 15.7196 34.6505 17.4582 33.9432C18.4442 33.5577 19.4245 33.1665 20.4047 32.7583C20.4104 32.781 20.3991 32.764 20.3877 32.7696Z" fill="#6EAA1D"/>
<path d="M23.8892 33.6652C22.256 33.9464 20.6555 34.3928 19.1125 34.9974C17.5485 35.5643 16.03 36.273 14.4661 36.8626C13.5764 37.2027 12.6812 37.5372 11.7576 37.7923C11.7576 37.7923 11.7576 37.8263 11.7576 37.7923C12.5622 37.5939 13.3555 37.3671 14.1317 37.095C14.908 36.8229 15.7013 36.5281 16.4833 36.1936C18.0302 35.57 19.5771 34.9124 21.1637 34.3738C22.0534 34.0719 22.9644 33.8369 23.8892 33.6708C23.8892 33.6708 23.8892 33.6595 23.8892 33.6652Z" fill="#6EAA1D"/>
<path d="M24.7395 33.722C24.7395 33.722 24.7395 33.7561 24.7395 33.722C24.7395 33.688 24.7565 33.7164 24.7395 33.722Z" fill="#6EAA1D"/>
<path d="M27.4366 35.4736C25.7947 35.5494 24.1724 35.8626 22.6202 36.4034C21.0029 36.9833 19.4389 37.7022 17.9455 38.552C17.0729 39.0339 16.2173 39.5498 15.3616 40.0656C15.3616 40.0656 15.3616 40.1053 15.3616 40.094C16.8916 39.2663 18.4215 38.3932 19.9967 37.6733C21.5039 36.9519 23.072 36.3657 24.6827 35.9215C25.579 35.6889 26.4955 35.5427 27.4196 35.485C27.4196 35.485 27.4423 35.4736 27.4366 35.4736Z" fill="#6EAA1D"/>
<path d="M29.4485 36.2612C28.7063 36.3576 27.9583 36.454 27.216 36.5844C26.4751 36.6935 25.7438 36.8603 25.0288 37.0833C24.3309 37.321 23.6603 37.6327 23.0286 38.013C22.36 38.4155 21.7197 38.8634 21.0737 39.2942C20.3371 39.7874 19.6118 40.292 18.8808 40.7909C18.8808 40.7909 18.8808 40.8306 18.8808 40.8192L20.8697 39.572C21.51 39.1638 22.1503 38.75 22.8019 38.3531C23.4379 37.957 24.1095 37.6211 24.8078 37.3497C25.5196 37.0897 26.2462 36.872 26.9837 36.6978C27.7883 36.505 28.6156 36.3973 29.4372 36.2726C29.4599 36.2726 29.4542 36.2612 29.4485 36.2612Z" fill="#6EAA1D"/>
<path d="M34.6558 38.053C33.8171 38.1948 32.9842 38.3195 32.1456 38.4159C31.307 38.5122 30.4457 38.5519 29.6297 38.6936C28.0202 38.9993 26.4824 39.6051 25.0967 40.4794C24.3125 40.963 23.5644 41.503 22.8585 42.0951C22.8585 42.0951 22.8585 42.1292 22.8585 42.0951C24.1745 41.1229 25.5895 40.2925 27.0799 39.6177C27.8273 39.2884 28.6055 39.034 29.4031 38.8581C30.219 38.6823 31.0463 38.6143 31.8736 38.5122C32.8029 38.3989 33.7321 38.2515 34.6501 38.0474C34.6558 38.0644 34.6558 38.053 34.6558 38.053Z" fill="#6EAA1D"/>
<path d="M33.6245 37.7242C32.3883 37.6975 31.1521 37.7791 29.9301 37.9681C28.7036 38.152 27.5033 38.4813 26.3546 38.9493C25.7056 39.2206 25.0719 39.5273 24.4564 39.8681C24.4564 39.8681 24.4564 39.9021 24.4564 39.8681C25.5703 39.33 26.7311 38.8953 27.9242 38.5693C29.0913 38.2224 30.2854 37.9738 31.494 37.8263C32.194 37.7516 32.8979 37.7194 33.6019 37.7299L33.6245 37.7242Z" fill="#6EAA1D"/>
<path d="M19.9969 35.4053C17.9627 35.8021 16.2402 37.0267 14.4723 38.0301C13.9637 38.3209 13.4397 38.584 12.9027 38.8181C12.9027 38.8181 12.9027 38.8521 12.9027 38.8181C14.8576 38.1491 16.4612 36.7999 18.331 35.9835C18.8626 35.7357 19.4192 35.5457 19.9913 35.4166C19.9913 35.4166 20.0026 35.4053 19.9969 35.4053Z" fill="#6EAA1D"/>
<path d="M21.2319 32.3954C18.7316 32.8388 16.2773 33.5105 13.8996 34.4023C13.231 34.6574 12.5737 34.9352 11.9221 35.213C11.9221 35.213 11.9221 35.2527 11.9221 35.213C13.1007 34.7198 14.3133 34.2946 15.5315 33.8921C16.7498 33.4896 17.9227 33.1438 19.1353 32.8433C19.8266 32.6732 20.5236 32.5145 21.2262 32.3784C21.2432 32.4068 21.2432 32.3954 21.2319 32.3954Z" fill="#6EAA1D"/>
<path d="M28.6153 35.9897C27.7102 36.008 26.8097 36.124 25.9295 36.3356C25.0499 36.5572 24.1954 36.8689 23.3796 37.2658C23.3796 37.2658 23.3796 37.2998 23.3796 37.2658C25.0202 36.5035 26.792 36.0645 28.5983 35.9727C28.5983 35.9727 28.621 35.9897 28.6153 35.9897Z" fill="#6EAA1D"/>
<path d="M40.0044 40.1279C38.7068 39.7595 37.3545 39.6232 36.0096 39.7252C34.6367 39.8456 33.2794 40.104 31.9582 40.4966C31.1989 40.7121 30.451 40.956 29.6917 41.1998C29.6917 41.1998 29.6917 41.2339 29.6917 41.2282C30.993 40.8099 32.3173 40.4672 33.6581 40.2016C34.9854 39.9316 36.3383 39.808 37.6925 39.833C38.4577 39.8559 39.2179 39.9643 39.959 40.1563C39.959 40.1563 40.0214 40.1336 40.0044 40.1279Z" fill="#6EAA1D"/>
<path d="M47.0022 62.9125L76.4048 53.7398L64.6358 15.9775L42.8035 22.7862L37.4771 32.3444L47.0022 62.9125Z" fill="#8CC63E"/>
<path opacity="0.4" d="M47.0022 62.9125L76.4048 53.7398L64.6358 15.9775L42.8035 22.7862L37.4771 32.3444L47.0022 62.9125Z" fill="white"/>
<path d="M42.804 22.7861L37.4777 32.3443L45.0479 29.9803L42.804 22.7861Z" fill="#8CC63E"/>
<path d="M64.0563 24.1913L47.7075 29.2891L47.4056 28.3199L63.7543 23.2221L64.0563 24.1913Z" fill="white"/>
<path d="M64.818 26.6366L48.4692 31.7344L48.1673 30.7652L64.5161 25.6674L64.818 26.6366Z" fill="white"/>
<path d="M65.5826 29.0898L49.2339 34.1875L48.932 33.2183L65.2807 28.1206L65.5826 29.0898Z" fill="white"/>
<path d="M66.3486 31.5393L42.3936 39.0088L42.0916 38.0396L66.0467 30.5701L66.3486 31.5393Z" fill="white"/>
<path d="M67.0895 33.9541L43.1357 41.4277L42.8337 40.4586L66.7874 32.9849L67.0895 33.9541Z" fill="white"/>
<path d="M67.8735 36.427L43.9185 43.8965L43.6165 42.9273L67.5716 35.4578L67.8735 36.427Z" fill="white"/>
<path d="M67.4639 38.6499L43.627 46.1812L43.3225 45.2167L67.1595 37.6855L67.4639 38.6499Z" fill="white"/>
<path d="M68.2202 41.1163L44.3833 48.6475L44.0789 47.683L67.9158 40.1518L68.2202 41.1163Z" fill="white"/>
<path d="M70.1621 43.7737L46.207 51.2432L45.9051 50.274L69.8602 42.8045L70.1621 43.7737Z" fill="white"/>
<path d="M70.9248 46.2209L46.9697 53.6904L46.6678 52.7212L70.6229 45.2517L70.9248 46.2209Z" fill="white"/>
<path d="M71.6632 48.6357L47.7095 56.1094L47.4074 55.1402L71.3612 47.6666L71.6632 48.6357Z" fill="white"/>
<path d="M72.4274 51.083L48.4736 58.5566L48.1716 57.5875L72.1253 50.1138L72.4274 51.083Z" fill="white"/>
<path d="M87.8233 150.518L104.729 135.524L93.9444 124.202L77.0388 139.196L87.8233 150.518Z" fill="#6EAA1D"/>
<path d="M86.8531 128.325L92.8246 123.027L93.9421 124.198L87.6249 129.803L86.8531 128.325Z" fill="#6EAA1D"/>
<path d="M87.8383 150.504L104.743 135.506L95.9786 124.128L79.0742 139.126L87.8383 150.504Z" fill="#8CC63E"/>
<path d="M89.0975 128.248L95.0725 122.948L95.9786 124.128L89.6648 129.73L89.0975 128.248Z" fill="#8CC63E"/>
<path d="M24.6748 129.879L52.5162 113.662L40.6207 94.8062L12.7791 111.024L24.6748 129.879Z" fill="#6EAA1D"/>
<path d="M29.5519 98.5835L39.3869 92.8549L40.6205 94.8063L30.216 100.867L29.5519 98.5835Z" fill="#6EAA1D"/>
<path d="M24.705 129.863L52.5465 113.646L43.4873 95.2789L15.6458 111.497L24.705 129.863Z" fill="#8CC63E"/>
<path d="M32.7112 99.1067L42.5516 93.3763L43.4873 95.2795L33.0883 101.338L32.7112 99.1067Z" fill="#8CC63E"/>
<path d="M130 40.8469L163.91 56.9356L174.189 33.0833L140.28 17L130 40.8469Z" fill="#6EAA1D"/>
<path d="M163.273 24.9316L175.252 30.6167L174.189 33.084L161.519 27.075L163.273 24.9316Z" fill="#6EAA1D"/>
<path d="M130.032 40.8688L163.947 56.9521L175.625 36.1502L141.715 20.0669L130.032 40.8688Z" fill="#8CC63E"/>
<path d="M164.854 28.3105L176.839 33.9956L175.625 36.1497L162.955 30.1408L164.854 28.3105Z" fill="#8CC63E"/>
</svg>
