<svg width="17" height="17" viewBox="0 0 17 17" fill="none" xmlns="http://www.w3.org/2000/svg">
<path d="M8.49275 1.4165C4.58275 1.4165 1.4165 4.58984 1.4165 8.49984C1.4165 12.4098 4.58275 15.5832 8.49275 15.5832C12.4098 15.5832 15.5832 12.4098 15.5832 8.49984C15.5832 4.58984 12.4098 1.4165 8.49275 1.4165ZM8.49984 14.1665C5.369 14.1665 2.83317 11.6307 2.83317 8.49984C2.83317 5.369 5.369 2.83317 8.49984 2.83317C11.6307 2.83317 14.1665 5.369 14.1665 8.49984C14.1665 11.6307 11.6307 14.1665 8.49984 14.1665ZM8.344 4.95817H8.3015C8.01817 4.95817 7.7915 5.18484 7.7915 5.46817V8.8115C7.7915 9.05942 7.919 9.29317 8.13859 9.42067L11.0782 11.1844C11.319 11.3261 11.6307 11.2553 11.7723 11.0144C11.8079 10.9571 11.8316 10.8931 11.8419 10.8264C11.8523 10.7598 11.8491 10.6917 11.8325 10.6262C11.816 10.5608 11.7865 10.4994 11.7457 10.4456C11.705 10.3918 11.6538 10.3468 11.5953 10.3132L8.854 8.684V5.46817C8.854 5.18484 8.62734 4.95817 8.344 4.95817Z" fill="#5F5D61"/>
</svg>
