<svg width="17" height="17" viewBox="0 0 17 17" fill="none" xmlns="http://www.w3.org/2000/svg">
<path d="M16.3438 1.76092C16.6489 1.45583 16.6489 0.961166 16.3438 0.656069C16.0387 0.350972 15.544 0.350972 15.2389 0.656069L8.49969 7.39532L1.76044 0.656072C1.45534 0.350975 0.960678 0.350975 0.655581 0.656072C0.350484 0.961169 0.350484 1.45583 0.655581 1.76093L7.39483 8.50018L0.655609 15.2394C0.350512 15.5445 0.350512 16.0392 0.655609 16.3443C0.960706 16.6494 1.45537 16.6494 1.76046 16.3443L8.49969 9.60503L15.2389 16.3443C15.544 16.6494 16.0387 16.6494 16.3438 16.3443C16.6489 16.0392 16.6489 15.5445 16.3438 15.2394L9.60454 8.50018L16.3438 1.76092Z" fill="#F5F5F5"/>
</svg>
