<svg width="64" height="66" viewBox="0 0 64 66" fill="none" xmlns="http://www.w3.org/2000/svg">
<g opacity="0.1">
<ellipse cx="33.4472" cy="29.1177" rx="4.11568" ry="4.14118" fill="#373539"/>
<path d="M54.8803 42.3726C57.4436 44.1764 58.1053 47.7101 56.3702 50.3289C54.1445 53.6881 49.2711 53.7816 46.9198 50.5102L34.1747 32.778L37.085 29.8498L54.8803 42.3726Z" fill="#373539"/>
<path d="M16.0651 6.34687C14.0263 4.0074 10.4111 3.99513 8.35663 6.32071C6.30958 8.63791 6.73393 12.234 9.26334 14.0045L29.8093 28.3856L32.7196 25.4573L16.0651 6.34687Z" fill="#373539"/>
<path d="M53.2258 22.7255C56.1732 21.9624 59.1909 23.6917 60.0226 26.6206C61.1323 30.5286 57.8457 34.2822 53.8254 33.6986L36.5336 31.1883L36.5336 27.0471L53.2258 22.7255Z" fill="#373539"/>
<path d="M7.10235 23.2255C4.14539 22.7396 1.40282 24.8798 1.15549 27.8662C0.891863 31.0493 3.56864 33.6974 6.74871 33.3996L30.36 31.1884L30.36 27.0473L7.10235 23.2255Z" fill="#373539"/>
<path d="M47.2033 6.61169C49.5854 3.16617 54.4849 2.72727 57.4345 5.69516C60.4676 8.7471 59.9064 13.8415 56.2825 16.1509L37.0841 28.3856L34.1739 25.4574L47.2033 6.61169Z" fill="#373539"/>
<path d="M12.4305 44.9234C10.3586 46.7206 10.0841 49.8503 11.8112 51.9848C13.9437 54.6202 17.9959 54.4495 19.9018 51.6439L32.7187 32.7779L29.8084 29.8496L12.4305 44.9234Z" fill="#373539"/>
<path d="M27.6434 6.84256C26.9711 3.40205 29.7623 0.267497 33.2574 0.538018C36.2927 0.772944 38.5075 3.50929 38.1049 6.52686L35.505 26.0118H31.3893L27.6434 6.84256Z" fill="#373539"/>
<path d="M26.1122 52.9472C25.33 56.0188 26.8328 59.2141 29.6975 60.5706C34.5354 62.8613 39.9522 58.7666 39.0677 53.4874L35.5051 32.2235H31.3894L26.1122 52.9472Z" fill="#373539"/>
</g>
</svg>
