<svg width="100" height="100" viewBox="0 0 100 100" fill="none" xmlns="http://www.w3.org/2000/svg">
<path fill-rule="evenodd" clip-rule="evenodd" d="M88.1426 72.4545C88.6893 72.7715 89.19 73.1621 89.6304 73.6154V70.6816C89.2698 71.3741 88.762 71.9792 88.1426 72.4545Z" fill="#D0E398"/>
<path fill-rule="evenodd" clip-rule="evenodd" d="M64.0646 8.75C63.2865 8.75 62.5403 9.05909 61.9901 9.60928C61.44 10.1595 61.1309 10.9057 61.1309 11.6838V22.8404H77.9329C79.0133 22.8404 80.0495 23.2696 80.8135 24.0336C81.5774 24.7976 82.0066 25.8337 82.0066 26.9141H61.1309V31.407H82.1491V35.4304H61.1309V39.9233H82.1491V43.9551H61.1309V64.5752C61.2147 64.4914 61.2901 64.4034 61.3781 64.3237C62.7578 63.0289 64.4257 62.0808 66.244 61.5576C65.3819 60.8709 64.7546 59.9332 64.449 58.8742C64.1434 57.8153 64.1746 56.6875 64.5383 55.6471C64.9021 54.6066 65.5803 53.705 66.4791 53.0671C67.3779 52.4292 68.4528 52.0865 69.5549 52.0865C70.6571 52.0865 71.732 52.4292 72.6308 53.0671C73.5296 53.705 74.2078 54.6066 74.5715 55.6471C74.9352 56.6875 74.9665 57.8153 74.6609 58.8742C74.3553 59.9332 73.728 60.8709 72.8659 61.5576C75.7481 62.3887 78.2233 64.2522 79.8189 66.7923C80.1104 65.7709 80.702 64.8607 81.5169 64.1795C82.3319 63.4984 83.3326 63.0777 84.3895 62.972C85.4463 62.8663 86.5105 63.0805 87.4442 63.5868C88.3779 64.0931 89.138 64.8682 89.626 65.8115V34.3156C89.626 27.5359 86.9331 21.0338 82.1395 16.2395C77.3459 11.4451 70.8443 8.75111 64.0646 8.75V8.75Z" fill="#D0E398"/>
<path d="M24.2076 52.0942C23.1573 52.0942 22.1307 52.4057 21.2574 52.9892C20.3842 53.5726 19.7036 54.402 19.3017 55.3723C18.8998 56.3425 18.7946 57.4102 18.9995 58.4403C19.2044 59.4704 19.7101 60.4165 20.4528 61.1591C21.1954 61.9018 22.1416 62.4075 23.1716 62.6124C24.2017 62.8173 25.2694 62.7121 26.2396 62.3102C27.2099 61.9083 28.0393 61.2277 28.6227 60.3545C29.2062 59.4812 29.5177 58.4546 29.5177 57.4043C29.5165 55.9964 28.9567 54.6464 27.9611 53.6508C26.9655 52.6552 25.6155 52.0953 24.2076 52.0942Z" fill="white"/>
<path d="M39.3373 44.2861C38.2866 44.2837 37.2587 44.593 36.3838 45.1749C35.5089 45.7569 34.8263 46.5854 34.4225 47.5554C34.0186 48.5255 33.9117 49.5936 34.1152 50.6245C34.3186 51.6553 34.8234 52.6027 35.5655 53.3466C36.3076 54.0905 37.2538 54.5975 38.2842 54.8034C39.3146 55.0093 40.3829 54.9049 41.3539 54.5033C42.3249 54.1018 43.155 53.4212 43.7391 52.5477C44.3231 51.6742 44.6348 50.647 44.6348 49.5962C44.6326 48.1908 44.0742 46.8433 43.0816 45.8483C42.0889 44.8533 40.7428 44.2917 39.3373 44.2861Z" fill="white"/>
<path d="M54.689 62.9365C53.6395 62.9365 52.6135 63.2475 51.7406 63.8303C50.8677 64.413 50.1871 65.2414 49.7847 66.2107C49.3823 67.18 49.2762 68.2468 49.4797 69.2764C49.6833 70.306 50.1873 71.2522 50.9283 71.9955C51.6692 72.7388 52.6138 73.2459 53.6428 73.4526C54.6717 73.6594 55.7389 73.5567 56.7095 73.1573C57.6801 72.758 58.5105 72.08 59.096 71.2089C59.6815 70.3379 59.9958 69.3129 59.9991 68.2634C60.0007 67.5648 59.8646 66.8727 59.5986 66.2268C59.3325 65.5809 58.9417 64.9937 58.4485 64.499C57.9553 64.0042 57.3694 63.6116 56.7243 63.3435C56.0792 63.0754 55.3876 62.9371 54.689 62.9365Z" fill="white"/>
<path fill-rule="evenodd" clip-rule="evenodd" d="M34.5849 47.2156C34.9334 46.5241 35.429 45.9173 36.0369 45.4378C36.6448 44.9583 37.3504 44.6176 38.1039 44.4397C38.8575 44.2618 39.6409 44.251 40.3991 44.408C41.1573 44.5651 41.872 44.8861 42.4929 45.3487C43.1138 45.8113 43.626 46.4042 43.9934 47.0858C44.3609 47.7673 44.5747 48.5211 44.6199 49.294C44.665 50.067 44.5405 50.8405 44.255 51.5602C43.9694 52.28 43.5298 52.9285 42.967 53.4603C45.3173 54.2034 47.3861 55.6436 48.8989 57.5898C50.4116 59.536 51.2969 61.8961 51.4372 64.3571C51.666 64.1583 51.9129 63.9815 52.1749 63.829V29.7052C52.1771 29.1142 51.945 28.5464 51.5295 28.1262C51.1139 27.7059 50.5488 27.4674 49.9578 27.463C46.7624 27.4522 43.6063 28.1667 40.7271 29.5526C37.8479 30.9385 35.3207 32.9596 33.3359 35.4638C34.1701 37.8306 34.5953 40.3222 34.5933 42.8317L34.5849 47.2156Z" fill="#D0E398"/>
<path fill-rule="evenodd" clip-rule="evenodd" d="M15.8215 43.9549V39.9231H30.6202C31.3391 38.3309 32.2512 36.8332 33.336 35.4638C33.336 35.4135 33.2983 35.3674 33.2815 35.3171V35.4303H15.8215V32.7731C15.8215 32.4108 15.9655 32.0633 16.2217 31.807C16.4779 31.5508 16.8254 31.4069 17.1878 31.4069H31.4375C29.4604 28.0803 26.651 25.3261 23.286 23.4154C19.9209 21.5047 16.1162 20.5034 12.2465 20.51C11.949 20.5122 11.6547 20.5731 11.3807 20.6891C11.1067 20.8051 10.8583 20.9741 10.6496 21.1862C10.4409 21.3984 10.2762 21.6496 10.1647 21.9255C10.0533 22.2014 9.99733 22.4966 10.0001 22.7942V64.9774C10.0007 68.3926 10.7145 71.7701 12.0956 74.8935V73.2171C12.1006 70.5822 12.9617 68.0204 14.5491 65.9174C16.1365 63.8145 18.3643 62.2843 20.8969 61.5575C20.291 61.072 19.7991 60.4595 19.4558 59.7632C19.1124 59.0669 18.9261 58.3037 18.9099 57.5275C18.8937 56.7513 19.048 55.981 19.362 55.271C19.676 54.561 20.1419 53.9285 20.727 53.4182C21.3121 52.9078 22.002 52.5322 22.7482 52.3176C23.4943 52.103 24.2784 52.0548 25.0452 52.1763C25.812 52.2978 26.5428 52.5861 27.186 53.0209C27.8292 53.4557 28.3691 54.0263 28.7678 54.6925V48.6154C28.7668 47.0479 28.9383 45.485 29.2791 43.9549H15.8215Z" fill="#D0E398"/>
<path fill-rule="evenodd" clip-rule="evenodd" d="M29.1619 81.1931V65.0281C29.1619 64.8018 29.1619 64.5796 29.187 64.3575C27.6697 63.4942 25.9538 63.0407 24.208 63.0415C21.5153 63.0493 18.9351 64.1227 17.0315 66.0271C15.1278 67.9315 14.0555 70.5121 14.0488 73.2049V81.1931C14.0488 83.1972 14.845 85.1192 16.2621 86.5363C17.6792 87.9535 19.6012 88.7496 21.6053 88.7496C23.6095 88.7496 25.5315 87.9535 26.9486 86.5363C28.3657 85.1192 29.1619 83.1972 29.1619 81.1931Z" fill="#7E5DA7"/>
<path fill-rule="evenodd" clip-rule="evenodd" d="M24.2083 60.7487C24.8715 60.7487 25.5197 60.5521 26.0711 60.1836C26.6225 59.8152 27.0522 59.2916 27.306 58.6789C27.5597 58.0663 27.6261 57.3921 27.4968 56.7417C27.3674 56.0913 27.0481 55.4939 26.5792 55.025C26.1103 54.5561 25.5128 54.2368 24.8624 54.1074C24.2121 53.978 23.5379 54.0444 22.9252 54.2982C22.3126 54.552 21.7889 54.9817 21.4205 55.5331C21.0521 56.0845 20.8555 56.7327 20.8555 57.3958C20.8555 58.2851 21.2087 59.1379 21.8375 59.7667C22.4663 60.3955 23.3191 60.7487 24.2083 60.7487Z" fill="#7E5DA7"/>
<path fill-rule="evenodd" clip-rule="evenodd" d="M39.3374 54.8518C36.7606 54.8595 34.2823 55.8429 32.4013 57.6042C30.5203 59.3655 29.3762 61.7738 29.1992 64.3446C30.7679 65.2296 32.0738 66.5147 32.9838 68.0689C33.8938 69.6232 34.3754 71.3909 34.3794 73.192V83.7828C34.4169 85.0723 34.9555 86.2964 35.8808 87.1952C36.8061 88.094 38.0454 88.5968 39.3354 88.5968C40.6253 88.5968 41.8646 88.094 42.7899 87.1952C43.7152 86.2964 44.2538 85.0723 44.2913 83.7828V83.6194C44.2965 81.8139 44.7812 80.0422 45.6958 78.4854C46.6103 76.9287 47.922 75.6429 49.4966 74.7594V65.0278C49.4922 62.3332 48.421 59.75 46.5172 57.8431C44.6134 55.9361 42.032 54.8607 39.3374 54.8518Z" fill="#FFCC32"/>
<path fill-rule="evenodd" clip-rule="evenodd" d="M35.9844 49.5963C35.9844 50.2594 36.181 50.9076 36.5494 51.459C36.9179 52.0104 37.4415 52.4401 38.0542 52.6939C38.6668 52.9477 39.341 53.0141 39.9914 52.8847C40.6417 52.7553 41.2392 52.436 41.7081 51.9671C42.177 51.4982 42.4963 50.9008 42.6257 50.2504C42.7551 49.6 42.6887 48.9258 42.4349 48.3132C42.1811 47.7005 41.7514 47.1769 41.2 46.8085C40.6486 46.4401 40.0004 46.2434 39.3372 46.2434C38.448 46.2434 37.5952 46.5967 36.9664 47.2254C36.3376 47.8542 35.9844 48.707 35.9844 49.5963Z" fill="#FFCC32"/>
<path fill-rule="evenodd" clip-rule="evenodd" d="M54.6888 64.9106C54.0257 64.9106 53.3774 65.1073 52.8261 65.4757C52.2747 65.8441 51.8449 66.3678 51.5912 66.9804C51.3374 67.5931 51.271 68.2672 51.4004 68.9176C51.5297 69.568 51.8491 70.1654 52.318 70.6343C52.7869 71.1032 53.3843 71.4226 54.0347 71.5519C54.6851 71.6813 55.3592 71.6149 55.9719 71.3611C56.5845 71.1074 57.1082 70.6776 57.4766 70.1263C57.845 69.5749 58.0417 68.9266 58.0417 68.2635C58.0417 67.3743 57.6884 66.5215 57.0596 65.8927C56.4309 65.2639 55.578 64.9106 54.6888 64.9106Z" fill="#74B743"/>
<path fill-rule="evenodd" clip-rule="evenodd" d="M59.3963 74.7721C57.8834 73.9202 56.1765 73.4727 54.4403 73.4727C52.7041 73.4727 50.9972 73.9202 49.4844 74.7721V83.7955C49.5219 85.0849 50.0605 86.309 50.9858 87.2078C51.9111 88.1066 53.1503 88.6094 54.4403 88.6094C55.7303 88.6094 56.9695 88.1066 57.8949 87.2078C58.8202 86.309 59.3588 85.0849 59.3963 83.7955V74.7721Z" fill="#74B743"/>
<path fill-rule="evenodd" clip-rule="evenodd" d="M84.9193 64.9106C84.2561 64.9106 83.6079 65.1073 83.0565 65.4757C82.5052 65.8441 82.0754 66.3678 81.8216 66.9804C81.5679 67.5931 81.5015 68.2672 81.6308 68.9176C81.7602 69.568 82.0795 70.1654 82.5484 70.6343C83.0174 71.1032 83.6148 71.4226 84.2652 71.5519C84.9156 71.6813 85.5897 71.6149 86.2024 71.3611C86.815 71.1074 87.3387 70.6776 87.7071 70.1263C88.0755 69.5749 88.2721 68.9266 88.2721 68.2635C88.2721 67.3743 87.9189 66.5215 87.2901 65.8927C86.6613 65.2639 85.8085 64.9106 84.9193 64.9106Z" fill="#7E5DA7"/>
<path fill-rule="evenodd" clip-rule="evenodd" d="M89.6306 78.4435C89.6262 77.1288 89.1029 75.8689 88.1744 74.9381C87.2459 74.0072 85.9873 73.4806 84.6726 73.4729C82.9399 73.4703 81.2361 73.9165 79.7271 74.768V83.6028C79.7075 84.927 80.2062 86.2064 81.1169 87.168C82.0276 88.1295 83.278 88.6971 84.6013 88.7494C85.2582 88.7594 85.9105 88.6387 86.5203 88.3942C87.13 88.1497 87.6851 87.7864 88.1531 87.3254C88.6212 86.8644 88.9928 86.3149 89.2465 85.7089C89.5001 85.1029 89.6307 84.4525 89.6306 83.7955V78.4435Z" fill="#7E5DA7"/>
<path fill-rule="evenodd" clip-rule="evenodd" d="M79.7186 73.2049V74.7556C79.7208 74.7594 79.722 74.7638 79.722 74.7682C79.722 74.7726 79.7208 74.7769 79.7186 74.7808C78.1478 75.665 76.8398 76.9503 75.9282 78.5054C75.0167 80.0605 74.5342 81.8297 74.53 83.6323V86.3482C74.5357 86.9745 74.2943 87.5779 73.8581 88.0274C73.4219 88.4769 72.8261 88.7364 72.1998 88.7496H72.1747C70.6283 88.7494 69.1191 88.2752 67.8505 87.3909C66.5818 86.5067 65.6146 85.2549 65.0792 83.8042L65.054 83.7287C64.9531 83.448 64.8706 83.161 64.8067 82.8696L64.3541 81.3356C64.0292 79.9627 63.424 78.6718 62.5766 77.5438C61.7291 76.4158 60.6577 75.4751 59.4296 74.7808C59.4277 74.7768 59.4268 74.7725 59.4268 74.7682C59.4268 74.7638 59.4277 74.7596 59.4296 74.7556V73.4983C59.4296 67.526 64.3164 62.6769 70.2761 63.0793C72.8358 63.2682 75.2299 64.4158 76.9804 66.2929C78.7308 68.1699 79.7087 70.6383 79.7186 73.2049Z" fill="#FFCC32"/>
<path fill-rule="evenodd" clip-rule="evenodd" d="M66.21 57.4041C66.21 58.0673 66.4066 58.7155 66.775 59.2669C67.1434 59.8183 67.6671 60.248 68.2797 60.5018C68.8924 60.7555 69.5665 60.8219 70.2169 60.6926C70.8673 60.5632 71.4647 60.2439 71.9337 59.775C72.4026 59.3061 72.7219 58.7086 72.8513 58.0582C72.9806 57.4079 72.9142 56.7337 72.6605 56.121C72.4067 55.5084 71.9769 54.9847 71.4256 54.6163C70.8742 54.2479 70.226 54.0513 69.5628 54.0513C68.6736 54.0513 67.8208 54.4045 67.192 55.0333C66.5632 55.6621 66.21 56.5149 66.21 57.4041Z" fill="#FFCC32"/>
</svg>
