<?xml version="1.0" standalone="no"?>
<!DOCTYPE svg PUBLIC "-//W3C//DTD SVG 20010904//EN"
 "http://www.w3.org/TR/2001/REC-SVG-20010904/DTD/svg10.dtd">
<svg version="1.0" xmlns="http://www.w3.org/2000/svg"
 width="700.000000pt" height="700.000000pt" viewBox="0 0 700.000000 700.000000"
 preserveAspectRatio="xMidYMid meet">
<metadata>
Created by potrace 1.14, written by Peter Selinger 2001-2017
</metadata>
<g transform="translate(0.000000,700.000000) scale(0.100000,-0.100000)"
fill="#000000" stroke="none">
<path d="M4416 6375 c-49 -17 -93 -59 -117 -110 -17 -37 -19 -72 -19 -452 l0
-411 600 0 c331 0 615 -4 633 -8 113 -24 208 -125 223 -236 l6 -43 -731 0
-731 1 0 -157 0 -158 703 0 c386 0 717 0 735 -1 l32 0 0 -140 0 -140 -735 0
-736 0 3 -157 3 -158 733 1 732 0 0 -141 0 -141 -732 0 -733 0 -3 -724 c-2
-583 0 -721 10 -708 25 32 149 118 214 148 36 16 67 30 69 30 2 0 16 5 30 10
l27 10 -36 41 c-165 182 -109 480 111 584 142 67 294 45 412 -61 151 -136 162
-372 22 -523 -35 -38 -36 -41 -17 -47 156 -47 344 -184 434 -317 l26 -39 28
56 c67 132 187 207 333 207 39 0 90 -7 115 -16 64 -22 143 -79 175 -126 15
-21 30 -39 34 -39 8 0 6 2266 -3 2349 -35 353 -168 684 -384 954 -81 102 -97
119 -202 213 -310 280 -708 442 -1126 459 -67 2 -112 -1 -138 -10z"/>
<path d="M812 5556 c-41 -14 -85 -54 -100 -91 -10 -24 -12 -372 -9 -1615 1
-872 6 -1598 9 -1615 4 -16 12 -60 18 -98 12 -79 73 -285 98 -334 l18 -34 2
97 c2 111 14 185 43 275 79 242 267 436 509 528 l53 20 76 -37 c70 -35 81 -37
166 -37 76 0 99 5 147 27 191 88 278 320 188 498 -16 31 -17 63 -15 320 1 157
5 301 9 320 3 19 8 47 10 63 3 15 8 37 11 48 4 12 3 24 -3 28 -6 3 -218 6
-471 5 l-461 0 -1 33 c0 18 0 62 0 98 0 36 0 84 0 108 l1 43 511 -1 c281 0
514 2 519 5 4 3 20 30 35 60 33 66 146 240 155 240 14 0 65 -197 76 -292 3
-29 7 -64 10 -78 2 -14 4 -119 5 -235 0 -177 -2 -216 -17 -250 -23 -54 -27
-163 -7 -228 32 -110 121 -208 224 -244 27 -10 49 -21 49 -24 0 -4 -17 -9 -37
-12 -98 -15 -174 -45 -263 -103 -79 -52 -112 -82 -174 -158 -74 -91 -126 -210
-144 -329 l-9 -57 63 -45 c147 -106 257 -276 289 -450 5 -22 9 -233 10 -470 1
-236 5 -446 10 -465 21 -98 101 -195 194 -239 47 -22 70 -26 146 -26 78 0 97
4 147 28 69 34 131 95 163 163 24 51 30 80 40 214 15 193 137 407 294 514 69
47 64 66 66 -304 1 -363 4 -385 56 -463 152 -230 491 -203 605 47 l29 61 0
350 0 350 -54 27 c-30 15 -89 35 -132 44 l-78 17 56 19 c99 34 168 97 217 198
28 58 31 74 30 155 0 80 -4 97 -32 156 -82 170 -276 252 -454 192 l-57 -20 0
1203 1 1204 -22 38 c-35 61 -82 80 -193 77 -83 -3 -134 -8 -207 -20 -225 -39
-485 -159 -670 -310 -68 -55 -178 -164 -205 -202 l-16 -23 -615 0 -614 0 -1
23 c-2 84 4 194 12 209 27 50 22 50 564 50 315 0 505 4 505 10 0 14 -72 118
-132 190 -222 267 -543 460 -876 527 -161 33 -319 44 -370 27z m2270 -2326
c214 -91 389 -276 467 -492 22 -60 29 -90 42 -168 8 -50 7 -56 -14 -75 -36
-31 -85 -103 -92 -135 -12 -56 -20 -38 -20 43 1 93 -16 211 -39 275 -63 173
-195 325 -352 405 -52 26 -169 64 -216 70 -34 4 -44 12 -16 14 28 3 120 48
143 72 11 11 21 20 23 20 2 1 35 -13 74 -29z m475 -1262 c37 -39 114 -87 158
-99 44 -13 43 -15 -13 -23 -62 -8 -117 -24 -180 -52 -30 -13 -55 -24 -56 -24
0 0 -1 78 -1 174 l-1 175 33 -61 c18 -34 45 -75 60 -90z"/>
<path d="M4800 3204 c-132 -39 -199 -189 -142 -316 38 -87 116 -138 212 -138
176 0 287 187 203 341 -55 102 -162 146 -273 113z"/>
<path d="M1570 2574 c-225 -39 -424 -194 -522 -404 -57 -124 -62 -164 -62
-550 0 -378 1 -406 34 -492 133 -356 599 -453 867 -181 70 72 124 171 143 265
8 39 11 248 11 668 1 581 0 612 -18 626 -10 8 -29 17 -43 20 -14 4 -29 10 -35
14 -21 16 -149 41 -223 44 -42 2 -111 -2 -152 -10z"/>
<path d="M4810 2583 c-217 -27 -390 -126 -505 -288 -93 -131 -133 -250 -142
-420 l-5 -110 48 -30 c73 -45 174 -153 221 -236 27 -47 57 -125 83 -214 23
-77 51 -162 63 -189 50 -113 167 -225 277 -267 73 -28 83 -30 166 -36 86 -6
139 16 175 73 21 34 23 51 26 202 3 172 16 252 56 351 46 114 147 238 250 310
27 18 50 31 52 29 2 -2 5 -161 7 -353 l3 -350 26 -55 c36 -77 104 -144 180
-179 57 -26 74 -29 149 -27 70 2 94 7 138 29 76 40 128 95 163 173 l31 69 2
220 c1 121 -2 245 -6 275 -18 118 -93 216 -206 268 -49 22 -70 26 -147 25
-100 0 -205 -23 -277 -59 -26 -13 -49 -24 -51 -24 -2 0 -7 53 -10 118 -12 246
-112 434 -304 571 -123 87 -325 141 -463 124z"/>
<path d="M5900 2450 c-103 -19 -178 -103 -187 -208 -16 -178 169 -307 331
-231 85 39 137 126 132 219 -8 145 -136 247 -276 220z"/>
<path d="M6260 2033 c0 -6 -20 -33 -45 -61 -39 -43 -43 -51 -28 -56 10 -3 32
-19 50 -36 20 -18 33 -25 35 -17 7 18 1 167 -6 174 -3 4 -6 2 -6 -4z"/>
</g>
</svg>
